<?xml version="1.0" encoding="UTF-8" standalone="no"?><svg xmlns="http://www.w3.org/2000/svg" xmlns:xlink="http://www.w3.org/1999/xlink" clip-rule="evenodd" stroke-miterlimit="10" viewBox="0 0 1223 135"><desc>SVG generated by Keynote</desc><defs></defs><g transform="matrix(1.00, 0.00, -0.00, -1.00, 0.0, 135.0)"><text xml:space="preserve" font-family="OpenSans,Open Sans" font-size="55.0" fill="#525252" transform="matrix(1.00, 0.00, -0.00, -1.00, -3.1, 90.8)">1</text><text xml:space="preserve" font-family="OpenSans,Open Sans" font-size="55.0" fill="#525252" transform="matrix(1.00, 0.00, -0.00, -1.00, 28.4, 90.8)">0</text><text xml:space="preserve" font-family="OpenSans,Open Sans" font-size="55.0" fill="#525252" transform="matrix(1.00, 0.00, -0.00, -1.00, 59.8, 90.8)">x</text><text xml:space="preserve" font-family="OpenSans,Open Sans" font-size="55.0" fill="#525252" transform="matrix(1.00, 0.00, -0.00, -1.00, 88.6, 90.8)"> </text><text xml:space="preserve" font-family="OpenSans,Open Sans" font-size="55.0" fill="#525252" transform="matrix(1.00, 0.00, -0.00, -1.00, 102.9, 90.8)">s</text><text xml:space="preserve" font-family="OpenSans,Open Sans" font-size="55.0" fill="#525252" transform="matrix(1.00, 0.00, -0.00, -1.00, 129.1, 90.8)">m</text><text xml:space="preserve" font-family="OpenSans,Open Sans" font-size="55.0" fill="#525252" transform="matrix(1.00, 0.00, -0.00, -1.00, 180.3, 90.8)">a</text><text xml:space="preserve" font-family="OpenSans,Open Sans" font-size="55.0" fill="#525252" transform="matrix(1.00, 0.00, -0.00, -1.00, 210.9, 90.8)">l</text><text xml:space="preserve" font-family="OpenSans,Open Sans" font-size="55.0" fill="#525252" transform="matrix(1.00, 0.00, -0.00, -1.00, 224.8, 90.8)">l</text><text xml:space="preserve" font-family="OpenSans,Open Sans" font-size="55.0" fill="#525252" transform="matrix(1.00, 0.00, -0.00, -1.00, 238.7, 90.8)">e</text><text xml:space="preserve" font-family="OpenSans,Open Sans" font-size="55.0" fill="#525252" transform="matrix(1.00, 0.00, -0.00, -1.00, 269.6, 90.8)">r</text><text xml:space="preserve" font-family="OpenSans,Open Sans" font-size="55.0" fill="#525252" transform="matrix(1.00, 0.00, -0.00, -1.00, 292.0, 90.8)"> </text><text xml:space="preserve" font-family="OpenSans,Open Sans" font-size="55.0" fill="#525252" transform="matrix(1.00, 0.00, -0.00, -1.00, 306.3, 90.8)">c</text><text xml:space="preserve" font-family="OpenSans,Open Sans" font-size="55.0" fill="#525252" transform="matrix(1.00, 0.00, -0.00, -1.00, 332.5, 90.8)">o</text><text xml:space="preserve" font-family="OpenSans,Open Sans" font-size="55.0" fill="#525252" transform="matrix(1.00, 0.00, -0.00, -1.00, 365.7, 90.8)">d</text><text xml:space="preserve" font-family="OpenSans,Open Sans" font-size="55.0" fill="#525252" transform="matrix(1.00, 0.00, -0.00, -1.00, 399.4, 90.8)">e</text><text xml:space="preserve" font-family="OpenSans,Open Sans" font-size="55.0" fill="#525252" transform="matrix(1.00, 0.00, -0.00, -1.00, 430.3, 90.8)">b</text><text xml:space="preserve" font-family="OpenSans,Open Sans" font-size="55.0" fill="#525252" transform="matrix(1.00, 0.00, -0.00, -1.00, 464.0, 90.8)">a</text><text xml:space="preserve" font-family="OpenSans,Open Sans" font-size="55.0" fill="#525252" transform="matrix(1.00, 0.00, -0.00, -1.00, 494.6, 90.8)">s</text><text xml:space="preserve" font-family="OpenSans,Open Sans" font-size="55.0" fill="#525252" transform="matrix(1.00, 0.00, -0.00, -1.00, 520.8, 90.8)">e</text><text xml:space="preserve" font-family="OpenSans,Open Sans" font-size="55.0" fill="#525252" transform="matrix(1.00, 0.00, -0.00, -1.00, 551.7, 90.8)"> </text><text xml:space="preserve" font-family="OpenSans,Open Sans" font-size="55.0" fill="#525252" transform="matrix(1.00, 0.00, -0.00, -1.00, 565.9, 90.8)">(</text><text xml:space="preserve" font-family="OpenSans,Open Sans" font-size="55.0" fill="#525252" transform="matrix(1.00, 0.00, -0.00, -1.00, 582.2, 90.8)">a</text><text xml:space="preserve" font-family="OpenSans,Open Sans" font-size="55.0" fill="#525252" transform="matrix(1.00, 0.00, -0.00, -1.00, 612.8, 90.8)">n</text><text xml:space="preserve" font-family="OpenSans,Open Sans" font-size="55.0" fill="#525252" transform="matrix(1.00, 0.00, -0.00, -1.00, 646.6, 90.8)">d</text><text xml:space="preserve" font-family="OpenSans,Open Sans" font-size="55.0" fill="#525252" transform="matrix(1.00, 0.00, -0.00, -1.00, 680.3, 90.8)"> </text><text xml:space="preserve" font-family="OpenSans,Open Sans" font-size="55.0" fill="#525252" transform="matrix(1.00, 0.00, -0.00, -1.00, 694.5, 90.8)">t</text><text xml:space="preserve" font-family="OpenSans,Open Sans" font-size="55.0" fill="#525252" transform="matrix(1.00, 0.00, -0.00, -1.00, 713.9, 90.8)">h</text><text xml:space="preserve" font-family="OpenSans,Open Sans" font-size="55.0" fill="#525252" transform="matrix(1.00, 0.00, -0.00, -1.00, 747.7, 90.8)">a</text><text xml:space="preserve" font-family="OpenSans,Open Sans" font-size="55.0" fill="#525252" transform="matrix(1.00, 0.00, -0.00, -1.00, 778.3, 90.8)">t</text><text xml:space="preserve" font-family="OpenSans,Open Sans" font-size="55.0" fill="#525252" transform="matrix(1.00, 0.00, -0.00, -1.00, 798.8, 90.8)">’</text><text xml:space="preserve" font-family="OpenSans,Open Sans" font-size="55.0" fill="#525252" transform="matrix(1.00, 0.00, -0.00, -1.00, 806.5, 90.8)">s</text><text xml:space="preserve" font-family="OpenSans,Open Sans" font-size="55.0" fill="#525252" transform="matrix(1.00, 0.00, -0.00, -1.00, 832.8, 90.8)"> </text><text xml:space="preserve" font-family="OpenSans,Open Sans" font-size="55.0" fill="#525252" transform="matrix(1.00, 0.00, -0.00, -1.00, 847.0, 90.8)">a</text><text xml:space="preserve" font-family="OpenSans,Open Sans" font-size="55.0" fill="#525252" transform="matrix(1.00, 0.00, -0.00, -1.00, 877.6, 90.8)">f</text><text xml:space="preserve" font-family="OpenSans,Open Sans" font-size="55.0" fill="#525252" transform="matrix(1.00, 0.00, -0.00, -1.00, 896.3, 90.8)">t</text><text xml:space="preserve" font-family="OpenSans,Open Sans" font-size="55.0" fill="#525252" transform="matrix(1.00, 0.00, -0.00, -1.00, 915.7, 90.8)">e</text><text xml:space="preserve" font-family="OpenSans,Open Sans" font-size="55.0" fill="#525252" transform="matrix(1.00, 0.00, -0.00, -1.00, 946.5, 90.8)">r</text><text xml:space="preserve" font-family="OpenSans,Open Sans" font-size="55.0" fill="#525252" transform="matrix(1.00, 0.00, -0.00, -1.00, 969.0, 90.8)"> </text><text xml:space="preserve" font-family="OpenSans,Open Sans" font-size="55.0" fill="#525252" transform="matrix(1.00, 0.00, -0.00, -1.00, 983.3, 90.8)">t</text><text xml:space="preserve" font-family="OpenSans,Open Sans" font-size="55.0" fill="#525252" transform="matrix(1.00, 0.00, -0.00, -1.00, 1002.7, 90.8)">h</text><text xml:space="preserve" font-family="OpenSans,Open Sans" font-size="55.0" fill="#525252" transform="matrix(1.00, 0.00, -0.00, -1.00, 1036.4, 90.8)">e</text><text xml:space="preserve" font-family="OpenSans,Open Sans" font-size="55.0" fill="#525252" transform="matrix(1.00, 0.00, -0.00, -1.00, 1067.3, 90.8)"> </text><text xml:space="preserve" font-family="OpenSans,Open Sans" font-size="55.0" fill="#525252" transform="matrix(1.00, 0.00, -0.00, -1.00, 1081.6, 90.8)">i</text><text xml:space="preserve" font-family="OpenSans,Open Sans" font-size="55.0" fill="#525252" transform="matrix(1.00, 0.00, -0.00, -1.00, 1095.5, 90.8)">n</text><text xml:space="preserve" font-family="OpenSans,Open Sans" font-size="55.0" fill="#525252" transform="matrix(1.00, 0.00, -0.00, -1.00, 1129.2, 90.8)">i</text><text xml:space="preserve" font-family="OpenSans,Open Sans" font-size="55.0" fill="#525252" transform="matrix(1.00, 0.00, -0.00, -1.00, 1143.1, 90.8)">t</text><text xml:space="preserve" font-family="OpenSans,Open Sans" font-size="55.0" fill="#525252" transform="matrix(1.00, 0.00, -0.00, -1.00, 1162.5, 90.8)">i</text><text xml:space="preserve" font-family="OpenSans,Open Sans" font-size="55.0" fill="#525252" transform="matrix(1.00, 0.00, -0.00, -1.00, 1176.4, 90.8)">a</text><text xml:space="preserve" font-family="OpenSans,Open Sans" font-size="55.0" fill="#525252" transform="matrix(1.00, 0.00, -0.00, -1.00, 1207.0, 90.8)">l</text><text xml:space="preserve" font-family="OpenSans,Open Sans" font-size="55.0" fill="#525252" transform="matrix(1.00, 0.00, -0.00, -1.00, 1221.0, 90.8)"> </text><text xml:space="preserve" font-family="OpenSans,Open Sans" font-size="55.0" fill="#525252" transform="matrix(1.00, 0.00, -0.00, -1.00, 460.6, 15.8)">r</text><text xml:space="preserve" font-family="OpenSans,Open Sans" font-size="55.0" fill="#525252" transform="matrix(1.00, 0.00, -0.00, -1.00, 482.0, 15.8)">e</text><text xml:space="preserve" font-family="OpenSans,Open Sans" font-size="55.0" fill="#525252" transform="matrix(1.00, 0.00, -0.00, -1.00, 512.8, 15.8)">f</text><text xml:space="preserve" font-family="OpenSans,Open Sans" font-size="55.0" fill="#525252" transform="matrix(1.00, 0.00, -0.00, -1.00, 531.5, 15.8)">a</text><text xml:space="preserve" font-family="OpenSans,Open Sans" font-size="55.0" fill="#525252" transform="matrix(1.00, 0.00, -0.00, -1.00, 562.1, 15.8)">c</text><text xml:space="preserve" font-family="OpenSans,Open Sans" font-size="55.0" fill="#525252" transform="matrix(1.00, 0.00, -0.00, -1.00, 588.3, 15.8)">t</text><text xml:space="preserve" font-family="OpenSans,Open Sans" font-size="55.0" fill="#525252" transform="matrix(1.00, 0.00, -0.00, -1.00, 607.7, 15.8)">o</text><text xml:space="preserve" font-family="OpenSans,Open Sans" font-size="55.0" fill="#525252" transform="matrix(1.00, 0.00, -0.00, -1.00, 640.9, 15.8)">r</text><text xml:space="preserve" font-family="OpenSans,Open Sans" font-size="55.0" fill="#525252" transform="matrix(1.00, 0.00, -0.00, -1.00, 663.3, 15.8)">i</text><text xml:space="preserve" font-family="OpenSans,Open Sans" font-size="55.0" fill="#525252" transform="matrix(1.00, 0.00, -0.00, -1.00, 677.3, 15.8)">n</text><text xml:space="preserve" font-family="OpenSans,Open Sans" font-size="55.0" fill="#525252" transform="matrix(1.00, 0.00, -0.00, -1.00, 711.0, 15.8)">g</text><text xml:space="preserve" font-family="OpenSans,Open Sans" font-size="55.0" fill="#525252" transform="matrix(1.00, 0.00, -0.00, -1.00, 741.1, 15.8)">)</text></g></svg>