<?xml version="1.0" encoding="UTF-8" standalone="no"?><svg xmlns="http://www.w3.org/2000/svg" xmlns:xlink="http://www.w3.org/1999/xlink" clip-rule="evenodd" stroke-miterlimit="10" viewBox="0 0 1158 59"><desc>SVG generated by Keynote</desc><defs></defs><g transform="matrix(1.00, 0.00, -0.00, -1.00, 0.0, 59.0)"><text xml:space="preserve" font-family="OpenSans,Open Sans" font-size="55.0" fill="#525252" transform="matrix(1.00, 0.00, -0.00, -1.00, -0.6, 15.6)">S</text><text xml:space="preserve" font-family="OpenSans,Open Sans" font-size="55.0" fill="#525252" transform="matrix(1.00, 0.00, -0.00, -1.00, 29.6, 15.6)">e</text><text xml:space="preserve" font-family="OpenSans,Open Sans" font-size="55.0" fill="#525252" transform="matrix(1.00, 0.00, -0.00, -1.00, 60.5, 15.6)">c</text><text xml:space="preserve" font-family="OpenSans,Open Sans" font-size="55.0" fill="#525252" transform="matrix(1.00, 0.00, -0.00, -1.00, 86.7, 15.6)">u</text><text xml:space="preserve" font-family="OpenSans,Open Sans" font-size="55.0" fill="#525252" transform="matrix(1.00, 0.00, -0.00, -1.00, 120.4, 15.6)">r</text><text xml:space="preserve" font-family="OpenSans,Open Sans" font-size="55.0" fill="#525252" transform="matrix(1.00, 0.00, -0.00, -1.00, 142.9, 15.6)">i</text><text xml:space="preserve" font-family="OpenSans,Open Sans" font-size="55.0" fill="#525252" transform="matrix(1.00, 0.00, -0.00, -1.00, 156.8, 15.6)">t</text><text xml:space="preserve" font-family="OpenSans,Open Sans" font-size="55.0" fill="#525252" transform="matrix(1.00, 0.00, -0.00, -1.00, 176.2, 15.6)">y</text><text xml:space="preserve" font-family="OpenSans,Open Sans" font-size="55.0" fill="#525252" transform="matrix(1.00, 0.00, -0.00, -1.00, 201.7, 15.6)">,</text><text xml:space="preserve" font-family="OpenSans,Open Sans" font-size="55.0" fill="#525252" transform="matrix(1.00, 0.00, -0.00, -1.00, 215.2, 15.6)"> </text><text xml:space="preserve" font-family="OpenSans,Open Sans" font-size="55.0" fill="#525252" transform="matrix(1.00, 0.00, -0.00, -1.00, 229.5, 15.6)">d</text><text xml:space="preserve" font-family="OpenSans,Open Sans" font-size="55.0" fill="#525252" transform="matrix(1.00, 0.00, -0.00, -1.00, 263.2, 15.6)">e</text><text xml:space="preserve" font-family="OpenSans,Open Sans" font-size="55.0" fill="#525252" transform="matrix(1.00, 0.00, -0.00, -1.00, 294.0, 15.6)">c</text><text xml:space="preserve" font-family="OpenSans,Open Sans" font-size="55.0" fill="#525252" transform="matrix(1.00, 0.00, -0.00, -1.00, 320.2, 15.6)">e</text><text xml:space="preserve" font-family="OpenSans,Open Sans" font-size="55.0" fill="#525252" transform="matrix(1.00, 0.00, -0.00, -1.00, 351.1, 15.6)">n</text><text xml:space="preserve" font-family="OpenSans,Open Sans" font-size="55.0" fill="#525252" transform="matrix(1.00, 0.00, -0.00, -1.00, 384.8, 15.6)">t</text><text xml:space="preserve" font-family="OpenSans,Open Sans" font-size="55.0" fill="#525252" transform="matrix(1.00, 0.00, -0.00, -1.00, 404.2, 15.6)">r</text><text xml:space="preserve" font-family="OpenSans,Open Sans" font-size="55.0" fill="#525252" transform="matrix(1.00, 0.00, -0.00, -1.00, 425.6, 15.6)">a</text><text xml:space="preserve" font-family="OpenSans,Open Sans" font-size="55.0" fill="#525252" transform="matrix(1.00, 0.00, -0.00, -1.00, 456.2, 15.6)">l</text><text xml:space="preserve" font-family="OpenSans,Open Sans" font-size="55.0" fill="#525252" transform="matrix(1.00, 0.00, -0.00, -1.00, 470.1, 15.6)">i</text><text xml:space="preserve" font-family="OpenSans,Open Sans" font-size="55.0" fill="#525252" transform="matrix(1.00, 0.00, -0.00, -1.00, 484.0, 15.6)">s</text><text xml:space="preserve" font-family="OpenSans,Open Sans" font-size="55.0" fill="#525252" transform="matrix(1.00, 0.00, -0.00, -1.00, 510.2, 15.6)">a</text><text xml:space="preserve" font-family="OpenSans,Open Sans" font-size="55.0" fill="#525252" transform="matrix(1.00, 0.00, -0.00, -1.00, 540.8, 15.6)">t</text><text xml:space="preserve" font-family="OpenSans,Open Sans" font-size="55.0" fill="#525252" transform="matrix(1.00, 0.00, -0.00, -1.00, 560.3, 15.6)">i</text><text xml:space="preserve" font-family="OpenSans,Open Sans" font-size="55.0" fill="#525252" transform="matrix(1.00, 0.00, -0.00, -1.00, 574.2, 15.6)">o</text><text xml:space="preserve" font-family="OpenSans,Open Sans" font-size="55.0" fill="#525252" transform="matrix(1.00, 0.00, -0.00, -1.00, 607.4, 15.6)">n</text><text xml:space="preserve" font-family="OpenSans,Open Sans" font-size="55.0" fill="#525252" transform="matrix(1.00, 0.00, -0.00, -1.00, 641.1, 15.6)">,</text><text xml:space="preserve" font-family="OpenSans,Open Sans" font-size="55.0" fill="#525252" transform="matrix(1.00, 0.00, -0.00, -1.00, 654.6, 15.6)"> </text><text xml:space="preserve" font-family="OpenSans,Open Sans" font-size="55.0" fill="#525252" transform="matrix(1.00, 0.00, -0.00, -1.00, 668.9, 15.6)">n</text><text xml:space="preserve" font-family="OpenSans,Open Sans" font-size="55.0" fill="#525252" transform="matrix(1.00, 0.00, -0.00, -1.00, 702.6, 15.6)">e</text><text xml:space="preserve" font-family="OpenSans,Open Sans" font-size="55.0" fill="#525252" transform="matrix(1.00, 0.00, -0.00, -1.00, 733.5, 15.6)">t</text><text xml:space="preserve" font-family="OpenSans,Open Sans" font-size="55.0" fill="#525252" transform="matrix(1.00, 0.00, -0.00, -1.00, 752.9, 15.6)">w</text><text xml:space="preserve" font-family="OpenSans,Open Sans" font-size="55.0" fill="#525252" transform="matrix(1.00, 0.00, -0.00, -1.00, 795.7, 15.6)">o</text><text xml:space="preserve" font-family="OpenSans,Open Sans" font-size="55.0" fill="#525252" transform="matrix(1.00, 0.00, -0.00, -1.00, 828.9, 15.6)">r</text><text xml:space="preserve" font-family="OpenSans,Open Sans" font-size="55.0" fill="#525252" transform="matrix(1.00, 0.00, -0.00, -1.00, 851.4, 15.6)">k</text><text xml:space="preserve" font-family="OpenSans,Open Sans" font-size="55.0" fill="#525252" transform="matrix(1.00, 0.00, -0.00, -1.00, 880.2, 15.6)">i</text><text xml:space="preserve" font-family="OpenSans,Open Sans" font-size="55.0" fill="#525252" transform="matrix(1.00, 0.00, -0.00, -1.00, 894.1, 15.6)">n</text><text xml:space="preserve" font-family="OpenSans,Open Sans" font-size="55.0" fill="#525252" transform="matrix(1.00, 0.00, -0.00, -1.00, 927.9, 15.6)">g</text><text xml:space="preserve" font-family="OpenSans,Open Sans" font-size="55.0" fill="#525252" transform="matrix(1.00, 0.00, -0.00, -1.00, 958.0, 15.6)">,</text><text xml:space="preserve" font-family="OpenSans,Open Sans" font-size="55.0" fill="#525252" transform="matrix(1.00, 0.00, -0.00, -1.00, 971.5, 15.6)"> </text><text xml:space="preserve" font-family="OpenSans,Open Sans" font-size="55.0" fill="#525252" transform="matrix(1.00, 0.00, -0.00, -1.00, 985.8, 15.6)">F</text><text xml:space="preserve" font-family="OpenSans,Open Sans" font-size="55.0" fill="#525252" transform="matrix(1.00, 0.00, -0.00, -1.00, 1014.2, 15.6)">O</text><text xml:space="preserve" font-family="OpenSans,Open Sans" font-size="55.0" fill="#525252" transform="matrix(1.00, 0.00, -0.00, -1.00, 1057.0, 15.6)">S</text><text xml:space="preserve" font-family="OpenSans,Open Sans" font-size="55.0" fill="#525252" transform="matrix(1.00, 0.00, -0.00, -1.00, 1087.2, 15.6)">S</text><text xml:space="preserve" font-family="OpenSans,Open Sans" font-size="55.0" fill="#525252" transform="matrix(1.00, 0.00, -0.00, -1.00, 1117.3, 15.6)">…</text></g></svg>