<?xml version="1.0" encoding="UTF-8" standalone="no"?><svg xmlns="http://www.w3.org/2000/svg" xmlns:xlink="http://www.w3.org/1999/xlink" clip-rule="evenodd" stroke-miterlimit="10" viewBox="0 0 993 60"><desc>SVG generated by Keynote</desc><defs></defs><g transform="matrix(1.00, 0.00, -0.00, -1.00, 0.0, 60.0)"><g><clipPath id="clip0x6080082adb00"><path d="M 0.0 6.5 L 993.0 6.5 L 993.0 60.0 L 0.0 60.0 Z M 0.0 6.5 "></path></clipPath><g clip-path="url(#clip0x6080082adb00)"><text xml:space="preserve" font-family="OpenSans,Open Sans" font-size="55.0" fill="#525252" transform="matrix(1.00, 0.00, -0.00, -1.00, -3.4, 15.6)">E</text><text xml:space="preserve" font-family="OpenSans,Open Sans" font-size="55.0" fill="#525252" transform="matrix(1.00, 0.00, -0.00, -1.00, 27.2, 15.6)">m</text><text xml:space="preserve" font-family="OpenSans,Open Sans" font-size="55.0" fill="#525252" transform="matrix(1.00, 0.00, -0.00, -1.00, 78.4, 15.6)">p</text><text xml:space="preserve" font-family="OpenSans,Open Sans" font-size="55.0" fill="#525252" transform="matrix(1.00, 0.00, -0.00, -1.00, 112.1, 15.6)">o</text><text xml:space="preserve" font-family="OpenSans,Open Sans" font-size="55.0" fill="#525252" transform="matrix(1.00, 0.00, -0.00, -1.00, 144.2, 15.6)">w</text><text xml:space="preserve" font-family="OpenSans,Open Sans" font-size="55.0" fill="#525252" transform="matrix(1.00, 0.00, -0.00, -1.00, 186.9, 15.6)">e</text><text xml:space="preserve" font-family="OpenSans,Open Sans" font-size="55.0" fill="#525252" transform="matrix(1.00, 0.00, -0.00, -1.00, 217.8, 15.6)">r</text><text xml:space="preserve" font-family="OpenSans,Open Sans" font-size="55.0" fill="#525252" transform="matrix(1.00, 0.00, -0.00, -1.00, 240.3, 15.6)">m</text><text xml:space="preserve" font-family="OpenSans,Open Sans" font-size="55.0" fill="#525252" transform="matrix(1.00, 0.00, -0.00, -1.00, 291.4, 15.6)">e</text><text xml:space="preserve" font-family="OpenSans,Open Sans" font-size="55.0" fill="#525252" transform="matrix(1.00, 0.00, -0.00, -1.00, 322.3, 15.6)">n</text><text xml:space="preserve" font-family="OpenSans,Open Sans" font-size="55.0" fill="#525252" transform="matrix(1.00, 0.00, -0.00, -1.00, 356.0, 15.6)">t</text><text xml:space="preserve" font-family="OpenSans,Open Sans" font-size="55.0" fill="#525252" transform="matrix(1.00, 0.00, -0.00, -1.00, 375.5, 15.6)"> </text><text xml:space="preserve" font-family="OpenSans,Open Sans" font-size="55.0" fill="#525252" transform="matrix(1.00, 0.00, -0.00, -1.00, 389.7, 15.6)">o</text><text xml:space="preserve" font-family="OpenSans,Open Sans" font-size="55.0" fill="#525252" transform="matrix(1.00, 0.00, -0.00, -1.00, 423.0, 15.6)">f</text><text xml:space="preserve" font-family="OpenSans,Open Sans" font-size="55.0" fill="#525252" transform="matrix(1.00, 0.00, -0.00, -1.00, 441.6, 15.6)"> </text><text xml:space="preserve" font-family="OpenSans,Open Sans" font-size="55.0" fill="#525252" transform="matrix(1.00, 0.00, -0.00, -1.00, 455.9, 15.6)">f</text><text xml:space="preserve" font-family="OpenSans,Open Sans" font-size="55.0" fill="#525252" transform="matrix(1.00, 0.00, -0.00, -1.00, 474.5, 15.6)">r</text><text xml:space="preserve" font-family="OpenSans,Open Sans" font-size="55.0" fill="#525252" transform="matrix(1.00, 0.00, -0.00, -1.00, 495.9, 15.6)">o</text><text xml:space="preserve" font-family="OpenSans,Open Sans" font-size="55.0" fill="#525252" transform="matrix(1.00, 0.00, -0.00, -1.00, 529.1, 15.6)">n</text><text xml:space="preserve" font-family="OpenSans,Open Sans" font-size="55.0" fill="#525252" transform="matrix(1.00, 0.00, -0.00, -1.00, 562.8, 15.6)">t</text><text xml:space="preserve" font-family="OpenSans,Open Sans" font-size="55.0" fill="#525252" transform="matrix(1.00, 0.00, -0.00, -1.00, 582.2, 15.6)"> </text><text xml:space="preserve" font-family="OpenSans,Open Sans" font-size="55.0" fill="#525252" transform="matrix(1.00, 0.00, -0.00, -1.00, 596.5, 15.6)">e</text><text xml:space="preserve" font-family="OpenSans,Open Sans" font-size="55.0" fill="#525252" transform="matrix(1.00, 0.00, -0.00, -1.00, 627.4, 15.6)">n</text><text xml:space="preserve" font-family="OpenSans,Open Sans" font-size="55.0" fill="#525252" transform="matrix(1.00, 0.00, -0.00, -1.00, 661.1, 15.6)">d</text><text xml:space="preserve" font-family="OpenSans,Open Sans" font-size="55.0" fill="#525252" transform="matrix(1.00, 0.00, -0.00, -1.00, 694.8, 15.6)"> </text><text xml:space="preserve" font-family="OpenSans,Open Sans" font-size="55.0" fill="#525252" transform="matrix(1.00, 0.00, -0.00, -1.00, 709.1, 15.6)">d</text><text xml:space="preserve" font-family="OpenSans,Open Sans" font-size="55.0" fill="#525252" transform="matrix(1.00, 0.00, -0.00, -1.00, 742.8, 15.6)">e</text><text xml:space="preserve" font-family="OpenSans,Open Sans" font-size="55.0" fill="#525252" transform="matrix(1.00, 0.00, -0.00, -1.00, 772.5, 15.6)">v</text><text xml:space="preserve" font-family="OpenSans,Open Sans" font-size="55.0" fill="#525252" transform="matrix(1.00, 0.00, -0.00, -1.00, 800.1, 15.6)">e</text><text xml:space="preserve" font-family="OpenSans,Open Sans" font-size="55.0" fill="#525252" transform="matrix(1.00, 0.00, -0.00, -1.00, 830.9, 15.6)">l</text><text xml:space="preserve" font-family="OpenSans,Open Sans" font-size="55.0" fill="#525252" transform="matrix(1.00, 0.00, -0.00, -1.00, 844.9, 15.6)">o</text><text xml:space="preserve" font-family="OpenSans,Open Sans" font-size="55.0" fill="#525252" transform="matrix(1.00, 0.00, -0.00, -1.00, 878.1, 15.6)">p</text><text xml:space="preserve" font-family="OpenSans,Open Sans" font-size="55.0" fill="#525252" transform="matrix(1.00, 0.00, -0.00, -1.00, 911.8, 15.6)">e</text><text xml:space="preserve" font-family="OpenSans,Open Sans" font-size="55.0" fill="#525252" transform="matrix(1.00, 0.00, -0.00, -1.00, 942.6, 15.6)">r</text><text xml:space="preserve" font-family="OpenSans,Open Sans" font-size="55.0" fill="#525252" transform="matrix(1.00, 0.00, -0.00, -1.00, 965.1, 15.6)">s</text><text xml:space="preserve" font-family="OpenSans,Open Sans" font-size="55.0" fill="#525252" transform="matrix(1.00, 0.00, -0.00, -1.00, 991.3, 15.6)"> </text></g></g></g></svg>