<?xml version="1.0" encoding="UTF-8" standalone="no"?><svg xmlns="http://www.w3.org/2000/svg" xmlns:xlink="http://www.w3.org/1999/xlink" clip-rule="evenodd" stroke-miterlimit="10" viewBox="0 0 1920 1080"><desc>SVG generated by Keynote</desc><defs></defs><g transform="matrix(1.00, 0.00, -0.00, -1.00, 0.0, 1080.0)"><g><clipPath id="clip0x6080100bc1a0"><path d="M 0.0 1080.0 L 1920.0 1080.0 L 1920.0 0.0 L 0.0 0.0 Z M 0.0 1080.0 "></path></clipPath><g clip-path="url(#clip0x6080100bc1a0)"><image xlink:href="../../D6B96BF8-1030-4908-B6EF-89AAAD23CC95/assets/9EDC5A8D695696C5A4C057AC54B1350D.png" width="1920.00" height="980.00" transform="matrix(1.10, 0.00, -0.00, -1.10, -98.0, 1080.0)"></image></g></g><g><clipPath id="clip0x60000c0a0cc0"><path d="M 523.6 893.2 L 1396.4 893.2 L 1396.4 984.2 L 523.6 984.2 Z M 523.6 893.2 "></path></clipPath><g clip-path="url(#clip0x60000c0a0cc0)"><text xml:space="preserve" font-family="OpenSans-Semibold,Open Sans" font-weight="bold" font-size="70.0" fill="#525252" transform="matrix(1.00, 0.00, -0.00, -1.00, 571.4, 908.7)">S</text><text xml:space="preserve" font-family="OpenSans-Semibold,Open Sans" font-weight="bold" font-size="70.0" fill="#525252" transform="matrix(1.00, 0.00, -0.00, -1.00, 609.9, 908.7)">E</text><text xml:space="preserve" font-family="OpenSans-Semibold,Open Sans" font-weight="bold" font-size="70.0" fill="#525252" transform="matrix(1.00, 0.00, -0.00, -1.00, 648.9, 908.7)">L</text><text xml:space="preserve" font-family="OpenSans-Semibold,Open Sans" font-weight="bold" font-size="70.0" fill="#525252" transform="matrix(1.00, 0.00, -0.00, -1.00, 686.9, 908.7)">F</text><text xml:space="preserve" font-family="OpenSans-Semibold,Open Sans" font-weight="bold" font-size="70.0" fill="#525252" transform="matrix(1.00, 0.00, -0.00, -1.00, 724.2, 908.7)">-</text><text xml:space="preserve" font-family="OpenSans-Semibold,Open Sans" font-weight="bold" font-size="70.0" fill="#525252" transform="matrix(1.00, 0.00, -0.00, -1.00, 746.7, 908.7)">A</text><text xml:space="preserve" font-family="OpenSans-Semibold,Open Sans" font-weight="bold" font-size="70.0" fill="#525252" transform="matrix(1.00, 0.00, -0.00, -1.00, 792.9, 908.7)">U</text><text xml:space="preserve" font-family="OpenSans-Semibold,Open Sans" font-weight="bold" font-size="70.0" fill="#525252" transform="matrix(1.00, 0.00, -0.00, -1.00, 844.9, 908.7)">T</text><text xml:space="preserve" font-family="OpenSans-Semibold,Open Sans" font-weight="bold" font-size="70.0" fill="#525252" transform="matrix(1.00, 0.00, -0.00, -1.00, 884.5, 908.7)">H</text><text xml:space="preserve" font-family="OpenSans-Semibold,Open Sans" font-weight="bold" font-size="70.0" fill="#525252" transform="matrix(1.00, 0.00, -0.00, -1.00, 937.1, 908.7)">E</text><text xml:space="preserve" font-family="OpenSans-Semibold,Open Sans" font-weight="bold" font-size="70.0" fill="#525252" transform="matrix(1.00, 0.00, -0.00, -1.00, 976.2, 908.7)">N</text><text xml:space="preserve" font-family="OpenSans-Semibold,Open Sans" font-weight="bold" font-size="70.0" fill="#525252" transform="matrix(1.00, 0.00, -0.00, -1.00, 1031.0, 908.7)">T</text><text xml:space="preserve" font-family="OpenSans-Semibold,Open Sans" font-weight="bold" font-size="70.0" fill="#525252" transform="matrix(1.00, 0.00, -0.00, -1.00, 1070.6, 908.7)">I</text><text xml:space="preserve" font-family="OpenSans-Semibold,Open Sans" font-weight="bold" font-size="70.0" fill="#525252" transform="matrix(1.00, 0.00, -0.00, -1.00, 1092.0, 908.7)">C</text><text xml:space="preserve" font-family="OpenSans-Semibold,Open Sans" font-weight="bold" font-size="70.0" fill="#525252" transform="matrix(1.00, 0.00, -0.00, -1.00, 1136.3, 908.7)">A</text><text xml:space="preserve" font-family="OpenSans-Semibold,Open Sans" font-weight="bold" font-size="70.0" fill="#525252" transform="matrix(1.00, 0.00, -0.00, -1.00, 1177.7, 908.7)">T</text><text xml:space="preserve" font-family="OpenSans-Semibold,Open Sans" font-weight="bold" font-size="70.0" fill="#525252" transform="matrix(1.00, 0.00, -0.00, -1.00, 1217.3, 908.7)">I</text><text xml:space="preserve" font-family="OpenSans-Semibold,Open Sans" font-weight="bold" font-size="70.0" fill="#525252" transform="matrix(1.00, 0.00, -0.00, -1.00, 1238.7, 908.7)">O</text><text xml:space="preserve" font-family="OpenSans-Semibold,Open Sans" font-weight="bold" font-size="70.0" fill="#525252" transform="matrix(1.00, 0.00, -0.00, -1.00, 1293.8, 908.7)">N</text></g></g></g></svg>