<?xml version="1.0" encoding="UTF-8" standalone="no"?><svg xmlns="http://www.w3.org/2000/svg" xmlns:xlink="http://www.w3.org/1999/xlink" clip-rule="evenodd" stroke-miterlimit="10" viewBox="0 0 858 44"><desc>SVG generated by Keynote</desc><defs></defs><g transform="matrix(1.00, 0.00, -0.00, -1.00, 0.0, 44.0)"><text xml:space="preserve" font-family="OpenSans-Light,Open Sans" font-size="40.0" fill="#525252" transform="matrix(1.00, 0.00, -0.00, -1.00, -0.1, 11.7)">O</text><text xml:space="preserve" font-family="OpenSans-Light,Open Sans" font-size="40.0" fill="#525252" transform="matrix(1.00, 0.00, -0.00, -1.00, 30.5, 11.7)">u</text><text xml:space="preserve" font-family="OpenSans-Light,Open Sans" font-size="40.0" fill="#525252" transform="matrix(1.00, 0.00, -0.00, -1.00, 54.0, 11.7)">t</text><text xml:space="preserve" font-family="OpenSans-Light,Open Sans" font-size="40.0" fill="#525252" transform="matrix(1.00, 0.00, -0.00, -1.00, 67.4, 11.7)">p</text><text xml:space="preserve" font-family="OpenSans-Light,Open Sans" font-size="40.0" fill="#525252" transform="matrix(1.00, 0.00, -0.00, -1.00, 91.3, 11.7)">u</text><text xml:space="preserve" font-family="OpenSans-Light,Open Sans" font-size="40.0" fill="#525252" transform="matrix(1.00, 0.00, -0.00, -1.00, 114.8, 11.7)">t</text><text xml:space="preserve" font-family="OpenSans-Light,Open Sans" font-size="40.0" fill="#525252" transform="matrix(1.00, 0.00, -0.00, -1.00, 128.2, 11.7)">s</text><text xml:space="preserve" font-family="OpenSans-Light,Open Sans" font-size="40.0" fill="#525252" transform="matrix(1.00, 0.00, -0.00, -1.00, 146.9, 11.7)"> </text><text xml:space="preserve" font-family="OpenSans-Light,Open Sans" font-size="40.0" fill="#525252" transform="matrix(1.00, 0.00, -0.00, -1.00, 157.3, 11.7)">e</text><text xml:space="preserve" font-family="OpenSans-Light,Open Sans" font-size="40.0" fill="#525252" transform="matrix(1.00, 0.00, -0.00, -1.00, 179.2, 11.7)">n</text><text xml:space="preserve" font-family="OpenSans-Light,Open Sans" font-size="40.0" fill="#525252" transform="matrix(1.00, 0.00, -0.00, -1.00, 202.8, 11.7)">c</text><text xml:space="preserve" font-family="OpenSans-Light,Open Sans" font-size="40.0" fill="#525252" transform="matrix(1.00, 0.00, -0.00, -1.00, 221.8, 11.7)">r</text><text xml:space="preserve" font-family="OpenSans-Light,Open Sans" font-size="40.0" fill="#525252" transform="matrix(1.00, 0.00, -0.00, -1.00, 237.4, 11.7)">y</text><text xml:space="preserve" font-family="OpenSans-Light,Open Sans" font-size="40.0" fill="#525252" transform="matrix(1.00, 0.00, -0.00, -1.00, 255.7, 11.7)">p</text><text xml:space="preserve" font-family="OpenSans-Light,Open Sans" font-size="40.0" fill="#525252" transform="matrix(1.00, 0.00, -0.00, -1.00, 279.5, 11.7)">t</text><text xml:space="preserve" font-family="OpenSans-Light,Open Sans" font-size="40.0" fill="#525252" transform="matrix(1.00, 0.00, -0.00, -1.00, 292.9, 11.7)">e</text><text xml:space="preserve" font-family="OpenSans-Light,Open Sans" font-size="40.0" fill="#525252" transform="matrix(1.00, 0.00, -0.00, -1.00, 314.9, 11.7)">d</text><text xml:space="preserve" font-family="OpenSans-Light,Open Sans" font-size="40.0" fill="#525252" transform="matrix(1.00, 0.00, -0.00, -1.00, 338.7, 11.7)"> </text><text xml:space="preserve" font-family="OpenSans-Light,Open Sans" font-size="40.0" fill="#525252" transform="matrix(1.00, 0.00, -0.00, -1.00, 349.1, 11.7)">d</text><text xml:space="preserve" font-family="OpenSans-Light,Open Sans" font-size="40.0" fill="#525252" transform="matrix(1.00, 0.00, -0.00, -1.00, 372.9, 11.7)">a</text><text xml:space="preserve" font-family="OpenSans-Light,Open Sans" font-size="40.0" fill="#525252" transform="matrix(1.00, 0.00, -0.00, -1.00, 394.1, 11.7)">t</text><text xml:space="preserve" font-family="OpenSans-Light,Open Sans" font-size="40.0" fill="#525252" transform="matrix(1.00, 0.00, -0.00, -1.00, 407.5, 11.7)">a</text><text xml:space="preserve" font-family="OpenSans-Light,Open Sans" font-size="40.0" fill="#525252" transform="matrix(1.00, 0.00, -0.00, -1.00, 428.7, 11.7)"> </text><text xml:space="preserve" font-family="OpenSans-Light,Open Sans" font-size="40.0" fill="#525252" transform="matrix(1.00, 0.00, -0.00, -1.00, 439.1, 11.7)">c</text><text xml:space="preserve" font-family="OpenSans-Light,Open Sans" font-size="40.0" fill="#525252" transform="matrix(1.00, 0.00, -0.00, -1.00, 458.1, 11.7)">h</text><text xml:space="preserve" font-family="OpenSans-Light,Open Sans" font-size="40.0" fill="#525252" transform="matrix(1.00, 0.00, -0.00, -1.00, 481.6, 11.7)">u</text><text xml:space="preserve" font-family="OpenSans-Light,Open Sans" font-size="40.0" fill="#525252" transform="matrix(1.00, 0.00, -0.00, -1.00, 505.2, 11.7)">n</text><text xml:space="preserve" font-family="OpenSans-Light,Open Sans" font-size="40.0" fill="#525252" transform="matrix(1.00, 0.00, -0.00, -1.00, 528.8, 11.7)">k</text><text xml:space="preserve" font-family="OpenSans-Light,Open Sans" font-size="40.0" fill="#525252" transform="matrix(1.00, 0.00, -0.00, -1.00, 548.2, 11.7)">s</text><text xml:space="preserve" font-family="OpenSans-Light,Open Sans" font-size="40.0" fill="#525252" transform="matrix(1.00, 0.00, -0.00, -1.00, 566.8, 11.7)"> </text><text xml:space="preserve" font-family="OpenSans-Light,Open Sans" font-size="40.0" fill="#525252" transform="matrix(1.00, 0.00, -0.00, -1.00, 577.2, 11.7)">a</text><text xml:space="preserve" font-family="OpenSans-Light,Open Sans" font-size="40.0" fill="#525252" transform="matrix(1.00, 0.00, -0.00, -1.00, 598.4, 11.7)">n</text><text xml:space="preserve" font-family="OpenSans-Light,Open Sans" font-size="40.0" fill="#525252" transform="matrix(1.00, 0.00, -0.00, -1.00, 621.9, 11.7)">d</text><text xml:space="preserve" font-family="OpenSans-Light,Open Sans" font-size="40.0" fill="#525252" transform="matrix(1.00, 0.00, -0.00, -1.00, 645.8, 11.7)"> </text><text xml:space="preserve" font-family="OpenSans-Light,Open Sans" font-size="40.0" fill="#525252" transform="matrix(1.00, 0.00, -0.00, -1.00, 656.1, 11.7)">a</text><text xml:space="preserve" font-family="OpenSans-Light,Open Sans" font-size="40.0" fill="#525252" transform="matrix(1.00, 0.00, -0.00, -1.00, 677.3, 11.7)"> </text><text xml:space="preserve" font-family="OpenSans-Light,Open Sans" font-size="40.0" fill="#525252" transform="matrix(1.00, 0.00, -0.00, -1.00, 687.7, 11.7)">d</text><text xml:space="preserve" font-family="OpenSans-Light,Open Sans" font-size="40.0" fill="#525252" transform="matrix(1.00, 0.00, -0.00, -1.00, 711.5, 11.7)">a</text><text xml:space="preserve" font-family="OpenSans-Light,Open Sans" font-size="40.0" fill="#525252" transform="matrix(1.00, 0.00, -0.00, -1.00, 732.7, 11.7)">t</text><text xml:space="preserve" font-family="OpenSans-Light,Open Sans" font-size="40.0" fill="#525252" transform="matrix(1.00, 0.00, -0.00, -1.00, 746.1, 11.7)">a</text><text xml:space="preserve" font-family="OpenSans-Light,Open Sans" font-size="40.0" fill="#525252" transform="matrix(1.00, 0.00, -0.00, -1.00, 767.3, 11.7)"> </text><text xml:space="preserve" font-family="OpenSans-Light,Open Sans" font-size="40.0" fill="#525252" transform="matrix(1.00, 0.00, -0.00, -1.00, 777.7, 11.7)">m</text><text xml:space="preserve" font-family="OpenSans-Light,Open Sans" font-size="40.0" fill="#525252" transform="matrix(1.00, 0.00, -0.00, -1.00, 813.0, 11.7)">a</text><text xml:space="preserve" font-family="OpenSans-Light,Open Sans" font-size="40.0" fill="#525252" transform="matrix(1.00, 0.00, -0.00, -1.00, 834.2, 11.7)">p</text></g></svg>