<?xml version="1.0" encoding="UTF-8" standalone="no"?><svg xmlns="http://www.w3.org/2000/svg" xmlns:xlink="http://www.w3.org/1999/xlink" clip-rule="evenodd" stroke-miterlimit="10" viewBox="0 0 1028 44"><desc>SVG generated by Keynote</desc><defs></defs><g transform="matrix(1.00, 0.00, -0.00, -1.00, 0.0, 44.0)"><text xml:space="preserve" font-family="OpenSans-Light,Open Sans" font-size="40.0" fill="#525252" transform="matrix(1.00, 0.00, -0.00, -1.00, -2.0, 10.8)">P</text><text xml:space="preserve" font-family="OpenSans-Light,Open Sans" font-size="40.0" fill="#525252" transform="matrix(1.00, 0.00, -0.00, -1.00, 21.4, 10.8)">r</text><text xml:space="preserve" font-family="OpenSans-Light,Open Sans" font-size="40.0" fill="#525252" transform="matrix(1.00, 0.00, -0.00, -1.00, 36.1, 10.8)">o</text><text xml:space="preserve" font-family="OpenSans-Light,Open Sans" font-size="40.0" fill="#525252" transform="matrix(1.00, 0.00, -0.00, -1.00, 59.6, 10.8)">o</text><text xml:space="preserve" font-family="OpenSans-Light,Open Sans" font-size="40.0" fill="#525252" transform="matrix(1.00, 0.00, -0.00, -1.00, 83.0, 10.8)">f</text><text xml:space="preserve" font-family="OpenSans-Light,Open Sans" font-size="40.0" fill="#525252" transform="matrix(1.00, 0.00, -0.00, -1.00, 95.0, 10.8)"> </text><text xml:space="preserve" font-family="OpenSans-Light,Open Sans" font-size="40.0" fill="#525252" transform="matrix(1.00, 0.00, -0.00, -1.00, 105.4, 10.8)">o</text><text xml:space="preserve" font-family="OpenSans-Light,Open Sans" font-size="40.0" fill="#525252" transform="matrix(1.00, 0.00, -0.00, -1.00, 128.8, 10.8)">f</text><text xml:space="preserve" font-family="OpenSans-Light,Open Sans" font-size="40.0" fill="#525252" transform="matrix(1.00, 0.00, -0.00, -1.00, 140.8, 10.8)"> </text><text xml:space="preserve" font-family="OpenSans-Light,Open Sans" font-size="40.0" fill="#525252" transform="matrix(1.00, 0.00, -0.00, -1.00, 151.2, 10.8)">r</text><text xml:space="preserve" font-family="OpenSans-Light,Open Sans" font-size="40.0" fill="#525252" transform="matrix(1.00, 0.00, -0.00, -1.00, 165.9, 10.8)">e</text><text xml:space="preserve" font-family="OpenSans-Light,Open Sans" font-size="40.0" fill="#525252" transform="matrix(1.00, 0.00, -0.00, -1.00, 187.9, 10.8)">s</text><text xml:space="preserve" font-family="OpenSans-Light,Open Sans" font-size="40.0" fill="#525252" transform="matrix(1.00, 0.00, -0.00, -1.00, 206.5, 10.8)">o</text><text xml:space="preserve" font-family="OpenSans-Light,Open Sans" font-size="40.0" fill="#525252" transform="matrix(1.00, 0.00, -0.00, -1.00, 229.9, 10.8)">u</text><text xml:space="preserve" font-family="OpenSans-Light,Open Sans" font-size="40.0" fill="#525252" transform="matrix(1.00, 0.00, -0.00, -1.00, 253.5, 10.8)">r</text><text xml:space="preserve" font-family="OpenSans-Light,Open Sans" font-size="40.0" fill="#525252" transform="matrix(1.00, 0.00, -0.00, -1.00, 268.3, 10.8)">c</text><text xml:space="preserve" font-family="OpenSans-Light,Open Sans" font-size="40.0" fill="#525252" transform="matrix(1.00, 0.00, -0.00, -1.00, 287.3, 10.8)">e</text><text xml:space="preserve" font-family="OpenSans-Light,Open Sans" font-size="40.0" fill="#525252" transform="matrix(1.00, 0.00, -0.00, -1.00, 309.2, 10.8)"> </text><text xml:space="preserve" font-family="OpenSans-Light,Open Sans" font-size="40.0" fill="#525252" transform="matrix(1.00, 0.00, -0.00, -1.00, 319.6, 10.8)">t</text><text xml:space="preserve" font-family="OpenSans-Light,Open Sans" font-size="40.0" fill="#525252" transform="matrix(1.00, 0.00, -0.00, -1.00, 333.0, 10.8)">o</text><text xml:space="preserve" font-family="OpenSans-Light,Open Sans" font-size="40.0" fill="#525252" transform="matrix(1.00, 0.00, -0.00, -1.00, 356.5, 10.8)"> </text><text xml:space="preserve" font-family="OpenSans-Light,Open Sans" font-size="40.0" fill="#525252" transform="matrix(1.00, 0.00, -0.00, -1.00, 366.8, 10.8)">b</text><text xml:space="preserve" font-family="OpenSans-Light,Open Sans" font-size="40.0" fill="#525252" transform="matrix(1.00, 0.00, -0.00, -1.00, 390.7, 10.8)">a</text><text xml:space="preserve" font-family="OpenSans-Light,Open Sans" font-size="40.0" fill="#525252" transform="matrix(1.00, 0.00, -0.00, -1.00, 411.8, 10.8)">l</text><text xml:space="preserve" font-family="OpenSans-Light,Open Sans" font-size="40.0" fill="#525252" transform="matrix(1.00, 0.00, -0.00, -1.00, 420.9, 10.8)">a</text><text xml:space="preserve" font-family="OpenSans-Light,Open Sans" font-size="40.0" fill="#525252" transform="matrix(1.00, 0.00, -0.00, -1.00, 442.1, 10.8)">n</text><text xml:space="preserve" font-family="OpenSans-Light,Open Sans" font-size="40.0" fill="#525252" transform="matrix(1.00, 0.00, -0.00, -1.00, 465.7, 10.8)">c</text><text xml:space="preserve" font-family="OpenSans-Light,Open Sans" font-size="40.0" fill="#525252" transform="matrix(1.00, 0.00, -0.00, -1.00, 484.7, 10.8)">e</text><text xml:space="preserve" font-family="OpenSans-Light,Open Sans" font-size="40.0" fill="#525252" transform="matrix(1.00, 0.00, -0.00, -1.00, 506.6, 10.8)"> </text><text xml:space="preserve" font-family="OpenSans-Light,Open Sans" font-size="40.0" fill="#525252" transform="matrix(1.00, 0.00, -0.00, -1.00, 517.0, 10.8)">c</text><text xml:space="preserve" font-family="OpenSans-Light,Open Sans" font-size="40.0" fill="#525252" transform="matrix(1.00, 0.00, -0.00, -1.00, 536.0, 10.8)">o</text><text xml:space="preserve" font-family="OpenSans-Light,Open Sans" font-size="40.0" fill="#525252" transform="matrix(1.00, 0.00, -0.00, -1.00, 559.4, 10.8)">n</text><text xml:space="preserve" font-family="OpenSans-Light,Open Sans" font-size="40.0" fill="#525252" transform="matrix(1.00, 0.00, -0.00, -1.00, 583.0, 10.8)">s</text><text xml:space="preserve" font-family="OpenSans-Light,Open Sans" font-size="40.0" fill="#525252" transform="matrix(1.00, 0.00, -0.00, -1.00, 601.6, 10.8)">u</text><text xml:space="preserve" font-family="OpenSans-Light,Open Sans" font-size="40.0" fill="#525252" transform="matrix(1.00, 0.00, -0.00, -1.00, 625.2, 10.8)">m</text><text xml:space="preserve" font-family="OpenSans-Light,Open Sans" font-size="40.0" fill="#525252" transform="matrix(1.00, 0.00, -0.00, -1.00, 660.5, 10.8)">p</text><text xml:space="preserve" font-family="OpenSans-Light,Open Sans" font-size="40.0" fill="#525252" transform="matrix(1.00, 0.00, -0.00, -1.00, 684.4, 10.8)">t</text><text xml:space="preserve" font-family="OpenSans-Light,Open Sans" font-size="40.0" fill="#525252" transform="matrix(1.00, 0.00, -0.00, -1.00, 697.7, 10.8)">i</text><text xml:space="preserve" font-family="OpenSans-Light,Open Sans" font-size="40.0" fill="#525252" transform="matrix(1.00, 0.00, -0.00, -1.00, 706.8, 10.8)">o</text><text xml:space="preserve" font-family="OpenSans-Light,Open Sans" font-size="40.0" fill="#525252" transform="matrix(1.00, 0.00, -0.00, -1.00, 730.2, 10.8)">n</text><text xml:space="preserve" font-family="OpenSans-Light,Open Sans" font-size="40.0" fill="#525252" transform="matrix(1.00, 0.00, -0.00, -1.00, 753.8, 10.8)"> </text><text xml:space="preserve" font-family="OpenSans-Light,Open Sans" font-size="40.0" fill="#525252" transform="matrix(1.00, 0.00, -0.00, -1.00, 764.2, 10.8)">a</text><text xml:space="preserve" font-family="OpenSans-Light,Open Sans" font-size="40.0" fill="#525252" transform="matrix(1.00, 0.00, -0.00, -1.00, 785.4, 10.8)">n</text><text xml:space="preserve" font-family="OpenSans-Light,Open Sans" font-size="40.0" fill="#525252" transform="matrix(1.00, 0.00, -0.00, -1.00, 809.0, 10.8)">d</text><text xml:space="preserve" font-family="OpenSans-Light,Open Sans" font-size="40.0" fill="#525252" transform="matrix(1.00, 0.00, -0.00, -1.00, 832.8, 10.8)"> </text><text xml:space="preserve" font-family="OpenSans-Light,Open Sans" font-size="40.0" fill="#525252" transform="matrix(1.00, 0.00, -0.00, -1.00, 843.2, 10.8)">a</text><text xml:space="preserve" font-family="OpenSans-Light,Open Sans" font-size="40.0" fill="#525252" transform="matrix(1.00, 0.00, -0.00, -1.00, 864.3, 10.8)">v</text><text xml:space="preserve" font-family="OpenSans-Light,Open Sans" font-size="40.0" fill="#525252" transform="matrix(1.00, 0.00, -0.00, -1.00, 882.7, 10.8)">a</text><text xml:space="preserve" font-family="OpenSans-Light,Open Sans" font-size="40.0" fill="#525252" transform="matrix(1.00, 0.00, -0.00, -1.00, 903.9, 10.8)">i</text><text xml:space="preserve" font-family="OpenSans-Light,Open Sans" font-size="40.0" fill="#525252" transform="matrix(1.00, 0.00, -0.00, -1.00, 912.9, 10.8)">l</text><text xml:space="preserve" font-family="OpenSans-Light,Open Sans" font-size="40.0" fill="#525252" transform="matrix(1.00, 0.00, -0.00, -1.00, 922.0, 10.8)">a</text><text xml:space="preserve" font-family="OpenSans-Light,Open Sans" font-size="40.0" fill="#525252" transform="matrix(1.00, 0.00, -0.00, -1.00, 943.2, 10.8)">b</text><text xml:space="preserve" font-family="OpenSans-Light,Open Sans" font-size="40.0" fill="#525252" transform="matrix(1.00, 0.00, -0.00, -1.00, 967.0, 10.8)">i</text><text xml:space="preserve" font-family="OpenSans-Light,Open Sans" font-size="40.0" fill="#525252" transform="matrix(1.00, 0.00, -0.00, -1.00, 976.0, 10.8)">l</text><text xml:space="preserve" font-family="OpenSans-Light,Open Sans" font-size="40.0" fill="#525252" transform="matrix(1.00, 0.00, -0.00, -1.00, 985.1, 10.8)">i</text><text xml:space="preserve" font-family="OpenSans-Light,Open Sans" font-size="40.0" fill="#525252" transform="matrix(1.00, 0.00, -0.00, -1.00, 994.1, 10.8)">t</text><text xml:space="preserve" font-family="OpenSans-Light,Open Sans" font-size="40.0" fill="#525252" transform="matrix(1.00, 0.00, -0.00, -1.00, 1007.5, 10.8)">y</text></g></svg>