<?xml version="1.0" encoding="UTF-8" standalone="no"?><svg xmlns="http://www.w3.org/2000/svg" xmlns:xlink="http://www.w3.org/1999/xlink" clip-rule="evenodd" stroke-miterlimit="10" viewBox="0 0 1479 99"><desc>SVG generated by Keynote</desc><defs></defs><g transform="matrix(1.00, 0.00, -0.00, -1.00, 0.0, 99.0)"><text xml:space="preserve" font-family="OpenSans-Light,Open Sans" font-size="40.0" fill="#525252" transform="matrix(1.00, 0.00, -0.00, -1.00, -0.4, 66.7)">S</text><text xml:space="preserve" font-family="OpenSans-Light,Open Sans" font-size="40.0" fill="#525252" transform="matrix(1.00, 0.00, -0.00, -1.00, 21.4, 66.7)">a</text><text xml:space="preserve" font-family="OpenSans-Light,Open Sans" font-size="40.0" fill="#525252" transform="matrix(1.00, 0.00, -0.00, -1.00, 42.6, 66.7)">f</text><text xml:space="preserve" font-family="OpenSans-Light,Open Sans" font-size="40.0" fill="#525252" transform="matrix(1.00, 0.00, -0.00, -1.00, 54.6, 66.7)">e</text><text xml:space="preserve" font-family="OpenSans-Light,Open Sans" font-size="40.0" fill="#525252" transform="matrix(1.00, 0.00, -0.00, -1.00, 76.5, 66.7)">c</text><text xml:space="preserve" font-family="OpenSans-Light,Open Sans" font-size="40.0" fill="#525252" transform="matrix(1.00, 0.00, -0.00, -1.00, 95.5, 66.7)">o</text><text xml:space="preserve" font-family="OpenSans-Light,Open Sans" font-size="40.0" fill="#525252" transform="matrix(1.00, 0.00, -0.00, -1.00, 119.0, 66.7)">i</text><text xml:space="preserve" font-family="OpenSans-Light,Open Sans" font-size="40.0" fill="#525252" transform="matrix(1.00, 0.00, -0.00, -1.00, 128.0, 66.7)">n</text><text xml:space="preserve" font-family="OpenSans-Light,Open Sans" font-size="40.0" fill="#525252" transform="matrix(1.00, 0.00, -0.00, -1.00, 151.6, 66.7)"> </text><text xml:space="preserve" font-family="OpenSans-Light,Open Sans" font-size="40.0" fill="#525252" transform="matrix(1.00, 0.00, -0.00, -1.00, 162.0, 66.7)">i</text><text xml:space="preserve" font-family="OpenSans-Light,Open Sans" font-size="40.0" fill="#525252" transform="matrix(1.00, 0.00, -0.00, -1.00, 171.0, 66.7)">s</text><text xml:space="preserve" font-family="OpenSans-Light,Open Sans" font-size="40.0" fill="#525252" transform="matrix(1.00, 0.00, -0.00, -1.00, 189.6, 66.7)"> </text><text xml:space="preserve" font-family="OpenSans-Light,Open Sans" font-size="40.0" fill="#525252" transform="matrix(1.00, 0.00, -0.00, -1.00, 200.0, 66.7)">a</text><text xml:space="preserve" font-family="OpenSans-Light,Open Sans" font-size="40.0" fill="#525252" transform="matrix(1.00, 0.00, -0.00, -1.00, 221.2, 66.7)"> </text><text xml:space="preserve" font-family="OpenSans-Light,Open Sans" font-size="40.0" fill="#525252" transform="matrix(1.00, 0.00, -0.00, -1.00, 231.6, 66.7)">b</text><text xml:space="preserve" font-family="OpenSans-Light,Open Sans" font-size="40.0" fill="#525252" transform="matrix(1.00, 0.00, -0.00, -1.00, 255.4, 66.7)">u</text><text xml:space="preserve" font-family="OpenSans-Light,Open Sans" font-size="40.0" fill="#525252" transform="matrix(1.00, 0.00, -0.00, -1.00, 279.0, 66.7)">i</text><text xml:space="preserve" font-family="OpenSans-Light,Open Sans" font-size="40.0" fill="#525252" transform="matrix(1.00, 0.00, -0.00, -1.00, 288.0, 66.7)">l</text><text xml:space="preserve" font-family="OpenSans-Light,Open Sans" font-size="40.0" fill="#525252" transform="matrix(1.00, 0.00, -0.00, -1.00, 297.1, 66.7)">t</text><text xml:space="preserve" font-family="OpenSans-Light,Open Sans" font-size="40.0" fill="#525252" transform="matrix(1.00, 0.00, -0.00, -1.00, 310.5, 66.7)"> </text><text xml:space="preserve" font-family="OpenSans-Light,Open Sans" font-size="40.0" fill="#525252" transform="matrix(1.00, 0.00, -0.00, -1.00, 320.9, 66.7)">i</text><text xml:space="preserve" font-family="OpenSans-Light,Open Sans" font-size="40.0" fill="#525252" transform="matrix(1.00, 0.00, -0.00, -1.00, 329.9, 66.7)">n</text><text xml:space="preserve" font-family="OpenSans-Light,Open Sans" font-size="40.0" fill="#525252" transform="matrix(1.00, 0.00, -0.00, -1.00, 353.5, 66.7)"> </text><text xml:space="preserve" font-family="OpenSans-Light,Open Sans" font-size="40.0" fill="#525252" transform="matrix(1.00, 0.00, -0.00, -1.00, 363.9, 66.7)">a</text><text xml:space="preserve" font-family="OpenSans-Light,Open Sans" font-size="40.0" fill="#525252" transform="matrix(1.00, 0.00, -0.00, -1.00, 385.1, 66.7)">s</text><text xml:space="preserve" font-family="OpenSans-Light,Open Sans" font-size="40.0" fill="#525252" transform="matrix(1.00, 0.00, -0.00, -1.00, 403.7, 66.7)">s</text><text xml:space="preserve" font-family="OpenSans-Light,Open Sans" font-size="40.0" fill="#525252" transform="matrix(1.00, 0.00, -0.00, -1.00, 422.3, 66.7)">e</text><text xml:space="preserve" font-family="OpenSans-Light,Open Sans" font-size="40.0" fill="#525252" transform="matrix(1.00, 0.00, -0.00, -1.00, 444.3, 66.7)">t</text><text xml:space="preserve" font-family="OpenSans-Light,Open Sans" font-size="40.0" fill="#525252" transform="matrix(1.00, 0.00, -0.00, -1.00, 457.7, 66.7)"> </text><text xml:space="preserve" font-family="OpenSans-Light,Open Sans" font-size="40.0" fill="#525252" transform="matrix(1.00, 0.00, -0.00, -1.00, 468.0, 66.7)">w</text><text xml:space="preserve" font-family="OpenSans-Light,Open Sans" font-size="40.0" fill="#525252" transform="matrix(1.00, 0.00, -0.00, -1.00, 497.0, 66.7)">h</text><text xml:space="preserve" font-family="OpenSans-Light,Open Sans" font-size="40.0" fill="#525252" transform="matrix(1.00, 0.00, -0.00, -1.00, 520.6, 66.7)">i</text><text xml:space="preserve" font-family="OpenSans-Light,Open Sans" font-size="40.0" fill="#525252" transform="matrix(1.00, 0.00, -0.00, -1.00, 529.6, 66.7)">c</text><text xml:space="preserve" font-family="OpenSans-Light,Open Sans" font-size="40.0" fill="#525252" transform="matrix(1.00, 0.00, -0.00, -1.00, 548.6, 66.7)">h</text><text xml:space="preserve" font-family="OpenSans-Light,Open Sans" font-size="40.0" fill="#525252" transform="matrix(1.00, 0.00, -0.00, -1.00, 572.2, 66.7)"> </text><text xml:space="preserve" font-family="OpenSans-Light,Open Sans" font-size="40.0" fill="#525252" transform="matrix(1.00, 0.00, -0.00, -1.00, 582.6, 66.7)">i</text><text xml:space="preserve" font-family="OpenSans-Light,Open Sans" font-size="40.0" fill="#525252" transform="matrix(1.00, 0.00, -0.00, -1.00, 591.6, 66.7)">s</text><text xml:space="preserve" font-family="OpenSans-Light,Open Sans" font-size="40.0" fill="#525252" transform="matrix(1.00, 0.00, -0.00, -1.00, 610.3, 66.7)"> </text><text xml:space="preserve" font-family="OpenSans-Light,Open Sans" font-size="40.0" fill="#525252" transform="matrix(1.00, 0.00, -0.00, -1.00, 620.6, 66.7)">a</text><text xml:space="preserve" font-family="OpenSans-Light,Open Sans" font-size="40.0" fill="#525252" transform="matrix(1.00, 0.00, -0.00, -1.00, 641.8, 66.7)">c</text><text xml:space="preserve" font-family="OpenSans-Light,Open Sans" font-size="40.0" fill="#525252" transform="matrix(1.00, 0.00, -0.00, -1.00, 660.8, 66.7)">q</text><text xml:space="preserve" font-family="OpenSans-Light,Open Sans" font-size="40.0" fill="#525252" transform="matrix(1.00, 0.00, -0.00, -1.00, 684.6, 66.7)">u</text><text xml:space="preserve" font-family="OpenSans-Light,Open Sans" font-size="40.0" fill="#525252" transform="matrix(1.00, 0.00, -0.00, -1.00, 708.2, 66.7)">i</text><text xml:space="preserve" font-family="OpenSans-Light,Open Sans" font-size="40.0" fill="#525252" transform="matrix(1.00, 0.00, -0.00, -1.00, 717.3, 66.7)">r</text><text xml:space="preserve" font-family="OpenSans-Light,Open Sans" font-size="40.0" fill="#525252" transform="matrix(1.00, 0.00, -0.00, -1.00, 732.1, 66.7)">e</text><text xml:space="preserve" font-family="OpenSans-Light,Open Sans" font-size="40.0" fill="#525252" transform="matrix(1.00, 0.00, -0.00, -1.00, 754.0, 66.7)">d</text><text xml:space="preserve" font-family="OpenSans-Light,Open Sans" font-size="40.0" fill="#525252" transform="matrix(1.00, 0.00, -0.00, -1.00, 777.8, 66.7)"> </text><text xml:space="preserve" font-family="OpenSans-Light,Open Sans" font-size="40.0" fill="#525252" transform="matrix(1.00, 0.00, -0.00, -1.00, 788.2, 66.7)">b</text><text xml:space="preserve" font-family="OpenSans-Light,Open Sans" font-size="40.0" fill="#525252" transform="matrix(1.00, 0.00, -0.00, -1.00, 811.2, 66.7)">y</text><text xml:space="preserve" font-family="OpenSans-Light,Open Sans" font-size="40.0" fill="#525252" transform="matrix(1.00, 0.00, -0.00, -1.00, 829.6, 66.7)"> </text><text xml:space="preserve" font-family="OpenSans-Light,Open Sans" font-size="40.0" fill="#525252" transform="matrix(1.00, 0.00, -0.00, -1.00, 840.0, 66.7)">p</text><text xml:space="preserve" font-family="OpenSans-Light,Open Sans" font-size="40.0" fill="#525252" transform="matrix(1.00, 0.00, -0.00, -1.00, 863.8, 66.7)">r</text><text xml:space="preserve" font-family="OpenSans-Light,Open Sans" font-size="40.0" fill="#525252" transform="matrix(1.00, 0.00, -0.00, -1.00, 878.5, 66.7)">o</text><text xml:space="preserve" font-family="OpenSans-Light,Open Sans" font-size="40.0" fill="#525252" transform="matrix(1.00, 0.00, -0.00, -1.00, 901.2, 66.7)">v</text><text xml:space="preserve" font-family="OpenSans-Light,Open Sans" font-size="40.0" fill="#525252" transform="matrix(1.00, 0.00, -0.00, -1.00, 919.5, 66.7)">i</text><text xml:space="preserve" font-family="OpenSans-Light,Open Sans" font-size="40.0" fill="#525252" transform="matrix(1.00, 0.00, -0.00, -1.00, 928.6, 66.7)">d</text><text xml:space="preserve" font-family="OpenSans-Light,Open Sans" font-size="40.0" fill="#525252" transform="matrix(1.00, 0.00, -0.00, -1.00, 952.4, 66.7)">i</text><text xml:space="preserve" font-family="OpenSans-Light,Open Sans" font-size="40.0" fill="#525252" transform="matrix(1.00, 0.00, -0.00, -1.00, 961.4, 66.7)">n</text><text xml:space="preserve" font-family="OpenSans-Light,Open Sans" font-size="40.0" fill="#525252" transform="matrix(1.00, 0.00, -0.00, -1.00, 985.0, 66.7)">g</text><text xml:space="preserve" font-family="OpenSans-Light,Open Sans" font-size="40.0" fill="#525252" transform="matrix(1.00, 0.00, -0.00, -1.00, 1005.9, 66.7)"> </text><text xml:space="preserve" font-family="OpenSans-Light,Open Sans" font-size="40.0" fill="#525252" transform="matrix(1.00, 0.00, -0.00, -1.00, 1016.3, 66.7)">r</text><text xml:space="preserve" font-family="OpenSans-Light,Open Sans" font-size="40.0" fill="#525252" transform="matrix(1.00, 0.00, -0.00, -1.00, 1031.1, 66.7)">e</text><text xml:space="preserve" font-family="OpenSans-Light,Open Sans" font-size="40.0" fill="#525252" transform="matrix(1.00, 0.00, -0.00, -1.00, 1053.0, 66.7)">s</text><text xml:space="preserve" font-family="OpenSans-Light,Open Sans" font-size="40.0" fill="#525252" transform="matrix(1.00, 0.00, -0.00, -1.00, 1071.7, 66.7)">o</text><text xml:space="preserve" font-family="OpenSans-Light,Open Sans" font-size="40.0" fill="#525252" transform="matrix(1.00, 0.00, -0.00, -1.00, 1095.1, 66.7)">u</text><text xml:space="preserve" font-family="OpenSans-Light,Open Sans" font-size="40.0" fill="#525252" transform="matrix(1.00, 0.00, -0.00, -1.00, 1118.7, 66.7)">r</text><text xml:space="preserve" font-family="OpenSans-Light,Open Sans" font-size="40.0" fill="#525252" transform="matrix(1.00, 0.00, -0.00, -1.00, 1133.5, 66.7)">c</text><text xml:space="preserve" font-family="OpenSans-Light,Open Sans" font-size="40.0" fill="#525252" transform="matrix(1.00, 0.00, -0.00, -1.00, 1152.5, 66.7)">e</text><text xml:space="preserve" font-family="OpenSans-Light,Open Sans" font-size="40.0" fill="#525252" transform="matrix(1.00, 0.00, -0.00, -1.00, 1174.4, 66.7)">s</text><text xml:space="preserve" font-family="OpenSans-Light,Open Sans" font-size="40.0" fill="#525252" transform="matrix(1.00, 0.00, -0.00, -1.00, 1193.0, 66.7)"> </text><text xml:space="preserve" font-family="OpenSans-Light,Open Sans" font-size="40.0" fill="#525252" transform="matrix(1.00, 0.00, -0.00, -1.00, 1203.4, 66.7)">t</text><text xml:space="preserve" font-family="OpenSans-Light,Open Sans" font-size="40.0" fill="#525252" transform="matrix(1.00, 0.00, -0.00, -1.00, 1216.8, 66.7)">o</text><text xml:space="preserve" font-family="OpenSans-Light,Open Sans" font-size="40.0" fill="#525252" transform="matrix(1.00, 0.00, -0.00, -1.00, 1240.2, 66.7)"> </text><text xml:space="preserve" font-family="OpenSans-Light,Open Sans" font-size="40.0" fill="#525252" transform="matrix(1.00, 0.00, -0.00, -1.00, 1250.6, 66.7)">t</text><text xml:space="preserve" font-family="OpenSans-Light,Open Sans" font-size="40.0" fill="#525252" transform="matrix(1.00, 0.00, -0.00, -1.00, 1264.0, 66.7)">h</text><text xml:space="preserve" font-family="OpenSans-Light,Open Sans" font-size="40.0" fill="#525252" transform="matrix(1.00, 0.00, -0.00, -1.00, 1287.6, 66.7)">e</text><text xml:space="preserve" font-family="OpenSans-Light,Open Sans" font-size="40.0" fill="#525252" transform="matrix(1.00, 0.00, -0.00, -1.00, 1309.6, 66.7)"> </text><text xml:space="preserve" font-family="OpenSans-Light,Open Sans" font-size="40.0" fill="#525252" transform="matrix(1.00, 0.00, -0.00, -1.00, 1319.9, 66.7)">n</text><text xml:space="preserve" font-family="OpenSans-Light,Open Sans" font-size="40.0" fill="#525252" transform="matrix(1.00, 0.00, -0.00, -1.00, 1343.5, 66.7)">e</text><text xml:space="preserve" font-family="OpenSans-Light,Open Sans" font-size="40.0" fill="#525252" transform="matrix(1.00, 0.00, -0.00, -1.00, 1365.5, 66.7)">t</text><text xml:space="preserve" font-family="OpenSans-Light,Open Sans" font-size="40.0" fill="#525252" transform="matrix(1.00, 0.00, -0.00, -1.00, 1378.9, 66.7)">w</text><text xml:space="preserve" font-family="OpenSans-Light,Open Sans" font-size="40.0" fill="#525252" transform="matrix(1.00, 0.00, -0.00, -1.00, 1407.8, 66.7)">o</text><text xml:space="preserve" font-family="OpenSans-Light,Open Sans" font-size="40.0" fill="#525252" transform="matrix(1.00, 0.00, -0.00, -1.00, 1431.2, 66.7)">r</text><text xml:space="preserve" font-family="OpenSans-Light,Open Sans" font-size="40.0" fill="#525252" transform="matrix(1.00, 0.00, -0.00, -1.00, 1446.8, 66.7)">k</text><text xml:space="preserve" font-family="OpenSans-Light,Open Sans" font-size="40.0" fill="#525252" transform="matrix(1.00, 0.00, -0.00, -1.00, 1466.2, 66.7)"> </text><text xml:space="preserve" font-family="OpenSans-Light,Open Sans" font-size="40.0" fill="#525252" transform="matrix(1.00, 0.00, -0.00, -1.00, 1476.5, 66.7)"> </text><text xml:space="preserve" font-family="OpenSans-Light,Open Sans" font-size="40.0" fill="#525252" transform="matrix(1.00, 0.00, -0.00, -1.00, 293.3, 11.7)">a</text><text xml:space="preserve" font-family="OpenSans-Light,Open Sans" font-size="40.0" fill="#525252" transform="matrix(1.00, 0.00, -0.00, -1.00, 314.5, 11.7)">n</text><text xml:space="preserve" font-family="OpenSans-Light,Open Sans" font-size="40.0" fill="#525252" transform="matrix(1.00, 0.00, -0.00, -1.00, 338.1, 11.7)">d</text><text xml:space="preserve" font-family="OpenSans-Light,Open Sans" font-size="40.0" fill="#525252" transform="matrix(1.00, 0.00, -0.00, -1.00, 361.9, 11.7)"> </text><text xml:space="preserve" font-family="OpenSans-Light,Open Sans" font-size="40.0" fill="#525252" transform="matrix(1.00, 0.00, -0.00, -1.00, 372.3, 11.7)">r</text><text xml:space="preserve" font-family="OpenSans-Light,Open Sans" font-size="40.0" fill="#525252" transform="matrix(1.00, 0.00, -0.00, -1.00, 387.0, 11.7)">e</text><text xml:space="preserve" font-family="OpenSans-Light,Open Sans" font-size="40.0" fill="#525252" transform="matrix(1.00, 0.00, -0.00, -1.00, 409.0, 11.7)">q</text><text xml:space="preserve" font-family="OpenSans-Light,Open Sans" font-size="40.0" fill="#525252" transform="matrix(1.00, 0.00, -0.00, -1.00, 432.8, 11.7)">u</text><text xml:space="preserve" font-family="OpenSans-Light,Open Sans" font-size="40.0" fill="#525252" transform="matrix(1.00, 0.00, -0.00, -1.00, 456.4, 11.7)">i</text><text xml:space="preserve" font-family="OpenSans-Light,Open Sans" font-size="40.0" fill="#525252" transform="matrix(1.00, 0.00, -0.00, -1.00, 465.4, 11.7)">r</text><text xml:space="preserve" font-family="OpenSans-Light,Open Sans" font-size="40.0" fill="#525252" transform="matrix(1.00, 0.00, -0.00, -1.00, 480.2, 11.7)">e</text><text xml:space="preserve" font-family="OpenSans-Light,Open Sans" font-size="40.0" fill="#525252" transform="matrix(1.00, 0.00, -0.00, -1.00, 502.1, 11.7)">d</text><text xml:space="preserve" font-family="OpenSans-Light,Open Sans" font-size="40.0" fill="#525252" transform="matrix(1.00, 0.00, -0.00, -1.00, 525.9, 11.7)"> </text><text xml:space="preserve" font-family="OpenSans-Light,Open Sans" font-size="40.0" fill="#525252" transform="matrix(1.00, 0.00, -0.00, -1.00, 536.3, 11.7)">f</text><text xml:space="preserve" font-family="OpenSans-Light,Open Sans" font-size="40.0" fill="#525252" transform="matrix(1.00, 0.00, -0.00, -1.00, 548.3, 11.7)">o</text><text xml:space="preserve" font-family="OpenSans-Light,Open Sans" font-size="40.0" fill="#525252" transform="matrix(1.00, 0.00, -0.00, -1.00, 571.7, 11.7)">r</text><text xml:space="preserve" font-family="OpenSans-Light,Open Sans" font-size="40.0" fill="#525252" transform="matrix(1.00, 0.00, -0.00, -1.00, 587.3, 11.7)"> </text><text xml:space="preserve" font-family="OpenSans-Light,Open Sans" font-size="40.0" fill="#525252" transform="matrix(1.00, 0.00, -0.00, -1.00, 597.7, 11.7)">p</text><text xml:space="preserve" font-family="OpenSans-Light,Open Sans" font-size="40.0" fill="#525252" transform="matrix(1.00, 0.00, -0.00, -1.00, 621.5, 11.7)">u</text><text xml:space="preserve" font-family="OpenSans-Light,Open Sans" font-size="40.0" fill="#525252" transform="matrix(1.00, 0.00, -0.00, -1.00, 645.1, 11.7)">t</text><text xml:space="preserve" font-family="OpenSans-Light,Open Sans" font-size="40.0" fill="#525252" transform="matrix(1.00, 0.00, -0.00, -1.00, 658.5, 11.7)">t</text><text xml:space="preserve" font-family="OpenSans-Light,Open Sans" font-size="40.0" fill="#525252" transform="matrix(1.00, 0.00, -0.00, -1.00, 671.9, 11.7)">i</text><text xml:space="preserve" font-family="OpenSans-Light,Open Sans" font-size="40.0" fill="#525252" transform="matrix(1.00, 0.00, -0.00, -1.00, 681.0, 11.7)">n</text><text xml:space="preserve" font-family="OpenSans-Light,Open Sans" font-size="40.0" fill="#525252" transform="matrix(1.00, 0.00, -0.00, -1.00, 704.5, 11.7)">g</text><text xml:space="preserve" font-family="OpenSans-Light,Open Sans" font-size="40.0" fill="#525252" transform="matrix(1.00, 0.00, -0.00, -1.00, 725.5, 11.7)"> </text><text xml:space="preserve" font-family="OpenSans-Light,Open Sans" font-size="40.0" fill="#525252" transform="matrix(1.00, 0.00, -0.00, -1.00, 735.8, 11.7)">n</text><text xml:space="preserve" font-family="OpenSans-Light,Open Sans" font-size="40.0" fill="#525252" transform="matrix(1.00, 0.00, -0.00, -1.00, 759.4, 11.7)">e</text><text xml:space="preserve" font-family="OpenSans-Light,Open Sans" font-size="40.0" fill="#525252" transform="matrix(1.00, 0.00, -0.00, -1.00, 780.6, 11.7)">w</text><text xml:space="preserve" font-family="OpenSans-Light,Open Sans" font-size="40.0" fill="#525252" transform="matrix(1.00, 0.00, -0.00, -1.00, 809.5, 11.7)"> </text><text xml:space="preserve" font-family="OpenSans-Light,Open Sans" font-size="40.0" fill="#525252" transform="matrix(1.00, 0.00, -0.00, -1.00, 819.9, 11.7)">d</text><text xml:space="preserve" font-family="OpenSans-Light,Open Sans" font-size="40.0" fill="#525252" transform="matrix(1.00, 0.00, -0.00, -1.00, 843.7, 11.7)">a</text><text xml:space="preserve" font-family="OpenSans-Light,Open Sans" font-size="40.0" fill="#525252" transform="matrix(1.00, 0.00, -0.00, -1.00, 864.9, 11.7)">t</text><text xml:space="preserve" font-family="OpenSans-Light,Open Sans" font-size="40.0" fill="#525252" transform="matrix(1.00, 0.00, -0.00, -1.00, 878.3, 11.7)">a</text><text xml:space="preserve" font-family="OpenSans-Light,Open Sans" font-size="40.0" fill="#525252" transform="matrix(1.00, 0.00, -0.00, -1.00, 899.5, 11.7)"> </text><text xml:space="preserve" font-family="OpenSans-Light,Open Sans" font-size="40.0" fill="#525252" transform="matrix(1.00, 0.00, -0.00, -1.00, 909.8, 11.7)">t</text><text xml:space="preserve" font-family="OpenSans-Light,Open Sans" font-size="40.0" fill="#525252" transform="matrix(1.00, 0.00, -0.00, -1.00, 923.2, 11.7)">o</text><text xml:space="preserve" font-family="OpenSans-Light,Open Sans" font-size="40.0" fill="#525252" transform="matrix(1.00, 0.00, -0.00, -1.00, 946.7, 11.7)"> </text><text xml:space="preserve" font-family="OpenSans-Light,Open Sans" font-size="40.0" fill="#525252" transform="matrix(1.00, 0.00, -0.00, -1.00, 957.1, 11.7)">t</text><text xml:space="preserve" font-family="OpenSans-Light,Open Sans" font-size="40.0" fill="#525252" transform="matrix(1.00, 0.00, -0.00, -1.00, 970.5, 11.7)">h</text><text xml:space="preserve" font-family="OpenSans-Light,Open Sans" font-size="40.0" fill="#525252" transform="matrix(1.00, 0.00, -0.00, -1.00, 994.0, 11.7)">e</text><text xml:space="preserve" font-family="OpenSans-Light,Open Sans" font-size="40.0" fill="#525252" transform="matrix(1.00, 0.00, -0.00, -1.00, 1016.0, 11.7)"> </text><text xml:space="preserve" font-family="OpenSans-Light,Open Sans" font-size="40.0" fill="#525252" transform="matrix(1.00, 0.00, -0.00, -1.00, 1026.4, 11.7)">n</text><text xml:space="preserve" font-family="OpenSans-Light,Open Sans" font-size="40.0" fill="#525252" transform="matrix(1.00, 0.00, -0.00, -1.00, 1050.0, 11.7)">e</text><text xml:space="preserve" font-family="OpenSans-Light,Open Sans" font-size="40.0" fill="#525252" transform="matrix(1.00, 0.00, -0.00, -1.00, 1071.9, 11.7)">t</text><text xml:space="preserve" font-family="OpenSans-Light,Open Sans" font-size="40.0" fill="#525252" transform="matrix(1.00, 0.00, -0.00, -1.00, 1085.3, 11.7)">w</text><text xml:space="preserve" font-family="OpenSans-Light,Open Sans" font-size="40.0" fill="#525252" transform="matrix(1.00, 0.00, -0.00, -1.00, 1114.2, 11.7)">o</text><text xml:space="preserve" font-family="OpenSans-Light,Open Sans" font-size="40.0" fill="#525252" transform="matrix(1.00, 0.00, -0.00, -1.00, 1137.7, 11.7)">r</text><text xml:space="preserve" font-family="OpenSans-Light,Open Sans" font-size="40.0" fill="#525252" transform="matrix(1.00, 0.00, -0.00, -1.00, 1153.2, 11.7)">k</text></g></svg>