<?xml version="1.0" encoding="UTF-8" standalone="no"?><svg xmlns="http://www.w3.org/2000/svg" xmlns:xlink="http://www.w3.org/1999/xlink" clip-rule="evenodd" stroke-miterlimit="10" viewBox="0 0 1920 1080"><desc>SVG generated by Keynote</desc><defs></defs><g transform="matrix(1.00, 0.00, -0.00, -1.00, 0.0, 1080.0)"><g><clipPath id="clip0x6000092b2000"><path d="M 0.0 1080.0 L 1920.0 1080.0 L 1920.0 0.0 L 0.0 0.0 Z M 0.0 1080.0 "></path></clipPath><g clip-path="url(#clip0x6000092b2000)"><image xlink:href="../../D6B96BF8-1030-4908-B6EF-89AAAD23CC95/assets/9EDC5A8D695696C5A4C057AC54B1350D.png" width="1920.00" height="980.00" transform="matrix(1.10, 0.00, -0.00, -1.10, -98.0, 1080.0)"></image></g></g><text xml:space="preserve" font-family="OpenSans-Light,Open Sans" font-size="46.0" fill="#525252" transform="matrix(1.00, 0.00, -0.00, -1.00, 890.9, 808.5)">C</text><text xml:space="preserve" font-family="OpenSans-Light,Open Sans" font-size="46.0" fill="#525252" transform="matrix(1.00, 0.00, -0.00, -1.00, 919.5, 808.5)">R</text><text xml:space="preserve" font-family="OpenSans-Light,Open Sans" font-size="46.0" fill="#525252" transform="matrix(1.00, 0.00, -0.00, -1.00, 946.8, 808.5)">U</text><text xml:space="preserve" font-family="OpenSans-Light,Open Sans" font-size="46.0" fill="#525252" transform="matrix(1.00, 0.00, -0.00, -1.00, 979.9, 808.5)">S</text><text xml:space="preserve" font-family="OpenSans-Light,Open Sans" font-size="46.0" fill="#525252" transform="matrix(1.00, 0.00, -0.00, -1.00, 1005.0, 808.5)">T</text><text xml:space="preserve" font-family="OpenSans-Light,Open Sans" font-size="46.0" fill="#525252" transform="matrix(1.00, 0.00, -0.00, -1.00, 1029.1, 808.5)"> </text><text xml:space="preserve" font-family="OpenSans-Light,Open Sans" font-size="46.0" fill="#525252" transform="matrix(1.00, 0.00, -0.00, -1.00, 450.6, 746.5)">h</text><text xml:space="preserve" font-family="OpenSans-Light,Open Sans" font-size="46.0" fill="#525252" transform="matrix(1.00, 0.00, -0.00, -1.00, 477.7, 746.5)">t</text><text xml:space="preserve" font-family="OpenSans-Light,Open Sans" font-size="46.0" fill="#525252" transform="matrix(1.00, 0.00, -0.00, -1.00, 493.1, 746.5)">t</text><text xml:space="preserve" font-family="OpenSans-Light,Open Sans" font-size="46.0" fill="#525252" transform="matrix(1.00, 0.00, -0.00, -1.00, 508.5, 746.5)">p</text><text xml:space="preserve" font-family="OpenSans-Light,Open Sans" font-size="46.0" fill="#525252" transform="matrix(1.00, 0.00, -0.00, -1.00, 535.9, 746.5)">s</text><text xml:space="preserve" font-family="OpenSans-Light,Open Sans" font-size="46.0" fill="#525252" transform="matrix(1.00, 0.00, -0.00, -1.00, 557.3, 746.5)">:</text><text xml:space="preserve" font-family="OpenSans-Light,Open Sans" font-size="46.0" fill="#525252" transform="matrix(1.00, 0.00, -0.00, -1.00, 568.3, 746.5)">/</text><text xml:space="preserve" font-family="OpenSans-Light,Open Sans" font-size="46.0" fill="#525252" transform="matrix(1.00, 0.00, -0.00, -1.00, 583.9, 746.5)">/</text><text xml:space="preserve" font-family="OpenSans-Light,Open Sans" font-size="46.0" fill="#525252" transform="matrix(1.00, 0.00, -0.00, -1.00, 599.6, 746.5)">w</text><text xml:space="preserve" font-family="OpenSans-Light,Open Sans" font-size="46.0" fill="#525252" transform="matrix(1.00, 0.00, -0.00, -1.00, 632.9, 746.5)">w</text><text xml:space="preserve" font-family="OpenSans-Light,Open Sans" font-size="46.0" fill="#525252" transform="matrix(1.00, 0.00, -0.00, -1.00, 666.1, 746.5)">w</text><text xml:space="preserve" font-family="OpenSans-Light,Open Sans" font-size="46.0" fill="#525252" transform="matrix(1.00, 0.00, -0.00, -1.00, 697.6, 746.5)">.</text><text xml:space="preserve" font-family="OpenSans-Light,Open Sans" font-size="46.0" fill="#525252" transform="matrix(1.00, 0.00, -0.00, -1.00, 708.5, 746.5)">y</text><text xml:space="preserve" font-family="OpenSans-Light,Open Sans" font-size="46.0" fill="#525252" transform="matrix(1.00, 0.00, -0.00, -1.00, 729.6, 746.5)">o</text><text xml:space="preserve" font-family="OpenSans-Light,Open Sans" font-size="46.0" fill="#525252" transform="matrix(1.00, 0.00, -0.00, -1.00, 756.6, 746.5)">u</text><text xml:space="preserve" font-family="OpenSans-Light,Open Sans" font-size="46.0" fill="#525252" transform="matrix(1.00, 0.00, -0.00, -1.00, 783.7, 746.5)">t</text><text xml:space="preserve" font-family="OpenSans-Light,Open Sans" font-size="46.0" fill="#525252" transform="matrix(1.00, 0.00, -0.00, -1.00, 799.1, 746.5)">u</text><text xml:space="preserve" font-family="OpenSans-Light,Open Sans" font-size="46.0" fill="#525252" transform="matrix(1.00, 0.00, -0.00, -1.00, 826.2, 746.5)">b</text><text xml:space="preserve" font-family="OpenSans-Light,Open Sans" font-size="46.0" fill="#525252" transform="matrix(1.00, 0.00, -0.00, -1.00, 853.6, 746.5)">e</text><text xml:space="preserve" font-family="OpenSans-Light,Open Sans" font-size="46.0" fill="#525252" transform="matrix(1.00, 0.00, -0.00, -1.00, 878.8, 746.5)">.</text><text xml:space="preserve" font-family="OpenSans-Light,Open Sans" font-size="46.0" fill="#525252" transform="matrix(1.00, 0.00, -0.00, -1.00, 889.8, 746.5)">c</text><text xml:space="preserve" font-family="OpenSans-Light,Open Sans" font-size="46.0" fill="#525252" transform="matrix(1.00, 0.00, -0.00, -1.00, 911.6, 746.5)">o</text><text xml:space="preserve" font-family="OpenSans-Light,Open Sans" font-size="46.0" fill="#525252" transform="matrix(1.00, 0.00, -0.00, -1.00, 938.6, 746.5)">m</text><text xml:space="preserve" font-family="OpenSans-Light,Open Sans" font-size="46.0" fill="#525252" transform="matrix(1.00, 0.00, -0.00, -1.00, 979.2, 746.5)">/</text><text xml:space="preserve" font-family="OpenSans-Light,Open Sans" font-size="46.0" fill="#525252" transform="matrix(1.00, 0.00, -0.00, -1.00, 994.8, 746.5)">w</text><text xml:space="preserve" font-family="OpenSans-Light,Open Sans" font-size="46.0" fill="#525252" transform="matrix(1.00, 0.00, -0.00, -1.00, 1028.1, 746.5)">a</text><text xml:space="preserve" font-family="OpenSans-Light,Open Sans" font-size="46.0" fill="#525252" transform="matrix(1.00, 0.00, -0.00, -1.00, 1052.5, 746.5)">t</text><text xml:space="preserve" font-family="OpenSans-Light,Open Sans" font-size="46.0" fill="#525252" transform="matrix(1.00, 0.00, -0.00, -1.00, 1067.9, 746.5)">c</text><text xml:space="preserve" font-family="OpenSans-Light,Open Sans" font-size="46.0" fill="#525252" transform="matrix(1.00, 0.00, -0.00, -1.00, 1089.7, 746.5)">h</text><text xml:space="preserve" font-family="OpenSans-Light,Open Sans" font-size="46.0" fill="#525252" transform="matrix(1.00, 0.00, -0.00, -1.00, 1116.9, 746.5)">?</text><text xml:space="preserve" font-family="OpenSans-Light,Open Sans" font-size="46.0" fill="#525252" transform="matrix(1.00, 0.00, -0.00, -1.00, 1136.2, 746.5)">v</text><text xml:space="preserve" font-family="OpenSans-Light,Open Sans" font-size="46.0" fill="#525252" transform="matrix(1.00, 0.00, -0.00, -1.00, 1157.3, 746.5)">=</text><text xml:space="preserve" font-family="OpenSans-Light,Open Sans" font-size="46.0" fill="#525252" transform="matrix(1.00, 0.00, -0.00, -1.00, 1183.6, 746.5)">Z</text><text xml:space="preserve" font-family="OpenSans-Light,Open Sans" font-size="46.0" fill="#525252" transform="matrix(1.00, 0.00, -0.00, -1.00, 1210.1, 746.5)">d</text><text xml:space="preserve" font-family="OpenSans-Light,Open Sans" font-size="46.0" fill="#525252" transform="matrix(1.00, 0.00, -0.00, -1.00, 1237.5, 746.5)">t</text><text xml:space="preserve" font-family="OpenSans-Light,Open Sans" font-size="46.0" fill="#525252" transform="matrix(1.00, 0.00, -0.00, -1.00, 1252.9, 746.5)">_</text><text xml:space="preserve" font-family="OpenSans-Light,Open Sans" font-size="46.0" fill="#525252" transform="matrix(1.00, 0.00, -0.00, -1.00, 1271.8, 746.5)">8</text><text xml:space="preserve" font-family="OpenSans-Light,Open Sans" font-size="46.0" fill="#525252" transform="matrix(1.00, 0.00, -0.00, -1.00, 1298.1, 746.5)">c</text><text xml:space="preserve" font-family="OpenSans-Light,Open Sans" font-size="46.0" fill="#525252" transform="matrix(1.00, 0.00, -0.00, -1.00, 1319.9, 746.5)">1</text><text xml:space="preserve" font-family="OpenSans-Light,Open Sans" font-size="46.0" fill="#525252" transform="matrix(1.00, 0.00, -0.00, -1.00, 1346.2, 746.5)">b</text><text xml:space="preserve" font-family="OpenSans-Light,Open Sans" font-size="46.0" fill="#525252" transform="matrix(1.00, 0.00, -0.00, -1.00, 1373.6, 746.5)">W</text><text xml:space="preserve" font-family="OpenSans-Light,Open Sans" font-size="46.0" fill="#525252" transform="matrix(1.00, 0.00, -0.00, -1.00, 1414.6, 746.5)">D</text><text xml:space="preserve" font-family="OpenSans-Light,Open Sans" font-size="46.0" fill="#525252" transform="matrix(1.00, 0.00, -0.00, -1.00, 1447.1, 746.5)">k</text><g><clipPath id="clip0x6000092b2ea0"><path d="M 449.6 740.9 L 1469.4 740.9 L 1469.4 745.2 L 449.6 745.2 Z M 449.6 740.9 "></path></clipPath><g clip-path="url(#clip0x6000092b2ea0)"><path d="M 4.5 118.0 L 1023.3 118.0 " fill="none" stroke="#525252" stroke-width="2.29" transform="matrix(1.00, 0.00, 0.00, -1.00, 446.1, 861.0)"></path></g></g><text xml:space="preserve" font-family="OpenSans-Light,Open Sans" font-size="46.0" fill="#525252" transform="matrix(1.00, 0.00, -0.00, -1.00, 880.8, 610.5)">R</text><text xml:space="preserve" font-family="OpenSans-Light,Open Sans" font-size="46.0" fill="#525252" transform="matrix(1.00, 0.00, -0.00, -1.00, 908.1, 610.5)">o</text><text xml:space="preserve" font-family="OpenSans-Light,Open Sans" font-size="46.0" fill="#525252" transform="matrix(1.00, 0.00, -0.00, -1.00, 935.1, 610.5)">u</text><text xml:space="preserve" font-family="OpenSans-Light,Open Sans" font-size="46.0" fill="#525252" transform="matrix(1.00, 0.00, -0.00, -1.00, 962.2, 610.5)">t</text><text xml:space="preserve" font-family="OpenSans-Light,Open Sans" font-size="46.0" fill="#525252" transform="matrix(1.00, 0.00, -0.00, -1.00, 977.6, 610.5)">i</text><text xml:space="preserve" font-family="OpenSans-Light,Open Sans" font-size="46.0" fill="#525252" transform="matrix(1.00, 0.00, -0.00, -1.00, 988.0, 610.5)">n</text><text xml:space="preserve" font-family="OpenSans-Light,Open Sans" font-size="46.0" fill="#525252" transform="matrix(1.00, 0.00, -0.00, -1.00, 1015.1, 610.5)">g</text><text xml:space="preserve" font-family="OpenSans-Light,Open Sans" font-size="46.0" fill="#525252" transform="matrix(1.00, 0.00, -0.00, -1.00, 1039.2, 610.5)"> </text><text xml:space="preserve" font-family="OpenSans-Light,Open Sans" font-size="46.0" fill="#525252" transform="matrix(1.00, 0.00, -0.00, -1.00, 430.8, 548.5)">h</text><text xml:space="preserve" font-family="OpenSans-Light,Open Sans" font-size="46.0" fill="#525252" transform="matrix(1.00, 0.00, -0.00, -1.00, 457.9, 548.5)">t</text><text xml:space="preserve" font-family="OpenSans-Light,Open Sans" font-size="46.0" fill="#525252" transform="matrix(1.00, 0.00, -0.00, -1.00, 473.3, 548.5)">t</text><text xml:space="preserve" font-family="OpenSans-Light,Open Sans" font-size="46.0" fill="#525252" transform="matrix(1.00, 0.00, -0.00, -1.00, 488.7, 548.5)">p</text><text xml:space="preserve" font-family="OpenSans-Light,Open Sans" font-size="46.0" fill="#525252" transform="matrix(1.00, 0.00, -0.00, -1.00, 516.1, 548.5)">s</text><text xml:space="preserve" font-family="OpenSans-Light,Open Sans" font-size="46.0" fill="#525252" transform="matrix(1.00, 0.00, -0.00, -1.00, 537.5, 548.5)">:</text><text xml:space="preserve" font-family="OpenSans-Light,Open Sans" font-size="46.0" fill="#525252" transform="matrix(1.00, 0.00, -0.00, -1.00, 548.5, 548.5)">/</text><text xml:space="preserve" font-family="OpenSans-Light,Open Sans" font-size="46.0" fill="#525252" transform="matrix(1.00, 0.00, -0.00, -1.00, 564.1, 548.5)">/</text><text xml:space="preserve" font-family="OpenSans-Light,Open Sans" font-size="46.0" fill="#525252" transform="matrix(1.00, 0.00, -0.00, -1.00, 579.8, 548.5)">w</text><text xml:space="preserve" font-family="OpenSans-Light,Open Sans" font-size="46.0" fill="#525252" transform="matrix(1.00, 0.00, -0.00, -1.00, 613.1, 548.5)">w</text><text xml:space="preserve" font-family="OpenSans-Light,Open Sans" font-size="46.0" fill="#525252" transform="matrix(1.00, 0.00, -0.00, -1.00, 646.3, 548.5)">w</text><text xml:space="preserve" font-family="OpenSans-Light,Open Sans" font-size="46.0" fill="#525252" transform="matrix(1.00, 0.00, -0.00, -1.00, 677.8, 548.5)">.</text><text xml:space="preserve" font-family="OpenSans-Light,Open Sans" font-size="46.0" fill="#525252" transform="matrix(1.00, 0.00, -0.00, -1.00, 688.7, 548.5)">y</text><text xml:space="preserve" font-family="OpenSans-Light,Open Sans" font-size="46.0" fill="#525252" transform="matrix(1.00, 0.00, -0.00, -1.00, 709.8, 548.5)">o</text><text xml:space="preserve" font-family="OpenSans-Light,Open Sans" font-size="46.0" fill="#525252" transform="matrix(1.00, 0.00, -0.00, -1.00, 736.7, 548.5)">u</text><text xml:space="preserve" font-family="OpenSans-Light,Open Sans" font-size="46.0" fill="#525252" transform="matrix(1.00, 0.00, -0.00, -1.00, 763.9, 548.5)">t</text><text xml:space="preserve" font-family="OpenSans-Light,Open Sans" font-size="46.0" fill="#525252" transform="matrix(1.00, 0.00, -0.00, -1.00, 779.3, 548.5)">u</text><text xml:space="preserve" font-family="OpenSans-Light,Open Sans" font-size="46.0" fill="#525252" transform="matrix(1.00, 0.00, -0.00, -1.00, 806.4, 548.5)">b</text><text xml:space="preserve" font-family="OpenSans-Light,Open Sans" font-size="46.0" fill="#525252" transform="matrix(1.00, 0.00, -0.00, -1.00, 833.8, 548.5)">e</text><text xml:space="preserve" font-family="OpenSans-Light,Open Sans" font-size="46.0" fill="#525252" transform="matrix(1.00, 0.00, -0.00, -1.00, 859.0, 548.5)">.</text><text xml:space="preserve" font-family="OpenSans-Light,Open Sans" font-size="46.0" fill="#525252" transform="matrix(1.00, 0.00, -0.00, -1.00, 870.0, 548.5)">c</text><text xml:space="preserve" font-family="OpenSans-Light,Open Sans" font-size="46.0" fill="#525252" transform="matrix(1.00, 0.00, -0.00, -1.00, 891.8, 548.5)">o</text><text xml:space="preserve" font-family="OpenSans-Light,Open Sans" font-size="46.0" fill="#525252" transform="matrix(1.00, 0.00, -0.00, -1.00, 918.8, 548.5)">m</text><text xml:space="preserve" font-family="OpenSans-Light,Open Sans" font-size="46.0" fill="#525252" transform="matrix(1.00, 0.00, -0.00, -1.00, 959.4, 548.5)">/</text><text xml:space="preserve" font-family="OpenSans-Light,Open Sans" font-size="46.0" fill="#525252" transform="matrix(1.00, 0.00, -0.00, -1.00, 975.0, 548.5)">w</text><text xml:space="preserve" font-family="OpenSans-Light,Open Sans" font-size="46.0" fill="#525252" transform="matrix(1.00, 0.00, -0.00, -1.00, 1008.3, 548.5)">a</text><text xml:space="preserve" font-family="OpenSans-Light,Open Sans" font-size="46.0" fill="#525252" transform="matrix(1.00, 0.00, -0.00, -1.00, 1032.7, 548.5)">t</text><text xml:space="preserve" font-family="OpenSans-Light,Open Sans" font-size="46.0" fill="#525252" transform="matrix(1.00, 0.00, -0.00, -1.00, 1048.1, 548.5)">c</text><text xml:space="preserve" font-family="OpenSans-Light,Open Sans" font-size="46.0" fill="#525252" transform="matrix(1.00, 0.00, -0.00, -1.00, 1069.9, 548.5)">h</text><text xml:space="preserve" font-family="OpenSans-Light,Open Sans" font-size="46.0" fill="#525252" transform="matrix(1.00, 0.00, -0.00, -1.00, 1097.1, 548.5)">?</text><text xml:space="preserve" font-family="OpenSans-Light,Open Sans" font-size="46.0" fill="#525252" transform="matrix(1.00, 0.00, -0.00, -1.00, 1116.4, 548.5)">v</text><text xml:space="preserve" font-family="OpenSans-Light,Open Sans" font-size="46.0" fill="#525252" transform="matrix(1.00, 0.00, -0.00, -1.00, 1137.5, 548.5)">=</text><text xml:space="preserve" font-family="OpenSans-Light,Open Sans" font-size="46.0" fill="#525252" transform="matrix(1.00, 0.00, -0.00, -1.00, 1163.8, 548.5)">a</text><text xml:space="preserve" font-family="OpenSans-Light,Open Sans" font-size="46.0" fill="#525252" transform="matrix(1.00, 0.00, -0.00, -1.00, 1188.1, 548.5)">o</text><text xml:space="preserve" font-family="OpenSans-Light,Open Sans" font-size="46.0" fill="#525252" transform="matrix(1.00, 0.00, -0.00, -1.00, 1215.1, 548.5)">7</text><text xml:space="preserve" font-family="OpenSans-Light,Open Sans" font-size="46.0" fill="#525252" transform="matrix(1.00, 0.00, -0.00, -1.00, 1241.3, 548.5)">O</text><text xml:space="preserve" font-family="OpenSans-Light,Open Sans" font-size="46.0" fill="#525252" transform="matrix(1.00, 0.00, -0.00, -1.00, 1276.5, 548.5)">D</text><text xml:space="preserve" font-family="OpenSans-Light,Open Sans" font-size="46.0" fill="#525252" transform="matrix(1.00, 0.00, -0.00, -1.00, 1309.0, 548.5)">M</text><text xml:space="preserve" font-family="OpenSans-Light,Open Sans" font-size="46.0" fill="#525252" transform="matrix(1.00, 0.00, -0.00, -1.00, 1348.7, 548.5)">7</text><text xml:space="preserve" font-family="OpenSans-Light,Open Sans" font-size="46.0" fill="#525252" transform="matrix(1.00, 0.00, -0.00, -1.00, 1374.9, 548.5)">N</text><text xml:space="preserve" font-family="OpenSans-Light,Open Sans" font-size="46.0" fill="#525252" transform="matrix(1.00, 0.00, -0.00, -1.00, 1408.1, 548.5)">d</text><text xml:space="preserve" font-family="OpenSans-Light,Open Sans" font-size="46.0" fill="#525252" transform="matrix(1.00, 0.00, -0.00, -1.00, 1435.5, 548.5)">d</text><text xml:space="preserve" font-family="OpenSans-Light,Open Sans" font-size="46.0" fill="#525252" transform="matrix(1.00, 0.00, -0.00, -1.00, 1462.9, 548.5)">8</text><g><clipPath id="clip0x6000092b3980"><path d="M 429.8 542.9 L 1489.2 542.9 L 1489.2 547.2 L 429.8 547.2 Z M 429.8 542.9 "></path></clipPath><g clip-path="url(#clip0x6000092b3980)"><path d="M 4.5 118.0 L 1062.9 118.0 " fill="none" stroke="#525252" stroke-width="2.29" transform="matrix(1.00, 0.00, 0.00, -1.00, 426.3, 663.0)"></path></g></g><text xml:space="preserve" font-family="OpenSans-Light,Open Sans" font-size="46.0" fill="#525252" transform="matrix(1.00, 0.00, -0.00, -1.00, 861.0, 406.5)">S</text><text xml:space="preserve" font-family="OpenSans-Light,Open Sans" font-size="46.0" fill="#525252" transform="matrix(1.00, 0.00, -0.00, -1.00, 886.0, 406.5)">e</text><text xml:space="preserve" font-family="OpenSans-Light,Open Sans" font-size="46.0" fill="#525252" transform="matrix(1.00, 0.00, -0.00, -1.00, 911.3, 406.5)">n</text><text xml:space="preserve" font-family="OpenSans-Light,Open Sans" font-size="46.0" fill="#525252" transform="matrix(1.00, 0.00, -0.00, -1.00, 938.4, 406.5)">t</text><text xml:space="preserve" font-family="OpenSans-Light,Open Sans" font-size="46.0" fill="#525252" transform="matrix(1.00, 0.00, -0.00, -1.00, 953.8, 406.5)">i</text><text xml:space="preserve" font-family="OpenSans-Light,Open Sans" font-size="46.0" fill="#525252" transform="matrix(1.00, 0.00, -0.00, -1.00, 964.2, 406.5)">n</text><text xml:space="preserve" font-family="OpenSans-Light,Open Sans" font-size="46.0" fill="#525252" transform="matrix(1.00, 0.00, -0.00, -1.00, 991.3, 406.5)">e</text><text xml:space="preserve" font-family="OpenSans-Light,Open Sans" font-size="46.0" fill="#525252" transform="matrix(1.00, 0.00, -0.00, -1.00, 1016.6, 406.5)">l</text><text xml:space="preserve" font-family="OpenSans-Light,Open Sans" font-size="46.0" fill="#525252" transform="matrix(1.00, 0.00, -0.00, -1.00, 1027.0, 406.5)"> </text><text xml:space="preserve" font-family="OpenSans-Light,Open Sans" font-size="46.0" fill="#525252" transform="matrix(1.00, 0.00, -0.00, -1.00, 426.4, 344.5)">h</text><text xml:space="preserve" font-family="OpenSans-Light,Open Sans" font-size="46.0" fill="#525252" transform="matrix(1.00, 0.00, -0.00, -1.00, 453.5, 344.5)">t</text><text xml:space="preserve" font-family="OpenSans-Light,Open Sans" font-size="46.0" fill="#525252" transform="matrix(1.00, 0.00, -0.00, -1.00, 468.9, 344.5)">t</text><text xml:space="preserve" font-family="OpenSans-Light,Open Sans" font-size="46.0" fill="#525252" transform="matrix(1.00, 0.00, -0.00, -1.00, 484.3, 344.5)">p</text><text xml:space="preserve" font-family="OpenSans-Light,Open Sans" font-size="46.0" fill="#525252" transform="matrix(1.00, 0.00, -0.00, -1.00, 511.7, 344.5)">s</text><text xml:space="preserve" font-family="OpenSans-Light,Open Sans" font-size="46.0" fill="#525252" transform="matrix(1.00, 0.00, -0.00, -1.00, 533.1, 344.5)">:</text><text xml:space="preserve" font-family="OpenSans-Light,Open Sans" font-size="46.0" fill="#525252" transform="matrix(1.00, 0.00, -0.00, -1.00, 544.1, 344.5)">/</text><text xml:space="preserve" font-family="OpenSans-Light,Open Sans" font-size="46.0" fill="#525252" transform="matrix(1.00, 0.00, -0.00, -1.00, 559.7, 344.5)">/</text><text xml:space="preserve" font-family="OpenSans-Light,Open Sans" font-size="46.0" fill="#525252" transform="matrix(1.00, 0.00, -0.00, -1.00, 575.4, 344.5)">w</text><text xml:space="preserve" font-family="OpenSans-Light,Open Sans" font-size="46.0" fill="#525252" transform="matrix(1.00, 0.00, -0.00, -1.00, 608.7, 344.5)">w</text><text xml:space="preserve" font-family="OpenSans-Light,Open Sans" font-size="46.0" fill="#525252" transform="matrix(1.00, 0.00, -0.00, -1.00, 641.9, 344.5)">w</text><text xml:space="preserve" font-family="OpenSans-Light,Open Sans" font-size="46.0" fill="#525252" transform="matrix(1.00, 0.00, -0.00, -1.00, 673.4, 344.5)">.</text><text xml:space="preserve" font-family="OpenSans-Light,Open Sans" font-size="46.0" fill="#525252" transform="matrix(1.00, 0.00, -0.00, -1.00, 684.3, 344.5)">y</text><text xml:space="preserve" font-family="OpenSans-Light,Open Sans" font-size="46.0" fill="#525252" transform="matrix(1.00, 0.00, -0.00, -1.00, 705.4, 344.5)">o</text><text xml:space="preserve" font-family="OpenSans-Light,Open Sans" font-size="46.0" fill="#525252" transform="matrix(1.00, 0.00, -0.00, -1.00, 732.4, 344.5)">u</text><text xml:space="preserve" font-family="OpenSans-Light,Open Sans" font-size="46.0" fill="#525252" transform="matrix(1.00, 0.00, -0.00, -1.00, 759.5, 344.5)">t</text><text xml:space="preserve" font-family="OpenSans-Light,Open Sans" font-size="46.0" fill="#525252" transform="matrix(1.00, 0.00, -0.00, -1.00, 774.9, 344.5)">u</text><text xml:space="preserve" font-family="OpenSans-Light,Open Sans" font-size="46.0" fill="#525252" transform="matrix(1.00, 0.00, -0.00, -1.00, 802.0, 344.5)">b</text><text xml:space="preserve" font-family="OpenSans-Light,Open Sans" font-size="46.0" fill="#525252" transform="matrix(1.00, 0.00, -0.00, -1.00, 829.4, 344.5)">e</text><text xml:space="preserve" font-family="OpenSans-Light,Open Sans" font-size="46.0" fill="#525252" transform="matrix(1.00, 0.00, -0.00, -1.00, 854.6, 344.5)">.</text><text xml:space="preserve" font-family="OpenSans-Light,Open Sans" font-size="46.0" fill="#525252" transform="matrix(1.00, 0.00, -0.00, -1.00, 865.6, 344.5)">c</text><text xml:space="preserve" font-family="OpenSans-Light,Open Sans" font-size="46.0" fill="#525252" transform="matrix(1.00, 0.00, -0.00, -1.00, 887.4, 344.5)">o</text><text xml:space="preserve" font-family="OpenSans-Light,Open Sans" font-size="46.0" fill="#525252" transform="matrix(1.00, 0.00, -0.00, -1.00, 914.4, 344.5)">m</text><text xml:space="preserve" font-family="OpenSans-Light,Open Sans" font-size="46.0" fill="#525252" transform="matrix(1.00, 0.00, -0.00, -1.00, 955.0, 344.5)">/</text><text xml:space="preserve" font-family="OpenSans-Light,Open Sans" font-size="46.0" fill="#525252" transform="matrix(1.00, 0.00, -0.00, -1.00, 970.6, 344.5)">w</text><text xml:space="preserve" font-family="OpenSans-Light,Open Sans" font-size="46.0" fill="#525252" transform="matrix(1.00, 0.00, -0.00, -1.00, 1003.9, 344.5)">a</text><text xml:space="preserve" font-family="OpenSans-Light,Open Sans" font-size="46.0" fill="#525252" transform="matrix(1.00, 0.00, -0.00, -1.00, 1028.3, 344.5)">t</text><text xml:space="preserve" font-family="OpenSans-Light,Open Sans" font-size="46.0" fill="#525252" transform="matrix(1.00, 0.00, -0.00, -1.00, 1043.7, 344.5)">c</text><text xml:space="preserve" font-family="OpenSans-Light,Open Sans" font-size="46.0" fill="#525252" transform="matrix(1.00, 0.00, -0.00, -1.00, 1065.5, 344.5)">h</text><text xml:space="preserve" font-family="OpenSans-Light,Open Sans" font-size="46.0" fill="#525252" transform="matrix(1.00, 0.00, -0.00, -1.00, 1092.7, 344.5)">?</text><text xml:space="preserve" font-family="OpenSans-Light,Open Sans" font-size="46.0" fill="#525252" transform="matrix(1.00, 0.00, -0.00, -1.00, 1112.0, 344.5)">v</text><text xml:space="preserve" font-family="OpenSans-Light,Open Sans" font-size="46.0" fill="#525252" transform="matrix(1.00, 0.00, -0.00, -1.00, 1133.1, 344.5)">=</text><text xml:space="preserve" font-family="OpenSans-Light,Open Sans" font-size="46.0" fill="#525252" transform="matrix(1.00, 0.00, -0.00, -1.00, 1159.4, 344.5)">V</text><text xml:space="preserve" font-family="OpenSans-Light,Open Sans" font-size="46.0" fill="#525252" transform="matrix(1.00, 0.00, -0.00, -1.00, 1185.9, 344.5)">w</text><text xml:space="preserve" font-family="OpenSans-Light,Open Sans" font-size="46.0" fill="#525252" transform="matrix(1.00, 0.00, -0.00, -1.00, 1219.2, 344.5)">V</text><text xml:space="preserve" font-family="OpenSans-Light,Open Sans" font-size="46.0" fill="#525252" transform="matrix(1.00, 0.00, -0.00, -1.00, 1245.8, 344.5)">1</text><text xml:space="preserve" font-family="OpenSans-Light,Open Sans" font-size="46.0" fill="#525252" transform="matrix(1.00, 0.00, -0.00, -1.00, 1272.0, 344.5)">y</text><text xml:space="preserve" font-family="OpenSans-Light,Open Sans" font-size="46.0" fill="#525252" transform="matrix(1.00, 0.00, -0.00, -1.00, 1293.1, 344.5)">a</text><text xml:space="preserve" font-family="OpenSans-Light,Open Sans" font-size="46.0" fill="#525252" transform="matrix(1.00, 0.00, -0.00, -1.00, 1317.5, 344.5)">r</text><text xml:space="preserve" font-family="OpenSans-Light,Open Sans" font-size="46.0" fill="#525252" transform="matrix(1.00, 0.00, -0.00, -1.00, 1335.4, 344.5)">6</text><text xml:space="preserve" font-family="OpenSans-Light,Open Sans" font-size="46.0" fill="#525252" transform="matrix(1.00, 0.00, -0.00, -1.00, 1361.6, 344.5)">P</text><text xml:space="preserve" font-family="OpenSans-Light,Open Sans" font-size="46.0" fill="#525252" transform="matrix(1.00, 0.00, -0.00, -1.00, 1388.6, 344.5)">M</text><text xml:space="preserve" font-family="OpenSans-Light,Open Sans" font-size="46.0" fill="#525252" transform="matrix(1.00, 0.00, -0.00, -1.00, 1428.2, 344.5)">w</text><g><clipPath id="clip0x6080120a1ec0"><path d="M 425.4 338.9 L 1461.6 338.9 L 1461.6 343.2 L 425.4 343.2 Z M 425.4 338.9 "></path></clipPath><g clip-path="url(#clip0x6080120a1ec0)"><path d="M 4.5 118.0 L 1039.7 118.0 " fill="none" stroke="#525252" stroke-width="2.29" transform="matrix(1.00, 0.00, 0.00, -1.00, 421.9, 459.0)"></path></g></g><text xml:space="preserve" font-family="OpenSans-Light,Open Sans" font-size="46.0" fill="#525252" transform="matrix(1.00, 0.00, -0.00, -1.00, 892.5, 214.5)">V</text><text xml:space="preserve" font-family="OpenSans-Light,Open Sans" font-size="46.0" fill="#525252" transform="matrix(1.00, 0.00, -0.00, -1.00, 918.2, 214.5)">a</text><text xml:space="preserve" font-family="OpenSans-Light,Open Sans" font-size="46.0" fill="#525252" transform="matrix(1.00, 0.00, -0.00, -1.00, 942.5, 214.5)">u</text><text xml:space="preserve" font-family="OpenSans-Light,Open Sans" font-size="46.0" fill="#525252" transform="matrix(1.00, 0.00, -0.00, -1.00, 969.6, 214.5)">l</text><text xml:space="preserve" font-family="OpenSans-Light,Open Sans" font-size="46.0" fill="#525252" transform="matrix(1.00, 0.00, -0.00, -1.00, 980.1, 214.5)">t</text><text xml:space="preserve" font-family="OpenSans-Light,Open Sans" font-size="46.0" fill="#525252" transform="matrix(1.00, 0.00, -0.00, -1.00, 995.5, 214.5)"> </text><text xml:space="preserve" font-family="OpenSans-Light,Open Sans" font-size="46.0" fill="#525252" transform="matrix(1.00, 0.00, -0.00, -1.00, 456.8, 152.5)">h</text><text xml:space="preserve" font-family="OpenSans-Light,Open Sans" font-size="46.0" fill="#525252" transform="matrix(1.00, 0.00, -0.00, -1.00, 483.9, 152.5)">t</text><text xml:space="preserve" font-family="OpenSans-Light,Open Sans" font-size="46.0" fill="#525252" transform="matrix(1.00, 0.00, -0.00, -1.00, 499.3, 152.5)">t</text><text xml:space="preserve" font-family="OpenSans-Light,Open Sans" font-size="46.0" fill="#525252" transform="matrix(1.00, 0.00, -0.00, -1.00, 514.8, 152.5)">p</text><text xml:space="preserve" font-family="OpenSans-Light,Open Sans" font-size="46.0" fill="#525252" transform="matrix(1.00, 0.00, -0.00, -1.00, 542.1, 152.5)">s</text><text xml:space="preserve" font-family="OpenSans-Light,Open Sans" font-size="46.0" fill="#525252" transform="matrix(1.00, 0.00, -0.00, -1.00, 563.6, 152.5)">:</text><text xml:space="preserve" font-family="OpenSans-Light,Open Sans" font-size="46.0" fill="#525252" transform="matrix(1.00, 0.00, -0.00, -1.00, 574.5, 152.5)">/</text><text xml:space="preserve" font-family="OpenSans-Light,Open Sans" font-size="46.0" fill="#525252" transform="matrix(1.00, 0.00, -0.00, -1.00, 590.2, 152.5)">/</text><text xml:space="preserve" font-family="OpenSans-Light,Open Sans" font-size="46.0" fill="#525252" transform="matrix(1.00, 0.00, -0.00, -1.00, 605.8, 152.5)">w</text><text xml:space="preserve" font-family="OpenSans-Light,Open Sans" font-size="46.0" fill="#525252" transform="matrix(1.00, 0.00, -0.00, -1.00, 639.1, 152.5)">w</text><text xml:space="preserve" font-family="OpenSans-Light,Open Sans" font-size="46.0" fill="#525252" transform="matrix(1.00, 0.00, -0.00, -1.00, 672.4, 152.5)">w</text><text xml:space="preserve" font-family="OpenSans-Light,Open Sans" font-size="46.0" fill="#525252" transform="matrix(1.00, 0.00, -0.00, -1.00, 703.8, 152.5)">.</text><text xml:space="preserve" font-family="OpenSans-Light,Open Sans" font-size="46.0" fill="#525252" transform="matrix(1.00, 0.00, -0.00, -1.00, 714.7, 152.5)">y</text><text xml:space="preserve" font-family="OpenSans-Light,Open Sans" font-size="46.0" fill="#525252" transform="matrix(1.00, 0.00, -0.00, -1.00, 735.8, 152.5)">o</text><text xml:space="preserve" font-family="OpenSans-Light,Open Sans" font-size="46.0" fill="#525252" transform="matrix(1.00, 0.00, -0.00, -1.00, 762.8, 152.5)">u</text><text xml:space="preserve" font-family="OpenSans-Light,Open Sans" font-size="46.0" fill="#525252" transform="matrix(1.00, 0.00, -0.00, -1.00, 789.9, 152.5)">t</text><text xml:space="preserve" font-family="OpenSans-Light,Open Sans" font-size="46.0" fill="#525252" transform="matrix(1.00, 0.00, -0.00, -1.00, 805.3, 152.5)">u</text><text xml:space="preserve" font-family="OpenSans-Light,Open Sans" font-size="46.0" fill="#525252" transform="matrix(1.00, 0.00, -0.00, -1.00, 832.4, 152.5)">b</text><text xml:space="preserve" font-family="OpenSans-Light,Open Sans" font-size="46.0" fill="#525252" transform="matrix(1.00, 0.00, -0.00, -1.00, 859.8, 152.5)">e</text><text xml:space="preserve" font-family="OpenSans-Light,Open Sans" font-size="46.0" fill="#525252" transform="matrix(1.00, 0.00, -0.00, -1.00, 885.1, 152.5)">.</text><text xml:space="preserve" font-family="OpenSans-Light,Open Sans" font-size="46.0" fill="#525252" transform="matrix(1.00, 0.00, -0.00, -1.00, 896.0, 152.5)">c</text><text xml:space="preserve" font-family="OpenSans-Light,Open Sans" font-size="46.0" fill="#525252" transform="matrix(1.00, 0.00, -0.00, -1.00, 917.9, 152.5)">o</text><text xml:space="preserve" font-family="OpenSans-Light,Open Sans" font-size="46.0" fill="#525252" transform="matrix(1.00, 0.00, -0.00, -1.00, 944.8, 152.5)">m</text><text xml:space="preserve" font-family="OpenSans-Light,Open Sans" font-size="46.0" fill="#525252" transform="matrix(1.00, 0.00, -0.00, -1.00, 985.4, 152.5)">/</text><text xml:space="preserve" font-family="OpenSans-Light,Open Sans" font-size="46.0" fill="#525252" transform="matrix(1.00, 0.00, -0.00, -1.00, 1001.1, 152.5)">w</text><text xml:space="preserve" font-family="OpenSans-Light,Open Sans" font-size="46.0" fill="#525252" transform="matrix(1.00, 0.00, -0.00, -1.00, 1034.3, 152.5)">a</text><text xml:space="preserve" font-family="OpenSans-Light,Open Sans" font-size="46.0" fill="#525252" transform="matrix(1.00, 0.00, -0.00, -1.00, 1058.7, 152.5)">t</text><text xml:space="preserve" font-family="OpenSans-Light,Open Sans" font-size="46.0" fill="#525252" transform="matrix(1.00, 0.00, -0.00, -1.00, 1074.1, 152.5)">c</text><text xml:space="preserve" font-family="OpenSans-Light,Open Sans" font-size="46.0" fill="#525252" transform="matrix(1.00, 0.00, -0.00, -1.00, 1096.0, 152.5)">h</text><text xml:space="preserve" font-family="OpenSans-Light,Open Sans" font-size="46.0" fill="#525252" transform="matrix(1.00, 0.00, -0.00, -1.00, 1123.1, 152.5)">?</text><text xml:space="preserve" font-family="OpenSans-Light,Open Sans" font-size="46.0" fill="#525252" transform="matrix(1.00, 0.00, -0.00, -1.00, 1142.4, 152.5)">v</text><text xml:space="preserve" font-family="OpenSans-Light,Open Sans" font-size="46.0" fill="#525252" transform="matrix(1.00, 0.00, -0.00, -1.00, 1163.6, 152.5)">=</text><text xml:space="preserve" font-family="OpenSans-Light,Open Sans" font-size="46.0" fill="#525252" transform="matrix(1.00, 0.00, -0.00, -1.00, 1189.8, 152.5)">s</text><text xml:space="preserve" font-family="OpenSans-Light,Open Sans" font-size="46.0" fill="#525252" transform="matrix(1.00, 0.00, -0.00, -1.00, 1211.2, 152.5)">K</text><text xml:space="preserve" font-family="OpenSans-Light,Open Sans" font-size="46.0" fill="#525252" transform="matrix(1.00, 0.00, -0.00, -1.00, 1238.0, 152.5)">I</text><text xml:space="preserve" font-family="OpenSans-Light,Open Sans" font-size="46.0" fill="#525252" transform="matrix(1.00, 0.00, -0.00, -1.00, 1249.6, 152.5)">8</text><text xml:space="preserve" font-family="OpenSans-Light,Open Sans" font-size="46.0" fill="#525252" transform="matrix(1.00, 0.00, -0.00, -1.00, 1275.8, 152.5)">i</text><text xml:space="preserve" font-family="OpenSans-Light,Open Sans" font-size="46.0" fill="#525252" transform="matrix(1.00, 0.00, -0.00, -1.00, 1286.2, 152.5)">4</text><text xml:space="preserve" font-family="OpenSans-Light,Open Sans" font-size="46.0" fill="#525252" transform="matrix(1.00, 0.00, -0.00, -1.00, 1312.5, 152.5)">P</text><text xml:space="preserve" font-family="OpenSans-Light,Open Sans" font-size="46.0" fill="#525252" transform="matrix(1.00, 0.00, -0.00, -1.00, 1339.4, 152.5)">6</text><text xml:space="preserve" font-family="OpenSans-Light,Open Sans" font-size="46.0" fill="#525252" transform="matrix(1.00, 0.00, -0.00, -1.00, 1365.6, 152.5)">6</text><text xml:space="preserve" font-family="OpenSans-Light,Open Sans" font-size="46.0" fill="#525252" transform="matrix(1.00, 0.00, -0.00, -1.00, 1391.9, 152.5)">I</text><text xml:space="preserve" font-family="OpenSans-Light,Open Sans" font-size="46.0" fill="#525252" transform="matrix(1.00, 0.00, -0.00, -1.00, 1403.4, 152.5)">A</text><g><clipPath id="clip0x6080120a2d60"><path d="M 455.8 146.9 L 1431.2 146.9 L 1431.2 151.2 L 455.8 151.2 Z M 455.8 146.9 "></path></clipPath><g clip-path="url(#clip0x6080120a2d60)"><path d="M 4.5 118.0 L 978.9 118.0 " fill="none" stroke="#525252" stroke-width="2.29" transform="matrix(1.00, 0.00, 0.00, -1.00, 452.3, 267.0)"></path></g></g><g><clipPath id="clip0x6080120a2fa0"><path d="M 523.6 893.2 L 1396.4 893.2 L 1396.4 984.2 L 523.6 984.2 Z M 523.6 893.2 "></path></clipPath><g clip-path="url(#clip0x6080120a2fa0)"><text xml:space="preserve" font-family="OpenSans-Semibold,Open Sans" font-weight="bold" font-size="70.0" fill="#525252" transform="matrix(1.00, 0.00, -0.00, -1.00, 565.5, 908.7)">T</text><text xml:space="preserve" font-family="OpenSans-Semibold,Open Sans" font-weight="bold" font-size="70.0" fill="#525252" transform="matrix(1.00, 0.00, -0.00, -1.00, 605.1, 908.7)">E</text><text xml:space="preserve" font-family="OpenSans-Semibold,Open Sans" font-weight="bold" font-size="70.0" fill="#525252" transform="matrix(1.00, 0.00, -0.00, -1.00, 644.2, 908.7)">C</text><text xml:space="preserve" font-family="OpenSans-Semibold,Open Sans" font-weight="bold" font-size="70.0" fill="#525252" transform="matrix(1.00, 0.00, -0.00, -1.00, 688.5, 908.7)">H</text><text xml:space="preserve" font-family="OpenSans-Semibold,Open Sans" font-weight="bold" font-size="70.0" fill="#525252" transform="matrix(1.00, 0.00, -0.00, -1.00, 741.1, 908.7)">N</text><text xml:space="preserve" font-family="OpenSans-Semibold,Open Sans" font-weight="bold" font-size="70.0" fill="#525252" transform="matrix(1.00, 0.00, -0.00, -1.00, 795.9, 908.7)">I</text><text xml:space="preserve" font-family="OpenSans-Semibold,Open Sans" font-weight="bold" font-size="70.0" fill="#525252" transform="matrix(1.00, 0.00, -0.00, -1.00, 817.3, 908.7)">C</text><text xml:space="preserve" font-family="OpenSans-Semibold,Open Sans" font-weight="bold" font-size="70.0" fill="#525252" transform="matrix(1.00, 0.00, -0.00, -1.00, 861.7, 908.7)">A</text><text xml:space="preserve" font-family="OpenSans-Semibold,Open Sans" font-weight="bold" font-size="70.0" fill="#525252" transform="matrix(1.00, 0.00, -0.00, -1.00, 908.0, 908.7)">L</text><text xml:space="preserve" font-family="OpenSans-Semibold,Open Sans" font-weight="bold" font-size="70.0" fill="#525252" transform="matrix(1.00, 0.00, -0.00, -1.00, 945.9, 908.7)"> </text><text xml:space="preserve" font-family="OpenSans-Semibold,Open Sans" font-weight="bold" font-size="70.0" fill="#525252" transform="matrix(1.00, 0.00, -0.00, -1.00, 964.1, 908.7)">O</text><text xml:space="preserve" font-family="OpenSans-Semibold,Open Sans" font-weight="bold" font-size="70.0" fill="#525252" transform="matrix(1.00, 0.00, -0.00, -1.00, 1018.5, 908.7)">V</text><text xml:space="preserve" font-family="OpenSans-Semibold,Open Sans" font-weight="bold" font-size="70.0" fill="#525252" transform="matrix(1.00, 0.00, -0.00, -1.00, 1062.0, 908.7)">E</text><text xml:space="preserve" font-family="OpenSans-Semibold,Open Sans" font-weight="bold" font-size="70.0" fill="#525252" transform="matrix(1.00, 0.00, -0.00, -1.00, 1101.1, 908.7)">R</text><text xml:space="preserve" font-family="OpenSans-Semibold,Open Sans" font-weight="bold" font-size="70.0" fill="#525252" transform="matrix(1.00, 0.00, -0.00, -1.00, 1145.9, 908.7)">V</text><text xml:space="preserve" font-family="OpenSans-Semibold,Open Sans" font-weight="bold" font-size="70.0" fill="#525252" transform="matrix(1.00, 0.00, -0.00, -1.00, 1189.4, 908.7)">I</text><text xml:space="preserve" font-family="OpenSans-Semibold,Open Sans" font-weight="bold" font-size="70.0" fill="#525252" transform="matrix(1.00, 0.00, -0.00, -1.00, 1210.8, 908.7)">E</text><text xml:space="preserve" font-family="OpenSans-Semibold,Open Sans" font-weight="bold" font-size="70.0" fill="#525252" transform="matrix(1.00, 0.00, -0.00, -1.00, 1249.9, 908.7)">W</text><text xml:space="preserve" font-family="OpenSans-Semibold,Open Sans" font-weight="bold" font-size="70.0" fill="#525252" transform="matrix(1.00, 0.00, -0.00, -1.00, 1316.1, 908.7)">S</text></g></g></g></svg>