<?xml version="1.0" encoding="UTF-8" standalone="no"?><svg xmlns="http://www.w3.org/2000/svg" xmlns:xlink="http://www.w3.org/1999/xlink" clip-rule="evenodd" stroke-miterlimit="10" viewBox="0 0 934 56"><desc>SVG generated by Keynote</desc><defs></defs><g transform="matrix(1.00, 0.00, -0.00, -1.00, 0.0, 56.0)"><g><clipPath id="clip0x608011ca1440"><path d="M 0.0 0.0 L 934.0 0.0 L 934.0 56.0 L 0.0 56.0 Z M 0.0 0.0 "></path></clipPath><g clip-path="url(#clip0x608011ca1440)"><text xml:space="preserve" font-family="OpenSans-Semibold,Open Sans" font-weight="bold" font-size="70.0" fill="#525252" transform="matrix(1.00, 0.00, -0.00, -1.00, 1.9, 2.7)">A</text><text xml:space="preserve" font-family="OpenSans-Semibold,Open Sans" font-weight="bold" font-size="70.0" fill="#525252" transform="matrix(1.00, 0.00, -0.00, -1.00, 48.2, 2.7)"> </text><text xml:space="preserve" font-family="OpenSans-Semibold,Open Sans" font-weight="bold" font-size="70.0" fill="#525252" transform="matrix(1.00, 0.00, -0.00, -1.00, 66.4, 2.7)">N</text><text xml:space="preserve" font-family="OpenSans-Semibold,Open Sans" font-weight="bold" font-size="70.0" fill="#525252" transform="matrix(1.00, 0.00, -0.00, -1.00, 121.2, 2.7)">E</text><text xml:space="preserve" font-family="OpenSans-Semibold,Open Sans" font-weight="bold" font-size="70.0" fill="#525252" transform="matrix(1.00, 0.00, -0.00, -1.00, 160.3, 2.7)">W</text><text xml:space="preserve" font-family="OpenSans-Semibold,Open Sans" font-weight="bold" font-size="70.0" fill="#525252" transform="matrix(1.00, 0.00, -0.00, -1.00, 226.5, 2.7)"> </text><text xml:space="preserve" font-family="OpenSans-Semibold,Open Sans" font-weight="bold" font-size="70.0" fill="#525252" transform="matrix(1.00, 0.00, -0.00, -1.00, 244.7, 2.7)">C</text><text xml:space="preserve" font-family="OpenSans-Semibold,Open Sans" font-weight="bold" font-size="70.0" fill="#525252" transform="matrix(1.00, 0.00, -0.00, -1.00, 289.0, 2.7)">H</text><text xml:space="preserve" font-family="OpenSans-Semibold,Open Sans" font-weight="bold" font-size="70.0" fill="#525252" transform="matrix(1.00, 0.00, -0.00, -1.00, 341.6, 2.7)">A</text><text xml:space="preserve" font-family="OpenSans-Semibold,Open Sans" font-weight="bold" font-size="70.0" fill="#525252" transform="matrix(1.00, 0.00, -0.00, -1.00, 387.9, 2.7)">P</text><text xml:space="preserve" font-family="OpenSans-Semibold,Open Sans" font-weight="bold" font-size="70.0" fill="#525252" transform="matrix(1.00, 0.00, -0.00, -1.00, 430.9, 2.7)">T</text><text xml:space="preserve" font-family="OpenSans-Semibold,Open Sans" font-weight="bold" font-size="70.0" fill="#525252" transform="matrix(1.00, 0.00, -0.00, -1.00, 470.5, 2.7)">E</text><text xml:space="preserve" font-family="OpenSans-Semibold,Open Sans" font-weight="bold" font-size="70.0" fill="#525252" transform="matrix(1.00, 0.00, -0.00, -1.00, 509.6, 2.7)">R</text><text xml:space="preserve" font-family="OpenSans-Semibold,Open Sans" font-weight="bold" font-size="70.0" fill="#525252" transform="matrix(1.00, 0.00, -0.00, -1.00, 554.4, 2.7)"> </text><text xml:space="preserve" font-family="OpenSans-Semibold,Open Sans" font-weight="bold" font-size="70.0" fill="#525252" transform="matrix(1.00, 0.00, -0.00, -1.00, 572.5, 2.7)">I</text><text xml:space="preserve" font-family="OpenSans-Semibold,Open Sans" font-weight="bold" font-size="70.0" fill="#525252" transform="matrix(1.00, 0.00, -0.00, -1.00, 593.9, 2.7)">N</text><text xml:space="preserve" font-family="OpenSans-Semibold,Open Sans" font-weight="bold" font-size="70.0" fill="#525252" transform="matrix(1.00, 0.00, -0.00, -1.00, 648.8, 2.7)"> </text><text xml:space="preserve" font-family="OpenSans-Semibold,Open Sans" font-weight="bold" font-size="70.0" fill="#525252" transform="matrix(1.00, 0.00, -0.00, -1.00, 666.9, 2.7)">A</text><text xml:space="preserve" font-family="OpenSans-Semibold,Open Sans" font-weight="bold" font-size="70.0" fill="#525252" transform="matrix(1.00, 0.00, -0.00, -1.00, 713.2, 2.7)">N</text><text xml:space="preserve" font-family="OpenSans-Semibold,Open Sans" font-weight="bold" font-size="70.0" fill="#525252" transform="matrix(1.00, 0.00, -0.00, -1.00, 768.1, 2.7)"> </text><text xml:space="preserve" font-family="OpenSans-Semibold,Open Sans" font-weight="bold" font-size="70.0" fill="#525252" transform="matrix(1.00, 0.00, -0.00, -1.00, 786.2, 2.7)">E</text><text xml:space="preserve" font-family="OpenSans-Semibold,Open Sans" font-weight="bold" font-size="70.0" fill="#525252" transform="matrix(1.00, 0.00, -0.00, -1.00, 825.3, 2.7)">P</text><text xml:space="preserve" font-family="OpenSans-Semibold,Open Sans" font-weight="bold" font-size="70.0" fill="#525252" transform="matrix(1.00, 0.00, -0.00, -1.00, 868.4, 2.7)">I</text><text xml:space="preserve" font-family="OpenSans-Semibold,Open Sans" font-weight="bold" font-size="70.0" fill="#525252" transform="matrix(1.00, 0.00, -0.00, -1.00, 889.8, 2.7)">C</text></g></g></g></svg>