<?xml version="1.0" encoding="UTF-8" standalone="no"?><svg xmlns="http://www.w3.org/2000/svg" xmlns:xlink="http://www.w3.org/1999/xlink" clip-rule="evenodd" stroke-miterlimit="10" viewBox="0 0 590 44"><desc>SVG generated by Keynote</desc><defs></defs><g transform="matrix(1.00, 0.00, -0.00, -1.00, 0.0, 44.0)"><text xml:space="preserve" font-family="OpenSans,Open Sans" font-size="40.0" fill="#525252" transform="matrix(1.00, 0.00, -0.00, -1.00, -1.4, 10.9)">N</text><text xml:space="preserve" font-family="OpenSans,Open Sans" font-size="40.0" fill="#525252" transform="matrix(1.00, 0.00, -0.00, -1.00, 28.8, 10.9)">o</text><text xml:space="preserve" font-family="OpenSans,Open Sans" font-size="40.0" fill="#525252" transform="matrix(1.00, 0.00, -0.00, -1.00, 52.9, 10.9)">t</text><text xml:space="preserve" font-family="OpenSans,Open Sans" font-size="40.0" fill="#525252" transform="matrix(1.00, 0.00, -0.00, -1.00, 67.1, 10.9)"> </text><text xml:space="preserve" font-family="OpenSans,Open Sans" font-size="40.0" fill="#525252" transform="matrix(1.00, 0.00, -0.00, -1.00, 77.4, 10.9)">q</text><text xml:space="preserve" font-family="OpenSans,Open Sans" font-size="40.0" fill="#525252" transform="matrix(1.00, 0.00, -0.00, -1.00, 102.0, 10.9)">u</text><text xml:space="preserve" font-family="OpenSans,Open Sans" font-size="40.0" fill="#525252" transform="matrix(1.00, 0.00, -0.00, -1.00, 126.5, 10.9)">i</text><text xml:space="preserve" font-family="OpenSans,Open Sans" font-size="40.0" fill="#525252" transform="matrix(1.00, 0.00, -0.00, -1.00, 136.6, 10.9)">t</text><text xml:space="preserve" font-family="OpenSans,Open Sans" font-size="40.0" fill="#525252" transform="matrix(1.00, 0.00, -0.00, -1.00, 150.7, 10.9)">e</text><text xml:space="preserve" font-family="OpenSans,Open Sans" font-size="40.0" fill="#525252" transform="matrix(1.00, 0.00, -0.00, -1.00, 173.2, 10.9)"> </text><text xml:space="preserve" font-family="OpenSans,Open Sans" font-size="40.0" fill="#525252" transform="matrix(1.00, 0.00, -0.00, -1.00, 183.6, 10.9)">“</text><text xml:space="preserve" font-family="OpenSans,Open Sans" font-size="40.0" fill="#525252" transform="matrix(1.00, 0.00, -0.00, -1.00, 197.6, 10.9)">i</text><text xml:space="preserve" font-family="OpenSans,Open Sans" font-size="40.0" fill="#525252" transform="matrix(1.00, 0.00, -0.00, -1.00, 207.7, 10.9)">n</text><text xml:space="preserve" font-family="OpenSans,Open Sans" font-size="40.0" fill="#525252" transform="matrix(1.00, 0.00, -0.00, -1.00, 232.2, 10.9)"> </text><text xml:space="preserve" font-family="OpenSans,Open Sans" font-size="40.0" fill="#525252" transform="matrix(1.00, 0.00, -0.00, -1.00, 242.6, 10.9)">p</text><text xml:space="preserve" font-family="OpenSans,Open Sans" font-size="40.0" fill="#525252" transform="matrix(1.00, 0.00, -0.00, -1.00, 267.1, 10.9)">r</text><text xml:space="preserve" font-family="OpenSans,Open Sans" font-size="40.0" fill="#525252" transform="matrix(1.00, 0.00, -0.00, -1.00, 282.6, 10.9)">o</text><text xml:space="preserve" font-family="OpenSans,Open Sans" font-size="40.0" fill="#525252" transform="matrix(1.00, 0.00, -0.00, -1.00, 306.8, 10.9)">d</text><text xml:space="preserve" font-family="OpenSans,Open Sans" font-size="40.0" fill="#525252" transform="matrix(1.00, 0.00, -0.00, -1.00, 331.3, 10.9)">u</text><text xml:space="preserve" font-family="OpenSans,Open Sans" font-size="40.0" fill="#525252" transform="matrix(1.00, 0.00, -0.00, -1.00, 355.8, 10.9)">c</text><text xml:space="preserve" font-family="OpenSans,Open Sans" font-size="40.0" fill="#525252" transform="matrix(1.00, 0.00, -0.00, -1.00, 374.9, 10.9)">t</text><text xml:space="preserve" font-family="OpenSans,Open Sans" font-size="40.0" fill="#525252" transform="matrix(1.00, 0.00, -0.00, -1.00, 389.0, 10.9)">i</text><text xml:space="preserve" font-family="OpenSans,Open Sans" font-size="40.0" fill="#525252" transform="matrix(1.00, 0.00, -0.00, -1.00, 399.1, 10.9)">o</text><text xml:space="preserve" font-family="OpenSans,Open Sans" font-size="40.0" fill="#525252" transform="matrix(1.00, 0.00, -0.00, -1.00, 423.3, 10.9)">n</text><text xml:space="preserve" font-family="OpenSans,Open Sans" font-size="40.0" fill="#525252" transform="matrix(1.00, 0.00, -0.00, -1.00, 447.4, 10.9)">”</text><text xml:space="preserve" font-family="OpenSans,Open Sans" font-size="40.0" fill="#525252" transform="matrix(1.00, 0.00, -0.00, -1.00, 461.4, 10.9)">…</text><text xml:space="preserve" font-family="OpenSans,Open Sans" font-size="40.0" fill="#525252" transform="matrix(1.00, 0.00, -0.00, -1.00, 492.8, 10.9)"> </text><text xml:space="preserve" font-family="OpenSans,Open Sans" font-size="40.0" fill="#525252" transform="matrix(1.00, 0.00, -0.00, -1.00, 503.2, 10.9)">y</text><text xml:space="preserve" font-family="OpenSans,Open Sans" font-size="40.0" fill="#525252" transform="matrix(1.00, 0.00, -0.00, -1.00, 523.4, 10.9)">e</text><text xml:space="preserve" font-family="OpenSans,Open Sans" font-size="40.0" fill="#525252" transform="matrix(1.00, 0.00, -0.00, -1.00, 545.8, 10.9)">t</text><text xml:space="preserve" font-family="OpenSans,Open Sans" font-size="40.0" fill="#525252" transform="matrix(1.00, 0.00, -0.00, -1.00, 559.9, 10.9)">…</text></g></svg>