<?xml version="1.0" encoding="UTF-8" standalone="no"?><svg xmlns="http://www.w3.org/2000/svg" xmlns:xlink="http://www.w3.org/1999/xlink" clip-rule="evenodd" stroke-miterlimit="10" viewBox="0 0 1920 1080"><desc>SVG generated by Keynote</desc><defs></defs><g transform="matrix(1.00, 0.00, -0.00, -1.00, 0.0, 1080.0)"><g><clipPath id="clip0x6000008beea0"><path d="M 0.0 1080.0 L 1920.0 1080.0 L 1920.0 0.0 L 0.0 0.0 Z M 0.0 1080.0 "></path></clipPath><g clip-path="url(#clip0x6000008beea0)"><image xlink:href="9EDC5A8D695696C5A4C057AC54B1350D.png" width="1920.00" height="980.00" transform="matrix(1.10, 0.00, -0.00, -1.10, -98.0, 1080.0)"></image></g></g><image xlink:href="2B809BF320BBCC0588FE06F42562165D.png" width="250.00" height="250.00" transform="matrix(1.00, 0.00, -0.00, -1.00, 1487.0, 909.0)"></image><g><clipPath id="clip0x608008ca2880"><path d="M 44.8 484.2 L 1875.2 484.2 L 1875.2 596.2 L 44.8 596.2 Z M 44.8 484.2 "></path></clipPath><g clip-path="url(#clip0x608008ca2880)"><text xml:space="preserve" font-family="OpenSans,Open Sans" font-size="96.0" fill="#525252" transform="matrix(1.00, 0.00, -0.00, -1.00, 460.8, 493.3)">&amp;</text><text xml:space="preserve" font-family="OpenSans,Open Sans" font-size="96.0" fill="#525252" transform="matrix(1.00, 0.00, -0.00, -1.00, 530.9, 493.3)"> </text><text xml:space="preserve" font-family="OpenSans,Open Sans" font-size="96.0" fill="#525252" transform="matrix(1.00, 0.00, -0.00, -1.00, 555.8, 493.3)">T</text><text xml:space="preserve" font-family="OpenSans,Open Sans" font-size="96.0" fill="#525252" transform="matrix(1.00, 0.00, -0.00, -1.00, 608.9, 493.3)">H</text><text xml:space="preserve" font-family="OpenSans,Open Sans" font-size="96.0" fill="#525252" transform="matrix(1.00, 0.00, -0.00, -1.00, 679.7, 493.3)">E</text><text xml:space="preserve" font-family="OpenSans,Open Sans" font-size="96.0" fill="#525252" transform="matrix(1.00, 0.00, -0.00, -1.00, 733.1, 493.3)"> </text><text xml:space="preserve" font-family="OpenSans,Open Sans" font-size="96.0" fill="#525252" transform="matrix(1.00, 0.00, -0.00, -1.00, 758.0, 493.3)">S</text><text xml:space="preserve" font-family="OpenSans,Open Sans" font-size="96.0" fill="#525252" transform="matrix(1.00, 0.00, -0.00, -1.00, 810.7, 493.3)">A</text><text xml:space="preserve" font-family="OpenSans,Open Sans" font-size="96.0" fill="#525252" transform="matrix(1.00, 0.00, -0.00, -1.00, 871.4, 493.3)">F</text><text xml:space="preserve" font-family="OpenSans,Open Sans" font-size="96.0" fill="#525252" transform="matrix(1.00, 0.00, -0.00, -1.00, 921.0, 493.3)">E</text><text xml:space="preserve" font-family="OpenSans,Open Sans" font-size="96.0" fill="#525252" transform="matrix(1.00, 0.00, -0.00, -1.00, 974.4, 493.3)"> </text><text xml:space="preserve" font-family="OpenSans,Open Sans" font-size="96.0" fill="#525252" transform="matrix(1.00, 0.00, -0.00, -1.00, 999.3, 493.3)">N</text><text xml:space="preserve" font-family="OpenSans,Open Sans" font-size="96.0" fill="#525252" transform="matrix(1.00, 0.00, -0.00, -1.00, 1071.7, 493.3)">E</text><text xml:space="preserve" font-family="OpenSans,Open Sans" font-size="96.0" fill="#525252" transform="matrix(1.00, 0.00, -0.00, -1.00, 1125.1, 493.3)">T</text><text xml:space="preserve" font-family="OpenSans,Open Sans" font-size="96.0" fill="#525252" transform="matrix(1.00, 0.00, -0.00, -1.00, 1178.2, 493.3)">W</text><text xml:space="preserve" font-family="OpenSans,Open Sans" font-size="96.0" fill="#525252" transform="matrix(1.00, 0.00, -0.00, -1.00, 1266.1, 493.3)">O</text><text xml:space="preserve" font-family="OpenSans,Open Sans" font-size="96.0" fill="#525252" transform="matrix(1.00, 0.00, -0.00, -1.00, 1340.9, 493.3)">R</text><text xml:space="preserve" font-family="OpenSans,Open Sans" font-size="96.0" fill="#525252" transform="matrix(1.00, 0.00, -0.00, -1.00, 1400.3, 493.3)">K</text></g></g><text xml:space="preserve" font-family="OpenSans,Open Sans" font-size="39.0" fill="#525252" transform="matrix(1.00, 0.00, -0.00, -1.00, 559.4, 331.2)">P</text><text xml:space="preserve" font-family="OpenSans,Open Sans" font-size="39.0" fill="#525252" transform="matrix(1.00, 0.00, -0.00, -1.00, 582.9, 331.2)">a</text><text xml:space="preserve" font-family="OpenSans,Open Sans" font-size="39.0" fill="#525252" transform="matrix(1.00, 0.00, -0.00, -1.00, 604.6, 331.2)">i</text><text xml:space="preserve" font-family="OpenSans,Open Sans" font-size="39.0" fill="#525252" transform="matrix(1.00, 0.00, -0.00, -1.00, 614.4, 331.2)">g</text><text xml:space="preserve" font-family="OpenSans,Open Sans" font-size="39.0" fill="#525252" transform="matrix(1.00, 0.00, -0.00, -1.00, 635.8, 331.2)">e</text><text xml:space="preserve" font-family="OpenSans,Open Sans" font-size="39.0" fill="#525252" transform="matrix(1.00, 0.00, -0.00, -1.00, 657.7, 331.2)"> </text><text xml:space="preserve" font-family="OpenSans,Open Sans" font-size="39.0" fill="#525252" transform="matrix(1.00, 0.00, -0.00, -1.00, 667.8, 331.2)">P</text><text xml:space="preserve" font-family="OpenSans,Open Sans" font-size="39.0" fill="#525252" transform="matrix(1.00, 0.00, -0.00, -1.00, 691.3, 331.2)">e</text><text xml:space="preserve" font-family="OpenSans,Open Sans" font-size="39.0" fill="#525252" transform="matrix(1.00, 0.00, -0.00, -1.00, 713.2, 331.2)">t</text><text xml:space="preserve" font-family="OpenSans,Open Sans" font-size="39.0" fill="#525252" transform="matrix(1.00, 0.00, -0.00, -1.00, 726.9, 331.2)">e</text><text xml:space="preserve" font-family="OpenSans,Open Sans" font-size="39.0" fill="#525252" transform="matrix(1.00, 0.00, -0.00, -1.00, 748.8, 331.2)">r</text><text xml:space="preserve" font-family="OpenSans,Open Sans" font-size="39.0" fill="#525252" transform="matrix(1.00, 0.00, -0.00, -1.00, 764.7, 331.2)">s</text><text xml:space="preserve" font-family="OpenSans,Open Sans" font-size="39.0" fill="#525252" transform="matrix(1.00, 0.00, -0.00, -1.00, 783.3, 331.2)">o</text><text xml:space="preserve" font-family="OpenSans,Open Sans" font-size="39.0" fill="#525252" transform="matrix(1.00, 0.00, -0.00, -1.00, 806.9, 331.2)">n</text><text xml:space="preserve" font-family="OpenSans,Open Sans" font-size="39.0" fill="#525252" transform="matrix(1.00, 0.00, -0.00, -1.00, 830.8, 331.2)"> </text><text xml:space="preserve" font-family="OpenSans,Open Sans" font-size="39.0" fill="#525252" transform="matrix(1.00, 0.00, -0.00, -1.00, 840.9, 331.2)">-</text><text xml:space="preserve" font-family="OpenSans,Open Sans" font-size="39.0" fill="#525252" transform="matrix(1.00, 0.00, -0.00, -1.00, 853.5, 331.2)"> </text><text xml:space="preserve" font-family="OpenSans,Open Sans" font-size="39.0" fill="#525252" transform="matrix(1.00, 0.00, -0.00, -1.00, 863.6, 331.2)">C</text><text xml:space="preserve" font-family="OpenSans,Open Sans" font-size="39.0" fill="#525252" transform="matrix(1.00, 0.00, -0.00, -1.00, 888.2, 331.2)">o</text><text xml:space="preserve" font-family="OpenSans,Open Sans" font-size="39.0" fill="#525252" transform="matrix(1.00, 0.00, -0.00, -1.00, 911.8, 331.2)">m</text><text xml:space="preserve" font-family="OpenSans,Open Sans" font-size="39.0" fill="#525252" transform="matrix(1.00, 0.00, -0.00, -1.00, 948.1, 331.2)">m</text><text xml:space="preserve" font-family="OpenSans,Open Sans" font-size="39.0" fill="#525252" transform="matrix(1.00, 0.00, -0.00, -1.00, 984.3, 331.2)">u</text><text xml:space="preserve" font-family="OpenSans,Open Sans" font-size="39.0" fill="#525252" transform="matrix(1.00, 0.00, -0.00, -1.00, 1008.3, 331.2)">n</text><text xml:space="preserve" font-family="OpenSans,Open Sans" font-size="39.0" fill="#525252" transform="matrix(1.00, 0.00, -0.00, -1.00, 1032.2, 331.2)">i</text><text xml:space="preserve" font-family="OpenSans,Open Sans" font-size="39.0" fill="#525252" transform="matrix(1.00, 0.00, -0.00, -1.00, 1042.1, 331.2)">c</text><text xml:space="preserve" font-family="OpenSans,Open Sans" font-size="39.0" fill="#525252" transform="matrix(1.00, 0.00, -0.00, -1.00, 1060.6, 331.2)">a</text><text xml:space="preserve" font-family="OpenSans,Open Sans" font-size="39.0" fill="#525252" transform="matrix(1.00, 0.00, -0.00, -1.00, 1082.3, 331.2)">t</text><text xml:space="preserve" font-family="OpenSans,Open Sans" font-size="39.0" fill="#525252" transform="matrix(1.00, 0.00, -0.00, -1.00, 1096.1, 331.2)">i</text><text xml:space="preserve" font-family="OpenSans,Open Sans" font-size="39.0" fill="#525252" transform="matrix(1.00, 0.00, -0.00, -1.00, 1106.0, 331.2)">o</text><text xml:space="preserve" font-family="OpenSans,Open Sans" font-size="39.0" fill="#525252" transform="matrix(1.00, 0.00, -0.00, -1.00, 1129.5, 331.2)">n</text><text xml:space="preserve" font-family="OpenSans,Open Sans" font-size="39.0" fill="#525252" transform="matrix(1.00, 0.00, -0.00, -1.00, 1153.4, 331.2)">s</text><text xml:space="preserve" font-family="OpenSans,Open Sans" font-size="39.0" fill="#525252" transform="matrix(1.00, 0.00, -0.00, -1.00, 1172.0, 331.2)">,</text><text xml:space="preserve" font-family="OpenSans,Open Sans" font-size="39.0" fill="#525252" transform="matrix(1.00, 0.00, -0.00, -1.00, 1181.6, 331.2)"> </text><text xml:space="preserve" font-family="OpenSans,Open Sans" font-size="39.0" fill="#525252" transform="matrix(1.00, 0.00, -0.00, -1.00, 1191.8, 331.2)">M</text><text xml:space="preserve" font-family="OpenSans,Open Sans" font-size="39.0" fill="#525252" transform="matrix(1.00, 0.00, -0.00, -1.00, 1227.0, 331.2)">a</text><text xml:space="preserve" font-family="OpenSans,Open Sans" font-size="39.0" fill="#525252" transform="matrix(1.00, 0.00, -0.00, -1.00, 1248.7, 331.2)">i</text><text xml:space="preserve" font-family="OpenSans,Open Sans" font-size="39.0" fill="#525252" transform="matrix(1.00, 0.00, -0.00, -1.00, 1258.5, 331.2)">d</text><text xml:space="preserve" font-family="OpenSans,Open Sans" font-size="39.0" fill="#525252" transform="matrix(1.00, 0.00, -0.00, -1.00, 1282.4, 331.2)">S</text><text xml:space="preserve" font-family="OpenSans,Open Sans" font-size="39.0" fill="#525252" transform="matrix(1.00, 0.00, -0.00, -1.00, 1303.8, 331.2)">a</text><text xml:space="preserve" font-family="OpenSans,Open Sans" font-size="39.0" fill="#525252" transform="matrix(1.00, 0.00, -0.00, -1.00, 1325.5, 331.2)">f</text><text xml:space="preserve" font-family="OpenSans,Open Sans" font-size="39.0" fill="#525252" transform="matrix(1.00, 0.00, -0.00, -1.00, 1338.7, 331.2)">e</text><text xml:space="preserve" font-family="OpenSans,Open Sans" font-size="39.0" fill="#525252" transform="matrix(1.00, 0.00, -0.00, -1.00, 1360.6, 331.2)"> </text><text xml:space="preserve" font-family="OpenSans,Open Sans" font-size="39.0" fill="#525252" transform="matrix(1.00, 0.00, -0.00, -1.00, 683.3, 278.2)">C</text><text xml:space="preserve" font-family="OpenSans,Open Sans" font-size="39.0" fill="#525252" transform="matrix(1.00, 0.00, -0.00, -1.00, 707.1, 278.2)">C</text><text xml:space="preserve" font-family="OpenSans,Open Sans" font-size="39.0" fill="#525252" transform="matrix(1.00, 0.00, -0.00, -1.00, 730.9, 278.2)">C</text><text xml:space="preserve" font-family="OpenSans,Open Sans" font-size="39.0" fill="#525252" transform="matrix(1.00, 0.00, -0.00, -1.00, 755.5, 278.2)">a</text><text xml:space="preserve" font-family="OpenSans,Open Sans" font-size="39.0" fill="#525252" transform="matrix(1.00, 0.00, -0.00, -1.00, 777.2, 278.2)">m</text><text xml:space="preserve" font-family="OpenSans,Open Sans" font-size="39.0" fill="#525252" transform="matrix(1.00, 0.00, -0.00, -1.00, 813.5, 278.2)">p</text><text xml:space="preserve" font-family="OpenSans,Open Sans" font-size="39.0" fill="#525252" transform="matrix(1.00, 0.00, -0.00, -1.00, 837.4, 278.2)"> </text><text xml:space="preserve" font-family="OpenSans,Open Sans" font-size="39.0" fill="#525252" transform="matrix(1.00, 0.00, -0.00, -1.00, 847.5, 278.2)">2</text><text xml:space="preserve" font-family="OpenSans,Open Sans" font-size="39.0" fill="#525252" transform="matrix(1.00, 0.00, -0.00, -1.00, 869.8, 278.2)">0</text><text xml:space="preserve" font-family="OpenSans,Open Sans" font-size="39.0" fill="#525252" transform="matrix(1.00, 0.00, -0.00, -1.00, 892.1, 278.2)">1</text><text xml:space="preserve" font-family="OpenSans,Open Sans" font-size="39.0" fill="#525252" transform="matrix(1.00, 0.00, -0.00, -1.00, 914.4, 278.2)">5</text><text xml:space="preserve" font-family="OpenSans,Open Sans" font-size="39.0" fill="#525252" transform="matrix(1.00, 0.00, -0.00, -1.00, 936.7, 278.2)">,</text><text xml:space="preserve" font-family="OpenSans,Open Sans" font-size="39.0" fill="#525252" transform="matrix(1.00, 0.00, -0.00, -1.00, 946.2, 278.2)"> </text><text xml:space="preserve" font-family="OpenSans,Open Sans" font-size="39.0" fill="#525252" transform="matrix(1.00, 0.00, -0.00, -1.00, 956.3, 278.2)">1</text><text xml:space="preserve" font-family="OpenSans,Open Sans" font-size="39.0" fill="#525252" transform="matrix(1.00, 0.00, -0.00, -1.00, 978.6, 278.2)">6</text><text xml:space="preserve" font-family="OpenSans,Open Sans" font-size="39.0" fill="#525252" transform="matrix(1.00, 0.00, -0.00, -1.00, 1000.9, 278.2)"> </text><text xml:space="preserve" font-family="OpenSans,Open Sans" font-size="39.0" fill="#525252" transform="matrix(1.00, 0.00, -0.00, -1.00, 1011.0, 278.2)">A</text><text xml:space="preserve" font-family="OpenSans,Open Sans" font-size="39.0" fill="#525252" transform="matrix(1.00, 0.00, -0.00, -1.00, 1035.7, 278.2)">u</text><text xml:space="preserve" font-family="OpenSans,Open Sans" font-size="39.0" fill="#525252" transform="matrix(1.00, 0.00, -0.00, -1.00, 1059.6, 278.2)">g</text><text xml:space="preserve" font-family="OpenSans,Open Sans" font-size="39.0" fill="#525252" transform="matrix(1.00, 0.00, -0.00, -1.00, 1081.0, 278.2)">u</text><text xml:space="preserve" font-family="OpenSans,Open Sans" font-size="39.0" fill="#525252" transform="matrix(1.00, 0.00, -0.00, -1.00, 1104.9, 278.2)">s</text><text xml:space="preserve" font-family="OpenSans,Open Sans" font-size="39.0" fill="#525252" transform="matrix(1.00, 0.00, -0.00, -1.00, 1123.5, 278.2)">t</text><text xml:space="preserve" font-family="OpenSans,Open Sans" font-size="39.0" fill="#525252" transform="matrix(1.00, 0.00, -0.00, -1.00, 1137.3, 278.2)"> </text><text xml:space="preserve" font-family="OpenSans,Open Sans" font-size="39.0" fill="#525252" transform="matrix(1.00, 0.00, -0.00, -1.00, 1147.4, 278.2)">2</text><text xml:space="preserve" font-family="OpenSans,Open Sans" font-size="39.0" fill="#525252" transform="matrix(1.00, 0.00, -0.00, -1.00, 1169.7, 278.2)">0</text><text xml:space="preserve" font-family="OpenSans,Open Sans" font-size="39.0" fill="#525252" transform="matrix(1.00, 0.00, -0.00, -1.00, 1192.0, 278.2)">1</text><text xml:space="preserve" font-family="OpenSans,Open Sans" font-size="39.0" fill="#525252" transform="matrix(1.00, 0.00, -0.00, -1.00, 1214.4, 278.2)">5</text><text xml:space="preserve" font-family="OpenSans-Bold,Open Sans" font-weight="bold" font-size="200.0" fill="#51A3E5" transform="matrix(1.00, 0.00, -0.00, -1.00, 498.2, 634.1)">M</text><text xml:space="preserve" font-family="OpenSans-Bold,Open Sans" font-weight="bold" font-size="200.0" fill="#51A3E5" transform="matrix(1.00, 0.00, -0.00, -1.00, 686.8, 634.1)">a</text><text xml:space="preserve" font-family="OpenSans-Bold,Open Sans" font-weight="bold" font-size="200.0" fill="#51A3E5" transform="matrix(1.00, 0.00, -0.00, -1.00, 807.6, 634.1)">i</text><text xml:space="preserve" font-family="OpenSans-Bold,Open Sans" font-weight="bold" font-size="200.0" fill="#51A3E5" transform="matrix(1.00, 0.00, -0.00, -1.00, 868.7, 634.1)">d</text><text xml:space="preserve" font-family="OpenSans-Bold,Open Sans" font-weight="bold" font-size="200.0" fill="#51A3E5" transform="matrix(1.00, 0.00, -0.00, -1.00, 995.2, 634.1)">S</text><text xml:space="preserve" font-family="OpenSans-Bold,Open Sans" font-weight="bold" font-size="200.0" fill="#51A3E5" transform="matrix(1.00, 0.00, -0.00, -1.00, 1105.3, 634.1)">a</text><text xml:space="preserve" font-family="OpenSans-Bold,Open Sans" font-weight="bold" font-size="200.0" fill="#51A3E5" transform="matrix(1.00, 0.00, -0.00, -1.00, 1226.1, 634.1)">f</text><text xml:space="preserve" font-family="OpenSans-Bold,Open Sans" font-weight="bold" font-size="200.0" fill="#51A3E5" transform="matrix(1.00, 0.00, -0.00, -1.00, 1303.6, 634.1)">e</text></g></svg>