<?xml version="1.0" encoding="UTF-8" standalone="no"?><svg xmlns="http://www.w3.org/2000/svg" xmlns:xlink="http://www.w3.org/1999/xlink" clip-rule="evenodd" stroke-miterlimit="10" viewBox="0 0 1087 44"><desc>SVG generated by Keynote</desc><defs></defs><g transform="matrix(1.00, 0.00, -0.00, -1.00, 0.0, 44.0)"><text xml:space="preserve" font-family="OpenSans,Open Sans" font-size="40.0" fill="#525252" transform="matrix(1.00, 0.00, -0.00, -1.00, -1.3, 11.5)">M</text><text xml:space="preserve" font-family="OpenSans,Open Sans" font-size="40.0" fill="#525252" transform="matrix(1.00, 0.00, -0.00, -1.00, 34.8, 11.5)">a</text><text xml:space="preserve" font-family="OpenSans,Open Sans" font-size="40.0" fill="#525252" transform="matrix(1.00, 0.00, -0.00, -1.00, 57.1, 11.5)">s</text><text xml:space="preserve" font-family="OpenSans,Open Sans" font-size="40.0" fill="#525252" transform="matrix(1.00, 0.00, -0.00, -1.00, 76.2, 11.5)">s</text><text xml:space="preserve" font-family="OpenSans,Open Sans" font-size="40.0" fill="#525252" transform="matrix(1.00, 0.00, -0.00, -1.00, 95.3, 11.5)">i</text><text xml:space="preserve" font-family="OpenSans,Open Sans" font-size="40.0" fill="#525252" transform="matrix(1.00, 0.00, -0.00, -1.00, 105.4, 11.5)">v</text><text xml:space="preserve" font-family="OpenSans,Open Sans" font-size="40.0" fill="#525252" transform="matrix(1.00, 0.00, -0.00, -1.00, 125.4, 11.5)">e</text><text xml:space="preserve" font-family="OpenSans,Open Sans" font-size="40.0" fill="#525252" transform="matrix(1.00, 0.00, -0.00, -1.00, 147.8, 11.5)"> </text><text xml:space="preserve" font-family="OpenSans,Open Sans" font-size="40.0" fill="#525252" transform="matrix(1.00, 0.00, -0.00, -1.00, 158.2, 11.5)">a</text><text xml:space="preserve" font-family="OpenSans,Open Sans" font-size="40.0" fill="#525252" transform="matrix(1.00, 0.00, -0.00, -1.00, 180.5, 11.5)">r</text><text xml:space="preserve" font-family="OpenSans,Open Sans" font-size="40.0" fill="#525252" transform="matrix(1.00, 0.00, -0.00, -1.00, 196.8, 11.5)">r</text><text xml:space="preserve" font-family="OpenSans,Open Sans" font-size="40.0" fill="#525252" transform="matrix(1.00, 0.00, -0.00, -1.00, 212.4, 11.5)">a</text><text xml:space="preserve" font-family="OpenSans,Open Sans" font-size="40.0" fill="#525252" transform="matrix(1.00, 0.00, -0.00, -1.00, 234.6, 11.5)">y</text><text xml:space="preserve" font-family="OpenSans,Open Sans" font-size="40.0" fill="#525252" transform="matrix(1.00, 0.00, -0.00, -1.00, 254.8, 11.5)"> </text><text xml:space="preserve" font-family="OpenSans,Open Sans" font-size="40.0" fill="#525252" transform="matrix(1.00, 0.00, -0.00, -1.00, 265.1, 11.5)">o</text><text xml:space="preserve" font-family="OpenSans,Open Sans" font-size="40.0" fill="#525252" transform="matrix(1.00, 0.00, -0.00, -1.00, 289.3, 11.5)">f</text><text xml:space="preserve" font-family="OpenSans,Open Sans" font-size="40.0" fill="#525252" transform="matrix(1.00, 0.00, -0.00, -1.00, 302.9, 11.5)"> </text><text xml:space="preserve" font-family="OpenSans,Open Sans" font-size="40.0" fill="#525252" transform="matrix(1.00, 0.00, -0.00, -1.00, 313.2, 11.5)">i</text><text xml:space="preserve" font-family="OpenSans,Open Sans" font-size="40.0" fill="#525252" transform="matrix(1.00, 0.00, -0.00, -1.00, 323.4, 11.5)">n</text><text xml:space="preserve" font-family="OpenSans,Open Sans" font-size="40.0" fill="#525252" transform="matrix(1.00, 0.00, -0.00, -1.00, 347.9, 11.5)">t</text><text xml:space="preserve" font-family="OpenSans,Open Sans" font-size="40.0" fill="#525252" transform="matrix(1.00, 0.00, -0.00, -1.00, 362.0, 11.5)">e</text><text xml:space="preserve" font-family="OpenSans,Open Sans" font-size="40.0" fill="#525252" transform="matrix(1.00, 0.00, -0.00, -1.00, 384.5, 11.5)">r</text><text xml:space="preserve" font-family="OpenSans,Open Sans" font-size="40.0" fill="#525252" transform="matrix(1.00, 0.00, -0.00, -1.00, 400.8, 11.5)">n</text><text xml:space="preserve" font-family="OpenSans,Open Sans" font-size="40.0" fill="#525252" transform="matrix(1.00, 0.00, -0.00, -1.00, 425.3, 11.5)">e</text><text xml:space="preserve" font-family="OpenSans,Open Sans" font-size="40.0" fill="#525252" transform="matrix(1.00, 0.00, -0.00, -1.00, 447.8, 11.5)">t</text><text xml:space="preserve" font-family="OpenSans,Open Sans" font-size="40.0" fill="#525252" transform="matrix(1.00, 0.00, -0.00, -1.00, 461.9, 11.5)"> </text><text xml:space="preserve" font-family="OpenSans,Open Sans" font-size="40.0" fill="#525252" transform="matrix(1.00, 0.00, -0.00, -1.00, 472.3, 11.5)">d</text><text xml:space="preserve" font-family="OpenSans,Open Sans" font-size="40.0" fill="#525252" transform="matrix(1.00, 0.00, -0.00, -1.00, 496.8, 11.5)">i</text><text xml:space="preserve" font-family="OpenSans,Open Sans" font-size="40.0" fill="#525252" transform="matrix(1.00, 0.00, -0.00, -1.00, 506.9, 11.5)">s</text><text xml:space="preserve" font-family="OpenSans,Open Sans" font-size="40.0" fill="#525252" transform="matrix(1.00, 0.00, -0.00, -1.00, 526.0, 11.5)">k</text><text xml:space="preserve" font-family="OpenSans,Open Sans" font-size="40.0" fill="#525252" transform="matrix(1.00, 0.00, -0.00, -1.00, 547.0, 11.5)">s</text><text xml:space="preserve" font-family="OpenSans,Open Sans" font-size="40.0" fill="#525252" transform="matrix(1.00, 0.00, -0.00, -1.00, 566.1, 11.5)">,</text><text xml:space="preserve" font-family="OpenSans,Open Sans" font-size="40.0" fill="#525252" transform="matrix(1.00, 0.00, -0.00, -1.00, 575.9, 11.5)"> </text><text xml:space="preserve" font-family="OpenSans,Open Sans" font-size="40.0" fill="#525252" transform="matrix(1.00, 0.00, -0.00, -1.00, 586.3, 11.5)">s</text><text xml:space="preserve" font-family="OpenSans,Open Sans" font-size="40.0" fill="#525252" transform="matrix(1.00, 0.00, -0.00, -1.00, 605.3, 11.5)">e</text><text xml:space="preserve" font-family="OpenSans,Open Sans" font-size="40.0" fill="#525252" transform="matrix(1.00, 0.00, -0.00, -1.00, 627.8, 11.5)">c</text><text xml:space="preserve" font-family="OpenSans,Open Sans" font-size="40.0" fill="#525252" transform="matrix(1.00, 0.00, -0.00, -1.00, 646.8, 11.5)">u</text><text xml:space="preserve" font-family="OpenSans,Open Sans" font-size="40.0" fill="#525252" transform="matrix(1.00, 0.00, -0.00, -1.00, 671.4, 11.5)">r</text><text xml:space="preserve" font-family="OpenSans,Open Sans" font-size="40.0" fill="#525252" transform="matrix(1.00, 0.00, -0.00, -1.00, 686.9, 11.5)">e</text><text xml:space="preserve" font-family="OpenSans,Open Sans" font-size="40.0" fill="#525252" transform="matrix(1.00, 0.00, -0.00, -1.00, 709.3, 11.5)"> </text><text xml:space="preserve" font-family="OpenSans,Open Sans" font-size="40.0" fill="#525252" transform="matrix(1.00, 0.00, -0.00, -1.00, 719.7, 11.5)">a</text><text xml:space="preserve" font-family="OpenSans,Open Sans" font-size="40.0" fill="#525252" transform="matrix(1.00, 0.00, -0.00, -1.00, 742.0, 11.5)">c</text><text xml:space="preserve" font-family="OpenSans,Open Sans" font-size="40.0" fill="#525252" transform="matrix(1.00, 0.00, -0.00, -1.00, 761.0, 11.5)">c</text><text xml:space="preserve" font-family="OpenSans,Open Sans" font-size="40.0" fill="#525252" transform="matrix(1.00, 0.00, -0.00, -1.00, 780.1, 11.5)">e</text><text xml:space="preserve" font-family="OpenSans,Open Sans" font-size="40.0" fill="#525252" transform="matrix(1.00, 0.00, -0.00, -1.00, 802.5, 11.5)">s</text><text xml:space="preserve" font-family="OpenSans,Open Sans" font-size="40.0" fill="#525252" transform="matrix(1.00, 0.00, -0.00, -1.00, 821.6, 11.5)">s</text><text xml:space="preserve" font-family="OpenSans,Open Sans" font-size="40.0" fill="#525252" transform="matrix(1.00, 0.00, -0.00, -1.00, 840.7, 11.5)"> </text><text xml:space="preserve" font-family="OpenSans,Open Sans" font-size="40.0" fill="#525252" transform="matrix(1.00, 0.00, -0.00, -1.00, 851.1, 11.5)">f</text><text xml:space="preserve" font-family="OpenSans,Open Sans" font-size="40.0" fill="#525252" transform="matrix(1.00, 0.00, -0.00, -1.00, 864.6, 11.5)">o</text><text xml:space="preserve" font-family="OpenSans,Open Sans" font-size="40.0" fill="#525252" transform="matrix(1.00, 0.00, -0.00, -1.00, 888.8, 11.5)">r</text><text xml:space="preserve" font-family="OpenSans,Open Sans" font-size="40.0" fill="#525252" transform="matrix(1.00, 0.00, -0.00, -1.00, 905.1, 11.5)"> </text><text xml:space="preserve" font-family="OpenSans,Open Sans" font-size="40.0" fill="#525252" transform="matrix(1.00, 0.00, -0.00, -1.00, 915.5, 11.5)">e</text><text xml:space="preserve" font-family="OpenSans,Open Sans" font-size="40.0" fill="#525252" transform="matrix(1.00, 0.00, -0.00, -1.00, 937.1, 11.5)">v</text><text xml:space="preserve" font-family="OpenSans,Open Sans" font-size="40.0" fill="#525252" transform="matrix(1.00, 0.00, -0.00, -1.00, 957.2, 11.5)">e</text><text xml:space="preserve" font-family="OpenSans,Open Sans" font-size="40.0" fill="#525252" transform="matrix(1.00, 0.00, -0.00, -1.00, 979.6, 11.5)">r</text><text xml:space="preserve" font-family="OpenSans,Open Sans" font-size="40.0" fill="#525252" transform="matrix(1.00, 0.00, -0.00, -1.00, 996.0, 11.5)">y</text><text xml:space="preserve" font-family="OpenSans,Open Sans" font-size="40.0" fill="#525252" transform="matrix(1.00, 0.00, -0.00, -1.00, 1016.1, 11.5)">o</text><text xml:space="preserve" font-family="OpenSans,Open Sans" font-size="40.0" fill="#525252" transform="matrix(1.00, 0.00, -0.00, -1.00, 1040.3, 11.5)">n</text><text xml:space="preserve" font-family="OpenSans,Open Sans" font-size="40.0" fill="#525252" transform="matrix(1.00, 0.00, -0.00, -1.00, 1064.8, 11.5)">e</text></g></svg>