<?xml version="1.0" encoding="UTF-8" standalone="no"?><svg xmlns="http://www.w3.org/2000/svg" xmlns:xlink="http://www.w3.org/1999/xlink" clip-rule="evenodd" stroke-miterlimit="10" viewBox="0 0 772 44"><desc>SVG generated by Keynote</desc><defs></defs><g transform="matrix(1.00, 0.00, -0.00, -1.00, 0.0, 44.0)"><text xml:space="preserve" font-family="OpenSans-Light,Open Sans" font-size="40.0" fill="#525252" transform="matrix(1.00, 0.00, -0.00, -1.00, 0.4, 11.3)">s</text><text xml:space="preserve" font-family="OpenSans-Light,Open Sans" font-size="40.0" fill="#525252" transform="matrix(1.00, 0.00, -0.00, -1.00, 19.0, 11.3)">e</text><text xml:space="preserve" font-family="OpenSans-Light,Open Sans" font-size="40.0" fill="#525252" transform="matrix(1.00, 0.00, -0.00, -1.00, 40.9, 11.3)">l</text><text xml:space="preserve" font-family="OpenSans-Light,Open Sans" font-size="40.0" fill="#525252" transform="matrix(1.00, 0.00, -0.00, -1.00, 50.0, 11.3)">f</text><text xml:space="preserve" font-family="OpenSans-Light,Open Sans" font-size="40.0" fill="#525252" transform="matrix(1.00, 0.00, -0.00, -1.00, 62.0, 11.3)">-</text><text xml:space="preserve" font-family="OpenSans-Light,Open Sans" font-size="40.0" fill="#525252" transform="matrix(1.00, 0.00, -0.00, -1.00, 74.8, 11.3)">e</text><text xml:space="preserve" font-family="OpenSans-Light,Open Sans" font-size="40.0" fill="#525252" transform="matrix(1.00, 0.00, -0.00, -1.00, 96.8, 11.3)">n</text><text xml:space="preserve" font-family="OpenSans-Light,Open Sans" font-size="40.0" fill="#525252" transform="matrix(1.00, 0.00, -0.00, -1.00, 120.4, 11.3)">c</text><text xml:space="preserve" font-family="OpenSans-Light,Open Sans" font-size="40.0" fill="#525252" transform="matrix(1.00, 0.00, -0.00, -1.00, 139.4, 11.3)">r</text><text xml:space="preserve" font-family="OpenSans-Light,Open Sans" font-size="40.0" fill="#525252" transform="matrix(1.00, 0.00, -0.00, -1.00, 154.9, 11.3)">y</text><text xml:space="preserve" font-family="OpenSans-Light,Open Sans" font-size="40.0" fill="#525252" transform="matrix(1.00, 0.00, -0.00, -1.00, 173.3, 11.3)">p</text><text xml:space="preserve" font-family="OpenSans-Light,Open Sans" font-size="40.0" fill="#525252" transform="matrix(1.00, 0.00, -0.00, -1.00, 197.1, 11.3)">t</text><text xml:space="preserve" font-family="OpenSans-Light,Open Sans" font-size="40.0" fill="#525252" transform="matrix(1.00, 0.00, -0.00, -1.00, 210.5, 11.3)">i</text><text xml:space="preserve" font-family="OpenSans-Light,Open Sans" font-size="40.0" fill="#525252" transform="matrix(1.00, 0.00, -0.00, -1.00, 219.6, 11.3)">o</text><text xml:space="preserve" font-family="OpenSans-Light,Open Sans" font-size="40.0" fill="#525252" transform="matrix(1.00, 0.00, -0.00, -1.00, 243.0, 11.3)">n</text><text xml:space="preserve" font-family="OpenSans-Light,Open Sans" font-size="40.0" fill="#525252" transform="matrix(1.00, 0.00, -0.00, -1.00, 266.6, 11.3)">,</text><text xml:space="preserve" font-family="OpenSans-Light,Open Sans" font-size="40.0" fill="#525252" transform="matrix(1.00, 0.00, -0.00, -1.00, 275.2, 11.3)"> </text><text xml:space="preserve" font-family="OpenSans-Light,Open Sans" font-size="40.0" fill="#525252" transform="matrix(1.00, 0.00, -0.00, -1.00, 285.6, 11.3)">s</text><text xml:space="preserve" font-family="OpenSans-Light,Open Sans" font-size="40.0" fill="#525252" transform="matrix(1.00, 0.00, -0.00, -1.00, 304.2, 11.3)">e</text><text xml:space="preserve" font-family="OpenSans-Light,Open Sans" font-size="40.0" fill="#525252" transform="matrix(1.00, 0.00, -0.00, -1.00, 326.1, 11.3)">l</text><text xml:space="preserve" font-family="OpenSans-Light,Open Sans" font-size="40.0" fill="#525252" transform="matrix(1.00, 0.00, -0.00, -1.00, 335.2, 11.3)">f</text><text xml:space="preserve" font-family="OpenSans-Light,Open Sans" font-size="40.0" fill="#525252" transform="matrix(1.00, 0.00, -0.00, -1.00, 347.2, 11.3)">-</text><text xml:space="preserve" font-family="OpenSans-Light,Open Sans" font-size="40.0" fill="#525252" transform="matrix(1.00, 0.00, -0.00, -1.00, 360.0, 11.3)">a</text><text xml:space="preserve" font-family="OpenSans-Light,Open Sans" font-size="40.0" fill="#525252" transform="matrix(1.00, 0.00, -0.00, -1.00, 381.2, 11.3)">u</text><text xml:space="preserve" font-family="OpenSans-Light,Open Sans" font-size="40.0" fill="#525252" transform="matrix(1.00, 0.00, -0.00, -1.00, 404.8, 11.3)">t</text><text xml:space="preserve" font-family="OpenSans-Light,Open Sans" font-size="40.0" fill="#525252" transform="matrix(1.00, 0.00, -0.00, -1.00, 418.2, 11.3)">h</text><text xml:space="preserve" font-family="OpenSans-Light,Open Sans" font-size="40.0" fill="#525252" transform="matrix(1.00, 0.00, -0.00, -1.00, 441.8, 11.3)">e</text><text xml:space="preserve" font-family="OpenSans-Light,Open Sans" font-size="40.0" fill="#525252" transform="matrix(1.00, 0.00, -0.00, -1.00, 463.7, 11.3)">n</text><text xml:space="preserve" font-family="OpenSans-Light,Open Sans" font-size="40.0" fill="#525252" transform="matrix(1.00, 0.00, -0.00, -1.00, 487.3, 11.3)">t</text><text xml:space="preserve" font-family="OpenSans-Light,Open Sans" font-size="40.0" fill="#525252" transform="matrix(1.00, 0.00, -0.00, -1.00, 500.7, 11.3)">i</text><text xml:space="preserve" font-family="OpenSans-Light,Open Sans" font-size="40.0" fill="#525252" transform="matrix(1.00, 0.00, -0.00, -1.00, 509.7, 11.3)">c</text><text xml:space="preserve" font-family="OpenSans-Light,Open Sans" font-size="40.0" fill="#525252" transform="matrix(1.00, 0.00, -0.00, -1.00, 528.8, 11.3)">a</text><text xml:space="preserve" font-family="OpenSans-Light,Open Sans" font-size="40.0" fill="#525252" transform="matrix(1.00, 0.00, -0.00, -1.00, 549.9, 11.3)">t</text><text xml:space="preserve" font-family="OpenSans-Light,Open Sans" font-size="40.0" fill="#525252" transform="matrix(1.00, 0.00, -0.00, -1.00, 563.3, 11.3)">i</text><text xml:space="preserve" font-family="OpenSans-Light,Open Sans" font-size="40.0" fill="#525252" transform="matrix(1.00, 0.00, -0.00, -1.00, 572.4, 11.3)">o</text><text xml:space="preserve" font-family="OpenSans-Light,Open Sans" font-size="40.0" fill="#525252" transform="matrix(1.00, 0.00, -0.00, -1.00, 595.8, 11.3)">n</text><text xml:space="preserve" font-family="OpenSans-Light,Open Sans" font-size="40.0" fill="#525252" transform="matrix(1.00, 0.00, -0.00, -1.00, 619.4, 11.3)"> </text><text xml:space="preserve" font-family="OpenSans-Light,Open Sans" font-size="40.0" fill="#525252" transform="matrix(1.00, 0.00, -0.00, -1.00, 629.8, 11.3)">s</text><text xml:space="preserve" font-family="OpenSans-Light,Open Sans" font-size="40.0" fill="#525252" transform="matrix(1.00, 0.00, -0.00, -1.00, 648.4, 11.3)">e</text><text xml:space="preserve" font-family="OpenSans-Light,Open Sans" font-size="40.0" fill="#525252" transform="matrix(1.00, 0.00, -0.00, -1.00, 670.4, 11.3)">c</text><text xml:space="preserve" font-family="OpenSans-Light,Open Sans" font-size="40.0" fill="#525252" transform="matrix(1.00, 0.00, -0.00, -1.00, 689.4, 11.3)">u</text><text xml:space="preserve" font-family="OpenSans-Light,Open Sans" font-size="40.0" fill="#525252" transform="matrix(1.00, 0.00, -0.00, -1.00, 713.0, 11.3)">r</text><text xml:space="preserve" font-family="OpenSans-Light,Open Sans" font-size="40.0" fill="#525252" transform="matrix(1.00, 0.00, -0.00, -1.00, 727.7, 11.3)">e</text><text xml:space="preserve" font-family="OpenSans-Light,Open Sans" font-size="40.0" fill="#525252" transform="matrix(1.00, 0.00, -0.00, -1.00, 749.7, 11.3)">d</text></g></svg>