<?xml version="1.0" encoding="UTF-8" standalone="no"?><svg xmlns="http://www.w3.org/2000/svg" xmlns:xlink="http://www.w3.org/1999/xlink" clip-rule="evenodd" stroke-miterlimit="10" viewBox="0 0 154 171"><desc>SVG generated by Keynote</desc><defs></defs><g transform="matrix(1.00, 0.00, -0.00, -1.00, 0.0, 171.0)"><g><clipPath id="clip0x600005cacd80"><path d="M 2.0 169.0 L 151.8 169.0 L 151.8 2.0 L 2.0 2.0 Z M 2.0 169.0 "></path></clipPath><g clip-path="url(#clip0x600005cacd80)"><g><clipPath id="clip0x600005cacba0"><path d="M 2.0 2.0 L 152.0 2.0 L 152.0 169.0 L 2.0 169.0 Z M 2.0 2.0 "></path></clipPath><g clip-path="url(#clip0x600005cacba0)"><path d="M 122.5 113.7 L 122.5 2.0 L 28.1 56.3 L 28.1 56.3 C 0.1 72.6 2.2 82.6 2.0 105.1 L 99.1 49.3 L 99.1 100.2 L 122.5 113.7 " fill="#96B4D4"></path><path d="M 99.1 49.2 L 2.0 105.1 L 96.4 159.4 L 96.4 159.4 C 124.5 175.5 132.2 168.7 151.8 157.6 L 54.8 101.7 L 99.1 76.2 L 99.1 49.2 " fill="#5585B8"></path></g></g></g></g><g><clipPath id="clip0x6080118b22a0"><path d="M 2.0 2.0 L 152.0 2.0 L 152.0 169.0 L 2.0 169.0 Z M 2.0 2.0 "></path></clipPath><g clip-path="url(#clip0x6080118b22a0)"><path d="M 54.8 101.7 L 151.8 157.6 L 151.8 49.0 L 151.8 49.0 C 151.7 16.6 142.0 13.4 122.5 2.0 L 122.5 113.7 L 78.2 88.2 L 54.8 101.7 " fill="#2C4F79"></path></g></g></g></svg>