<?xml version="1.0" encoding="UTF-8" standalone="no"?><svg xmlns="http://www.w3.org/2000/svg" xmlns:xlink="http://www.w3.org/1999/xlink" clip-rule="evenodd" stroke-miterlimit="10" viewBox="0 0 1111 154"><desc>SVG generated by Keynote</desc><defs></defs><g transform="matrix(1.00, 0.00, -0.00, -1.00, 0.0, 154.0)"><text xml:space="preserve" font-family="OpenSans-Light,Open Sans" font-size="40.0" fill="#525252" transform="matrix(1.00, 0.00, -0.00, -1.00, 2.6, 121.3)">T</text><text xml:space="preserve" font-family="OpenSans-Light,Open Sans" font-size="40.0" fill="#525252" transform="matrix(1.00, 0.00, -0.00, -1.00, 23.5, 121.3)">h</text><text xml:space="preserve" font-family="OpenSans-Light,Open Sans" font-size="40.0" fill="#525252" transform="matrix(1.00, 0.00, -0.00, -1.00, 47.1, 121.3)">e</text><text xml:space="preserve" font-family="OpenSans-Light,Open Sans" font-size="40.0" fill="#525252" transform="matrix(1.00, 0.00, -0.00, -1.00, 69.1, 121.3)"> </text><text xml:space="preserve" font-family="OpenSans-Light,Open Sans" font-size="40.0" fill="#525252" transform="matrix(1.00, 0.00, -0.00, -1.00, 79.4, 121.3)">S</text><text xml:space="preserve" font-family="OpenSans-Light,Open Sans" font-size="40.0" fill="#525252" transform="matrix(1.00, 0.00, -0.00, -1.00, 101.2, 121.3)">A</text><text xml:space="preserve" font-family="OpenSans-Light,Open Sans" font-size="40.0" fill="#525252" transform="matrix(1.00, 0.00, -0.00, -1.00, 125.2, 121.3)">F</text><text xml:space="preserve" font-family="OpenSans-Light,Open Sans" font-size="40.0" fill="#525252" transform="matrix(1.00, 0.00, -0.00, -1.00, 145.3, 121.3)">E</text><text xml:space="preserve" font-family="OpenSans-Light,Open Sans" font-size="40.0" fill="#525252" transform="matrix(1.00, 0.00, -0.00, -1.00, 167.4, 121.3)"> </text><text xml:space="preserve" font-family="OpenSans-Light,Open Sans" font-size="40.0" fill="#525252" transform="matrix(1.00, 0.00, -0.00, -1.00, 177.8, 121.3)">N</text><text xml:space="preserve" font-family="OpenSans-Light,Open Sans" font-size="40.0" fill="#525252" transform="matrix(1.00, 0.00, -0.00, -1.00, 206.6, 121.3)">e</text><text xml:space="preserve" font-family="OpenSans-Light,Open Sans" font-size="40.0" fill="#525252" transform="matrix(1.00, 0.00, -0.00, -1.00, 228.6, 121.3)">t</text><text xml:space="preserve" font-family="OpenSans-Light,Open Sans" font-size="40.0" fill="#525252" transform="matrix(1.00, 0.00, -0.00, -1.00, 242.0, 121.3)">w</text><text xml:space="preserve" font-family="OpenSans-Light,Open Sans" font-size="40.0" fill="#525252" transform="matrix(1.00, 0.00, -0.00, -1.00, 270.9, 121.3)">o</text><text xml:space="preserve" font-family="OpenSans-Light,Open Sans" font-size="40.0" fill="#525252" transform="matrix(1.00, 0.00, -0.00, -1.00, 294.3, 121.3)">r</text><text xml:space="preserve" font-family="OpenSans-Light,Open Sans" font-size="40.0" fill="#525252" transform="matrix(1.00, 0.00, -0.00, -1.00, 309.9, 121.3)">k</text><text xml:space="preserve" font-family="OpenSans-Light,Open Sans" font-size="40.0" fill="#525252" transform="matrix(1.00, 0.00, -0.00, -1.00, 329.3, 121.3)"> </text><text xml:space="preserve" font-family="OpenSans-Light,Open Sans" font-size="40.0" fill="#525252" transform="matrix(1.00, 0.00, -0.00, -1.00, 339.6, 121.3)">i</text><text xml:space="preserve" font-family="OpenSans-Light,Open Sans" font-size="40.0" fill="#525252" transform="matrix(1.00, 0.00, -0.00, -1.00, 348.7, 121.3)">s</text><text xml:space="preserve" font-family="OpenSans-Light,Open Sans" font-size="40.0" fill="#525252" transform="matrix(1.00, 0.00, -0.00, -1.00, 367.3, 121.3)"> </text><text xml:space="preserve" font-family="OpenSans-Light,Open Sans" font-size="40.0" fill="#525252" transform="matrix(1.00, 0.00, -0.00, -1.00, 377.7, 121.3)">a</text><text xml:space="preserve" font-family="OpenSans-Light,Open Sans" font-size="40.0" fill="#525252" transform="matrix(1.00, 0.00, -0.00, -1.00, 398.9, 121.3)">n</text><text xml:space="preserve" font-family="OpenSans-Light,Open Sans" font-size="40.0" fill="#525252" transform="matrix(1.00, 0.00, -0.00, -1.00, 422.5, 121.3)"> </text><text xml:space="preserve" font-family="OpenSans-Light,Open Sans" font-size="40.0" fill="#525252" transform="matrix(1.00, 0.00, -0.00, -1.00, 432.8, 121.3)">a</text><text xml:space="preserve" font-family="OpenSans-Light,Open Sans" font-size="40.0" fill="#525252" transform="matrix(1.00, 0.00, -0.00, -1.00, 454.0, 121.3)">l</text><text xml:space="preserve" font-family="OpenSans-Light,Open Sans" font-size="40.0" fill="#525252" transform="matrix(1.00, 0.00, -0.00, -1.00, 463.1, 121.3)">t</text><text xml:space="preserve" font-family="OpenSans-Light,Open Sans" font-size="40.0" fill="#525252" transform="matrix(1.00, 0.00, -0.00, -1.00, 476.5, 121.3)">e</text><text xml:space="preserve" font-family="OpenSans-Light,Open Sans" font-size="40.0" fill="#525252" transform="matrix(1.00, 0.00, -0.00, -1.00, 498.4, 121.3)">r</text><text xml:space="preserve" font-family="OpenSans-Light,Open Sans" font-size="40.0" fill="#525252" transform="matrix(1.00, 0.00, -0.00, -1.00, 514.0, 121.3)">n</text><text xml:space="preserve" font-family="OpenSans-Light,Open Sans" font-size="40.0" fill="#525252" transform="matrix(1.00, 0.00, -0.00, -1.00, 537.6, 121.3)">a</text><text xml:space="preserve" font-family="OpenSans-Light,Open Sans" font-size="40.0" fill="#525252" transform="matrix(1.00, 0.00, -0.00, -1.00, 558.8, 121.3)">t</text><text xml:space="preserve" font-family="OpenSans-Light,Open Sans" font-size="40.0" fill="#525252" transform="matrix(1.00, 0.00, -0.00, -1.00, 572.2, 121.3)">i</text><text xml:space="preserve" font-family="OpenSans-Light,Open Sans" font-size="40.0" fill="#525252" transform="matrix(1.00, 0.00, -0.00, -1.00, 581.2, 121.3)">v</text><text xml:space="preserve" font-family="OpenSans-Light,Open Sans" font-size="40.0" fill="#525252" transform="matrix(1.00, 0.00, -0.00, -1.00, 599.6, 121.3)">e</text><text xml:space="preserve" font-family="OpenSans-Light,Open Sans" font-size="40.0" fill="#525252" transform="matrix(1.00, 0.00, -0.00, -1.00, 621.5, 121.3)"> </text><text xml:space="preserve" font-family="OpenSans-Light,Open Sans" font-size="40.0" fill="#525252" transform="matrix(1.00, 0.00, -0.00, -1.00, 631.9, 121.3)">I</text><text xml:space="preserve" font-family="OpenSans-Light,Open Sans" font-size="40.0" fill="#525252" transform="matrix(1.00, 0.00, -0.00, -1.00, 642.0, 121.3)">n</text><text xml:space="preserve" font-family="OpenSans-Light,Open Sans" font-size="40.0" fill="#525252" transform="matrix(1.00, 0.00, -0.00, -1.00, 665.6, 121.3)">t</text><text xml:space="preserve" font-family="OpenSans-Light,Open Sans" font-size="40.0" fill="#525252" transform="matrix(1.00, 0.00, -0.00, -1.00, 679.0, 121.3)">e</text><text xml:space="preserve" font-family="OpenSans-Light,Open Sans" font-size="40.0" fill="#525252" transform="matrix(1.00, 0.00, -0.00, -1.00, 700.9, 121.3)">r</text><text xml:space="preserve" font-family="OpenSans-Light,Open Sans" font-size="40.0" fill="#525252" transform="matrix(1.00, 0.00, -0.00, -1.00, 716.5, 121.3)">n</text><text xml:space="preserve" font-family="OpenSans-Light,Open Sans" font-size="40.0" fill="#525252" transform="matrix(1.00, 0.00, -0.00, -1.00, 740.1, 121.3)">e</text><text xml:space="preserve" font-family="OpenSans-Light,Open Sans" font-size="40.0" fill="#525252" transform="matrix(1.00, 0.00, -0.00, -1.00, 762.0, 121.3)">t</text><text xml:space="preserve" font-family="OpenSans-Light,Open Sans" font-size="40.0" fill="#525252" transform="matrix(1.00, 0.00, -0.00, -1.00, 775.4, 121.3)"> </text><text xml:space="preserve" font-family="OpenSans-Light,Open Sans" font-size="40.0" fill="#525252" transform="matrix(1.00, 0.00, -0.00, -1.00, 785.8, 121.3)">i</text><text xml:space="preserve" font-family="OpenSans-Light,Open Sans" font-size="40.0" fill="#525252" transform="matrix(1.00, 0.00, -0.00, -1.00, 794.8, 121.3)">n</text><text xml:space="preserve" font-family="OpenSans-Light,Open Sans" font-size="40.0" fill="#525252" transform="matrix(1.00, 0.00, -0.00, -1.00, 818.4, 121.3)">f</text><text xml:space="preserve" font-family="OpenSans-Light,Open Sans" font-size="40.0" fill="#525252" transform="matrix(1.00, 0.00, -0.00, -1.00, 830.4, 121.3)">r</text><text xml:space="preserve" font-family="OpenSans-Light,Open Sans" font-size="40.0" fill="#525252" transform="matrix(1.00, 0.00, -0.00, -1.00, 845.2, 121.3)">a</text><text xml:space="preserve" font-family="OpenSans-Light,Open Sans" font-size="40.0" fill="#525252" transform="matrix(1.00, 0.00, -0.00, -1.00, 866.4, 121.3)">s</text><text xml:space="preserve" font-family="OpenSans-Light,Open Sans" font-size="40.0" fill="#525252" transform="matrix(1.00, 0.00, -0.00, -1.00, 885.0, 121.3)">t</text><text xml:space="preserve" font-family="OpenSans-Light,Open Sans" font-size="40.0" fill="#525252" transform="matrix(1.00, 0.00, -0.00, -1.00, 898.4, 121.3)">r</text><text xml:space="preserve" font-family="OpenSans-Light,Open Sans" font-size="40.0" fill="#525252" transform="matrix(1.00, 0.00, -0.00, -1.00, 914.0, 121.3)">u</text><text xml:space="preserve" font-family="OpenSans-Light,Open Sans" font-size="40.0" fill="#525252" transform="matrix(1.00, 0.00, -0.00, -1.00, 937.5, 121.3)">c</text><text xml:space="preserve" font-family="OpenSans-Light,Open Sans" font-size="40.0" fill="#525252" transform="matrix(1.00, 0.00, -0.00, -1.00, 956.6, 121.3)">t</text><text xml:space="preserve" font-family="OpenSans-Light,Open Sans" font-size="40.0" fill="#525252" transform="matrix(1.00, 0.00, -0.00, -1.00, 970.0, 121.3)">u</text><text xml:space="preserve" font-family="OpenSans-Light,Open Sans" font-size="40.0" fill="#525252" transform="matrix(1.00, 0.00, -0.00, -1.00, 993.5, 121.3)">r</text><text xml:space="preserve" font-family="OpenSans-Light,Open Sans" font-size="40.0" fill="#525252" transform="matrix(1.00, 0.00, -0.00, -1.00, 1008.3, 121.3)">e</text><text xml:space="preserve" font-family="OpenSans-Light,Open Sans" font-size="40.0" fill="#525252" transform="matrix(1.00, 0.00, -0.00, -1.00, 1030.3, 121.3)"> </text><text xml:space="preserve" font-family="OpenSans-Light,Open Sans" font-size="40.0" fill="#525252" transform="matrix(1.00, 0.00, -0.00, -1.00, 1040.6, 121.3)">a</text><text xml:space="preserve" font-family="OpenSans-Light,Open Sans" font-size="40.0" fill="#525252" transform="matrix(1.00, 0.00, -0.00, -1.00, 1061.8, 121.3)">n</text><text xml:space="preserve" font-family="OpenSans-Light,Open Sans" font-size="40.0" fill="#525252" transform="matrix(1.00, 0.00, -0.00, -1.00, 1085.4, 121.3)">d</text><text xml:space="preserve" font-family="OpenSans-Light,Open Sans" font-size="40.0" fill="#525252" transform="matrix(1.00, 0.00, -0.00, -1.00, 1109.2, 121.3)"> </text><text xml:space="preserve" font-family="OpenSans-Light,Open Sans" font-size="40.0" fill="#525252" transform="matrix(1.00, 0.00, -0.00, -1.00, 83.3, 66.3)">d</text><text xml:space="preserve" font-family="OpenSans-Light,Open Sans" font-size="40.0" fill="#525252" transform="matrix(1.00, 0.00, -0.00, -1.00, 107.1, 66.3)">e</text><text xml:space="preserve" font-family="OpenSans-Light,Open Sans" font-size="40.0" fill="#525252" transform="matrix(1.00, 0.00, -0.00, -1.00, 128.3, 66.3)">v</text><text xml:space="preserve" font-family="OpenSans-Light,Open Sans" font-size="40.0" fill="#525252" transform="matrix(1.00, 0.00, -0.00, -1.00, 146.6, 66.3)">e</text><text xml:space="preserve" font-family="OpenSans-Light,Open Sans" font-size="40.0" fill="#525252" transform="matrix(1.00, 0.00, -0.00, -1.00, 168.6, 66.3)">l</text><text xml:space="preserve" font-family="OpenSans-Light,Open Sans" font-size="40.0" fill="#525252" transform="matrix(1.00, 0.00, -0.00, -1.00, 177.6, 66.3)">o</text><text xml:space="preserve" font-family="OpenSans-Light,Open Sans" font-size="40.0" fill="#525252" transform="matrix(1.00, 0.00, -0.00, -1.00, 201.1, 66.3)">p</text><text xml:space="preserve" font-family="OpenSans-Light,Open Sans" font-size="40.0" fill="#525252" transform="matrix(1.00, 0.00, -0.00, -1.00, 224.9, 66.3)">m</text><text xml:space="preserve" font-family="OpenSans-Light,Open Sans" font-size="40.0" fill="#525252" transform="matrix(1.00, 0.00, -0.00, -1.00, 260.2, 66.3)">e</text><text xml:space="preserve" font-family="OpenSans-Light,Open Sans" font-size="40.0" fill="#525252" transform="matrix(1.00, 0.00, -0.00, -1.00, 282.1, 66.3)">n</text><text xml:space="preserve" font-family="OpenSans-Light,Open Sans" font-size="40.0" fill="#525252" transform="matrix(1.00, 0.00, -0.00, -1.00, 305.7, 66.3)">t</text><text xml:space="preserve" font-family="OpenSans-Light,Open Sans" font-size="40.0" fill="#525252" transform="matrix(1.00, 0.00, -0.00, -1.00, 319.1, 66.3)"> </text><text xml:space="preserve" font-family="OpenSans-Light,Open Sans" font-size="40.0" fill="#525252" transform="matrix(1.00, 0.00, -0.00, -1.00, 329.5, 66.3)">p</text><text xml:space="preserve" font-family="OpenSans-Light,Open Sans" font-size="40.0" fill="#525252" transform="matrix(1.00, 0.00, -0.00, -1.00, 353.3, 66.3)">l</text><text xml:space="preserve" font-family="OpenSans-Light,Open Sans" font-size="40.0" fill="#525252" transform="matrix(1.00, 0.00, -0.00, -1.00, 362.4, 66.3)">a</text><text xml:space="preserve" font-family="OpenSans-Light,Open Sans" font-size="40.0" fill="#525252" transform="matrix(1.00, 0.00, -0.00, -1.00, 383.6, 66.3)">t</text><text xml:space="preserve" font-family="OpenSans-Light,Open Sans" font-size="40.0" fill="#525252" transform="matrix(1.00, 0.00, -0.00, -1.00, 396.9, 66.3)">f</text><text xml:space="preserve" font-family="OpenSans-Light,Open Sans" font-size="40.0" fill="#525252" transform="matrix(1.00, 0.00, -0.00, -1.00, 408.9, 66.3)">o</text><text xml:space="preserve" font-family="OpenSans-Light,Open Sans" font-size="40.0" fill="#525252" transform="matrix(1.00, 0.00, -0.00, -1.00, 432.4, 66.3)">r</text><text xml:space="preserve" font-family="OpenSans-Light,Open Sans" font-size="40.0" fill="#525252" transform="matrix(1.00, 0.00, -0.00, -1.00, 447.9, 66.3)">m</text><text xml:space="preserve" font-family="OpenSans-Light,Open Sans" font-size="40.0" fill="#525252" transform="matrix(1.00, 0.00, -0.00, -1.00, 483.2, 66.3)"> </text><text xml:space="preserve" font-family="OpenSans-Light,Open Sans" font-size="40.0" fill="#525252" transform="matrix(1.00, 0.00, -0.00, -1.00, 493.6, 66.3)">f</text><text xml:space="preserve" font-family="OpenSans-Light,Open Sans" font-size="40.0" fill="#525252" transform="matrix(1.00, 0.00, -0.00, -1.00, 505.6, 66.3)">o</text><text xml:space="preserve" font-family="OpenSans-Light,Open Sans" font-size="40.0" fill="#525252" transform="matrix(1.00, 0.00, -0.00, -1.00, 529.0, 66.3)">r</text><text xml:space="preserve" font-family="OpenSans-Light,Open Sans" font-size="40.0" fill="#525252" transform="matrix(1.00, 0.00, -0.00, -1.00, 544.6, 66.3)"> </text><text xml:space="preserve" font-family="OpenSans-Light,Open Sans" font-size="40.0" fill="#525252" transform="matrix(1.00, 0.00, -0.00, -1.00, 555.0, 66.3)">d</text><text xml:space="preserve" font-family="OpenSans-Light,Open Sans" font-size="40.0" fill="#525252" transform="matrix(1.00, 0.00, -0.00, -1.00, 578.8, 66.3)">e</text><text xml:space="preserve" font-family="OpenSans-Light,Open Sans" font-size="40.0" fill="#525252" transform="matrix(1.00, 0.00, -0.00, -1.00, 600.8, 66.3)">c</text><text xml:space="preserve" font-family="OpenSans-Light,Open Sans" font-size="40.0" fill="#525252" transform="matrix(1.00, 0.00, -0.00, -1.00, 619.8, 66.3)">e</text><text xml:space="preserve" font-family="OpenSans-Light,Open Sans" font-size="40.0" fill="#525252" transform="matrix(1.00, 0.00, -0.00, -1.00, 641.7, 66.3)">n</text><text xml:space="preserve" font-family="OpenSans-Light,Open Sans" font-size="40.0" fill="#525252" transform="matrix(1.00, 0.00, -0.00, -1.00, 665.3, 66.3)">t</text><text xml:space="preserve" font-family="OpenSans-Light,Open Sans" font-size="40.0" fill="#525252" transform="matrix(1.00, 0.00, -0.00, -1.00, 678.7, 66.3)">r</text><text xml:space="preserve" font-family="OpenSans-Light,Open Sans" font-size="40.0" fill="#525252" transform="matrix(1.00, 0.00, -0.00, -1.00, 693.5, 66.3)">a</text><text xml:space="preserve" font-family="OpenSans-Light,Open Sans" font-size="40.0" fill="#525252" transform="matrix(1.00, 0.00, -0.00, -1.00, 714.7, 66.3)">l</text><text xml:space="preserve" font-family="OpenSans-Light,Open Sans" font-size="40.0" fill="#525252" transform="matrix(1.00, 0.00, -0.00, -1.00, 723.7, 66.3)">i</text><text xml:space="preserve" font-family="OpenSans-Light,Open Sans" font-size="40.0" fill="#525252" transform="matrix(1.00, 0.00, -0.00, -1.00, 732.7, 66.3)">s</text><text xml:space="preserve" font-family="OpenSans-Light,Open Sans" font-size="40.0" fill="#525252" transform="matrix(1.00, 0.00, -0.00, -1.00, 751.4, 66.3)">i</text><text xml:space="preserve" font-family="OpenSans-Light,Open Sans" font-size="40.0" fill="#525252" transform="matrix(1.00, 0.00, -0.00, -1.00, 760.4, 66.3)">n</text><text xml:space="preserve" font-family="OpenSans-Light,Open Sans" font-size="40.0" fill="#525252" transform="matrix(1.00, 0.00, -0.00, -1.00, 784.0, 66.3)">g</text><text xml:space="preserve" font-family="OpenSans-Light,Open Sans" font-size="40.0" fill="#525252" transform="matrix(1.00, 0.00, -0.00, -1.00, 804.9, 66.3)"> </text><text xml:space="preserve" font-family="OpenSans-Light,Open Sans" font-size="40.0" fill="#525252" transform="matrix(1.00, 0.00, -0.00, -1.00, 815.3, 66.3)">s</text><text xml:space="preserve" font-family="OpenSans-Light,Open Sans" font-size="40.0" fill="#525252" transform="matrix(1.00, 0.00, -0.00, -1.00, 833.9, 66.3)">t</text><text xml:space="preserve" font-family="OpenSans-Light,Open Sans" font-size="40.0" fill="#525252" transform="matrix(1.00, 0.00, -0.00, -1.00, 847.3, 66.3)">o</text><text xml:space="preserve" font-family="OpenSans-Light,Open Sans" font-size="40.0" fill="#525252" transform="matrix(1.00, 0.00, -0.00, -1.00, 870.8, 66.3)">r</text><text xml:space="preserve" font-family="OpenSans-Light,Open Sans" font-size="40.0" fill="#525252" transform="matrix(1.00, 0.00, -0.00, -1.00, 885.5, 66.3)">a</text><text xml:space="preserve" font-family="OpenSans-Light,Open Sans" font-size="40.0" fill="#525252" transform="matrix(1.00, 0.00, -0.00, -1.00, 906.7, 66.3)">g</text><text xml:space="preserve" font-family="OpenSans-Light,Open Sans" font-size="40.0" fill="#525252" transform="matrix(1.00, 0.00, -0.00, -1.00, 927.6, 66.3)">e</text><text xml:space="preserve" font-family="OpenSans-Light,Open Sans" font-size="40.0" fill="#525252" transform="matrix(1.00, 0.00, -0.00, -1.00, 949.6, 66.3)"> </text><text xml:space="preserve" font-family="OpenSans-Light,Open Sans" font-size="40.0" fill="#525252" transform="matrix(1.00, 0.00, -0.00, -1.00, 960.0, 66.3)">a</text><text xml:space="preserve" font-family="OpenSans-Light,Open Sans" font-size="40.0" fill="#525252" transform="matrix(1.00, 0.00, -0.00, -1.00, 981.1, 66.3)">n</text><text xml:space="preserve" font-family="OpenSans-Light,Open Sans" font-size="40.0" fill="#525252" transform="matrix(1.00, 0.00, -0.00, -1.00, 1004.7, 66.3)">d</text><text xml:space="preserve" font-family="OpenSans-Light,Open Sans" font-size="40.0" fill="#525252" transform="matrix(1.00, 0.00, -0.00, -1.00, 1028.5, 66.3)"> </text><g><clipPath id="clip0x6080072a5220"><path d="M 0.0 4.6 L 1111.0 4.6 L 1111.0 154.0 L 0.0 154.0 Z M 0.0 4.6 "></path></clipPath><g clip-path="url(#clip0x6080072a5220)"><text xml:space="preserve" font-family="OpenSans-Light,Open Sans" font-size="40.0" fill="#525252" transform="matrix(1.00, 0.00, -0.00, -1.00, 66.0, 11.3)">c</text><text xml:space="preserve" font-family="OpenSans-Light,Open Sans" font-size="40.0" fill="#525252" transform="matrix(1.00, 0.00, -0.00, -1.00, 85.0, 11.3)">o</text><text xml:space="preserve" font-family="OpenSans-Light,Open Sans" font-size="40.0" fill="#525252" transform="matrix(1.00, 0.00, -0.00, -1.00, 108.4, 11.3)">m</text><text xml:space="preserve" font-family="OpenSans-Light,Open Sans" font-size="40.0" fill="#525252" transform="matrix(1.00, 0.00, -0.00, -1.00, 143.7, 11.3)">m</text><text xml:space="preserve" font-family="OpenSans-Light,Open Sans" font-size="40.0" fill="#525252" transform="matrix(1.00, 0.00, -0.00, -1.00, 179.0, 11.3)">u</text><text xml:space="preserve" font-family="OpenSans-Light,Open Sans" font-size="40.0" fill="#525252" transform="matrix(1.00, 0.00, -0.00, -1.00, 202.6, 11.3)">n</text><text xml:space="preserve" font-family="OpenSans-Light,Open Sans" font-size="40.0" fill="#525252" transform="matrix(1.00, 0.00, -0.00, -1.00, 226.2, 11.3)">i</text><text xml:space="preserve" font-family="OpenSans-Light,Open Sans" font-size="40.0" fill="#525252" transform="matrix(1.00, 0.00, -0.00, -1.00, 235.3, 11.3)">c</text><text xml:space="preserve" font-family="OpenSans-Light,Open Sans" font-size="40.0" fill="#525252" transform="matrix(1.00, 0.00, -0.00, -1.00, 254.3, 11.3)">a</text><text xml:space="preserve" font-family="OpenSans-Light,Open Sans" font-size="40.0" fill="#525252" transform="matrix(1.00, 0.00, -0.00, -1.00, 275.5, 11.3)">t</text><text xml:space="preserve" font-family="OpenSans-Light,Open Sans" font-size="40.0" fill="#525252" transform="matrix(1.00, 0.00, -0.00, -1.00, 288.8, 11.3)">i</text><text xml:space="preserve" font-family="OpenSans-Light,Open Sans" font-size="40.0" fill="#525252" transform="matrix(1.00, 0.00, -0.00, -1.00, 297.9, 11.3)">o</text><text xml:space="preserve" font-family="OpenSans-Light,Open Sans" font-size="40.0" fill="#525252" transform="matrix(1.00, 0.00, -0.00, -1.00, 321.3, 11.3)">n</text><text xml:space="preserve" font-family="OpenSans-Light,Open Sans" font-size="40.0" fill="#525252" transform="matrix(1.00, 0.00, -0.00, -1.00, 344.9, 11.3)"> </text><text xml:space="preserve" font-family="OpenSans-Light,Open Sans" font-size="40.0" fill="#525252" transform="matrix(1.00, 0.00, -0.00, -1.00, 355.3, 11.3)">w</text><text xml:space="preserve" font-family="OpenSans-Light,Open Sans" font-size="40.0" fill="#525252" transform="matrix(1.00, 0.00, -0.00, -1.00, 384.2, 11.3)">h</text><text xml:space="preserve" font-family="OpenSans-Light,Open Sans" font-size="40.0" fill="#525252" transform="matrix(1.00, 0.00, -0.00, -1.00, 407.8, 11.3)">e</text><text xml:space="preserve" font-family="OpenSans-Light,Open Sans" font-size="40.0" fill="#525252" transform="matrix(1.00, 0.00, -0.00, -1.00, 429.8, 11.3)">r</text><text xml:space="preserve" font-family="OpenSans-Light,Open Sans" font-size="40.0" fill="#525252" transform="matrix(1.00, 0.00, -0.00, -1.00, 444.5, 11.3)">e</text><text xml:space="preserve" font-family="OpenSans-Light,Open Sans" font-size="40.0" fill="#525252" transform="matrix(1.00, 0.00, -0.00, -1.00, 466.5, 11.3)"> </text><text xml:space="preserve" font-family="OpenSans-Light,Open Sans" font-size="40.0" fill="#525252" transform="matrix(1.00, 0.00, -0.00, -1.00, 476.9, 11.3)">p</text><text xml:space="preserve" font-family="OpenSans-Light,Open Sans" font-size="40.0" fill="#525252" transform="matrix(1.00, 0.00, -0.00, -1.00, 500.7, 11.3)">r</text><text xml:space="preserve" font-family="OpenSans-Light,Open Sans" font-size="40.0" fill="#525252" transform="matrix(1.00, 0.00, -0.00, -1.00, 516.2, 11.3)">i</text><text xml:space="preserve" font-family="OpenSans-Light,Open Sans" font-size="40.0" fill="#525252" transform="matrix(1.00, 0.00, -0.00, -1.00, 525.3, 11.3)">v</text><text xml:space="preserve" font-family="OpenSans-Light,Open Sans" font-size="40.0" fill="#525252" transform="matrix(1.00, 0.00, -0.00, -1.00, 543.7, 11.3)">a</text><text xml:space="preserve" font-family="OpenSans-Light,Open Sans" font-size="40.0" fill="#525252" transform="matrix(1.00, 0.00, -0.00, -1.00, 564.8, 11.3)">c</text><text xml:space="preserve" font-family="OpenSans-Light,Open Sans" font-size="40.0" fill="#525252" transform="matrix(1.00, 0.00, -0.00, -1.00, 583.8, 11.3)">y</text><text xml:space="preserve" font-family="OpenSans-Light,Open Sans" font-size="40.0" fill="#525252" transform="matrix(1.00, 0.00, -0.00, -1.00, 602.2, 11.3)"> </text><text xml:space="preserve" font-family="OpenSans-Light,Open Sans" font-size="40.0" fill="#525252" transform="matrix(1.00, 0.00, -0.00, -1.00, 612.6, 11.3)">a</text><text xml:space="preserve" font-family="OpenSans-Light,Open Sans" font-size="40.0" fill="#525252" transform="matrix(1.00, 0.00, -0.00, -1.00, 633.8, 11.3)">n</text><text xml:space="preserve" font-family="OpenSans-Light,Open Sans" font-size="40.0" fill="#525252" transform="matrix(1.00, 0.00, -0.00, -1.00, 657.4, 11.3)">d</text><text xml:space="preserve" font-family="OpenSans-Light,Open Sans" font-size="40.0" fill="#525252" transform="matrix(1.00, 0.00, -0.00, -1.00, 681.2, 11.3)"> </text><text xml:space="preserve" font-family="OpenSans-Light,Open Sans" font-size="40.0" fill="#525252" transform="matrix(1.00, 0.00, -0.00, -1.00, 691.6, 11.3)">s</text><text xml:space="preserve" font-family="OpenSans-Light,Open Sans" font-size="40.0" fill="#525252" transform="matrix(1.00, 0.00, -0.00, -1.00, 710.2, 11.3)">e</text><text xml:space="preserve" font-family="OpenSans-Light,Open Sans" font-size="40.0" fill="#525252" transform="matrix(1.00, 0.00, -0.00, -1.00, 732.1, 11.3)">c</text><text xml:space="preserve" font-family="OpenSans-Light,Open Sans" font-size="40.0" fill="#525252" transform="matrix(1.00, 0.00, -0.00, -1.00, 751.1, 11.3)">u</text><text xml:space="preserve" font-family="OpenSans-Light,Open Sans" font-size="40.0" fill="#525252" transform="matrix(1.00, 0.00, -0.00, -1.00, 774.7, 11.3)">r</text><text xml:space="preserve" font-family="OpenSans-Light,Open Sans" font-size="40.0" fill="#525252" transform="matrix(1.00, 0.00, -0.00, -1.00, 790.3, 11.3)">i</text><text xml:space="preserve" font-family="OpenSans-Light,Open Sans" font-size="40.0" fill="#525252" transform="matrix(1.00, 0.00, -0.00, -1.00, 799.3, 11.3)">t</text><text xml:space="preserve" font-family="OpenSans-Light,Open Sans" font-size="40.0" fill="#525252" transform="matrix(1.00, 0.00, -0.00, -1.00, 812.7, 11.3)">y</text><text xml:space="preserve" font-family="OpenSans-Light,Open Sans" font-size="40.0" fill="#525252" transform="matrix(1.00, 0.00, -0.00, -1.00, 831.1, 11.3)"> </text><text xml:space="preserve" font-family="OpenSans-Light,Open Sans" font-size="40.0" fill="#525252" transform="matrix(1.00, 0.00, -0.00, -1.00, 841.5, 11.3)">a</text><text xml:space="preserve" font-family="OpenSans-Light,Open Sans" font-size="40.0" fill="#525252" transform="matrix(1.00, 0.00, -0.00, -1.00, 862.7, 11.3)">r</text><text xml:space="preserve" font-family="OpenSans-Light,Open Sans" font-size="40.0" fill="#525252" transform="matrix(1.00, 0.00, -0.00, -1.00, 877.4, 11.3)">e</text><text xml:space="preserve" font-family="OpenSans-Light,Open Sans" font-size="40.0" fill="#525252" transform="matrix(1.00, 0.00, -0.00, -1.00, 899.4, 11.3)"> </text><text xml:space="preserve" font-family="OpenSans-Light,Open Sans" font-size="40.0" fill="#525252" transform="matrix(1.00, 0.00, -0.00, -1.00, 909.8, 11.3)">p</text><text xml:space="preserve" font-family="OpenSans-Light,Open Sans" font-size="40.0" fill="#525252" transform="matrix(1.00, 0.00, -0.00, -1.00, 933.6, 11.3)">r</text><text xml:space="preserve" font-family="OpenSans-Light,Open Sans" font-size="40.0" fill="#525252" transform="matrix(1.00, 0.00, -0.00, -1.00, 949.2, 11.3)">i</text><text xml:space="preserve" font-family="OpenSans-Light,Open Sans" font-size="40.0" fill="#525252" transform="matrix(1.00, 0.00, -0.00, -1.00, 958.2, 11.3)">o</text><text xml:space="preserve" font-family="OpenSans-Light,Open Sans" font-size="40.0" fill="#525252" transform="matrix(1.00, 0.00, -0.00, -1.00, 981.6, 11.3)">r</text><text xml:space="preserve" font-family="OpenSans-Light,Open Sans" font-size="40.0" fill="#525252" transform="matrix(1.00, 0.00, -0.00, -1.00, 997.2, 11.3)">i</text><text xml:space="preserve" font-family="OpenSans-Light,Open Sans" font-size="40.0" fill="#525252" transform="matrix(1.00, 0.00, -0.00, -1.00, 1006.3, 11.3)">t</text><text xml:space="preserve" font-family="OpenSans-Light,Open Sans" font-size="40.0" fill="#525252" transform="matrix(1.00, 0.00, -0.00, -1.00, 1019.7, 11.3)">y</text><text xml:space="preserve" font-family="OpenSans-Light,Open Sans" font-size="40.0" fill="#525252" transform="matrix(1.00, 0.00, -0.00, -1.00, 1036.4, 11.3)">.</text></g></g></g></svg>