<?xml version="1.0" encoding="UTF-8" standalone="no"?><svg xmlns="http://www.w3.org/2000/svg" xmlns:xlink="http://www.w3.org/1999/xlink" clip-rule="evenodd" stroke-miterlimit="10" viewBox="0 0 1920 1080"><desc>SVG generated by Keynote</desc><defs></defs><g transform="matrix(1.00, 0.00, -0.00, -1.00, 0.0, 1080.0)"><g><clipPath id="clip0x6080120a6f60"><path d="M 0.0 1080.0 L 1920.0 1080.0 L 1920.0 0.0 L 0.0 0.0 Z M 0.0 1080.0 "></path></clipPath><g clip-path="url(#clip0x6080120a6f60)"><image xlink:href="../../D6B96BF8-1030-4908-B6EF-89AAAD23CC95/assets/9EDC5A8D695696C5A4C057AC54B1350D.png" width="1920.00" height="980.00" transform="matrix(1.10, 0.00, -0.00, -1.10, -98.0, 1080.0)"></image></g></g><text xml:space="preserve" font-family="OpenSans-Light,Open Sans" font-size="58.0" fill="#B4B4B4" transform="matrix(1.00, 0.00, -0.00, -1.00, 600.0, 541.5)">S</text><text xml:space="preserve" font-family="OpenSans-Light,Open Sans" font-size="58.0" fill="#B4B4B4" transform="matrix(1.00, 0.00, -0.00, -1.00, 631.6, 541.5)">a</text><text xml:space="preserve" font-family="OpenSans-Light,Open Sans" font-size="58.0" fill="#B4B4B4" transform="matrix(1.00, 0.00, -0.00, -1.00, 662.3, 541.5)">f</text><text xml:space="preserve" font-family="OpenSans-Light,Open Sans" font-size="58.0" fill="#B4B4B4" transform="matrix(1.00, 0.00, -0.00, -1.00, 679.7, 541.5)">e</text><text xml:space="preserve" font-family="OpenSans-Light,Open Sans" font-size="58.0" fill="#B4B4B4" transform="matrix(1.00, 0.00, -0.00, -1.00, 711.5, 541.5)">c</text><text xml:space="preserve" font-family="OpenSans-Light,Open Sans" font-size="58.0" fill="#B4B4B4" transform="matrix(1.00, 0.00, -0.00, -1.00, 739.1, 541.5)">o</text><text xml:space="preserve" font-family="OpenSans-Light,Open Sans" font-size="58.0" fill="#B4B4B4" transform="matrix(1.00, 0.00, -0.00, -1.00, 773.1, 541.5)">i</text><text xml:space="preserve" font-family="OpenSans-Light,Open Sans" font-size="58.0" fill="#B4B4B4" transform="matrix(1.00, 0.00, -0.00, -1.00, 786.2, 541.5)">n</text><text xml:space="preserve" font-family="OpenSans-Light,Open Sans" font-size="58.0" fill="#525252" transform="matrix(1.00, 0.00, -0.00, -1.00, 359.8, 707.7)">P</text><text xml:space="preserve" font-family="OpenSans-Light,Open Sans" font-size="58.0" fill="#525252" transform="matrix(1.00, 0.00, -0.00, -1.00, 393.7, 707.7)">r</text><text xml:space="preserve" font-family="OpenSans-Light,Open Sans" font-size="58.0" fill="#525252" transform="matrix(1.00, 0.00, -0.00, -1.00, 415.1, 707.7)">o</text><text xml:space="preserve" font-family="OpenSans-Light,Open Sans" font-size="58.0" fill="#525252" transform="matrix(1.00, 0.00, -0.00, -1.00, 449.1, 707.7)">o</text><text xml:space="preserve" font-family="OpenSans-Light,Open Sans" font-size="58.0" fill="#525252" transform="matrix(1.00, 0.00, -0.00, -1.00, 483.1, 707.7)">f</text><text xml:space="preserve" font-family="OpenSans-Light,Open Sans" font-size="58.0" fill="#525252" transform="matrix(1.00, 0.00, -0.00, -1.00, 500.5, 707.7)"> </text><text xml:space="preserve" font-family="OpenSans-Light,Open Sans" font-size="58.0" fill="#525252" transform="matrix(1.00, 0.00, -0.00, -1.00, 515.5, 707.7)">o</text><text xml:space="preserve" font-family="OpenSans-Light,Open Sans" font-size="58.0" fill="#525252" transform="matrix(1.00, 0.00, -0.00, -1.00, 549.5, 707.7)">f</text><text xml:space="preserve" font-family="OpenSans-Light,Open Sans" font-size="58.0" fill="#525252" transform="matrix(1.00, 0.00, -0.00, -1.00, 566.9, 707.7)"> </text><text xml:space="preserve" font-family="OpenSans-Light,Open Sans" font-size="58.0" fill="#525252" transform="matrix(1.00, 0.00, -0.00, -1.00, 581.9, 707.7)">r</text><text xml:space="preserve" font-family="OpenSans-Light,Open Sans" font-size="58.0" fill="#525252" transform="matrix(1.00, 0.00, -0.00, -1.00, 603.3, 707.7)">e</text><text xml:space="preserve" font-family="OpenSans-Light,Open Sans" font-size="58.0" fill="#525252" transform="matrix(1.00, 0.00, -0.00, -1.00, 635.2, 707.7)">s</text><text xml:space="preserve" font-family="OpenSans-Light,Open Sans" font-size="58.0" fill="#525252" transform="matrix(1.00, 0.00, -0.00, -1.00, 662.2, 707.7)">o</text><text xml:space="preserve" font-family="OpenSans-Light,Open Sans" font-size="58.0" fill="#525252" transform="matrix(1.00, 0.00, -0.00, -1.00, 696.1, 707.7)">u</text><text xml:space="preserve" font-family="OpenSans-Light,Open Sans" font-size="58.0" fill="#525252" transform="matrix(1.00, 0.00, -0.00, -1.00, 730.3, 707.7)">r</text><text xml:space="preserve" font-family="OpenSans-Light,Open Sans" font-size="58.0" fill="#525252" transform="matrix(1.00, 0.00, -0.00, -1.00, 751.8, 707.7)">c</text><text xml:space="preserve" font-family="OpenSans-Light,Open Sans" font-size="58.0" fill="#525252" transform="matrix(1.00, 0.00, -0.00, -1.00, 779.3, 707.7)">e</text><text xml:space="preserve" font-family="OpenSans-Light,Open Sans" font-size="58.0" fill="#B4B4B4" transform="matrix(1.00, 0.00, -0.00, -1.00, 327.9, 370.5)">D</text><text xml:space="preserve" font-family="OpenSans-Light,Open Sans" font-size="58.0" fill="#B4B4B4" transform="matrix(1.00, 0.00, -0.00, -1.00, 368.9, 370.5)">e</text><text xml:space="preserve" font-family="OpenSans-Light,Open Sans" font-size="58.0" fill="#B4B4B4" transform="matrix(1.00, 0.00, -0.00, -1.00, 399.5, 370.5)">v</text><text xml:space="preserve" font-family="OpenSans-Light,Open Sans" font-size="58.0" fill="#B4B4B4" transform="matrix(1.00, 0.00, -0.00, -1.00, 426.2, 370.5)">e</text><text xml:space="preserve" font-family="OpenSans-Light,Open Sans" font-size="58.0" fill="#B4B4B4" transform="matrix(1.00, 0.00, -0.00, -1.00, 458.0, 370.5)">l</text><text xml:space="preserve" font-family="OpenSans-Light,Open Sans" font-size="58.0" fill="#B4B4B4" transform="matrix(1.00, 0.00, -0.00, -1.00, 471.1, 370.5)">o</text><text xml:space="preserve" font-family="OpenSans-Light,Open Sans" font-size="58.0" fill="#B4B4B4" transform="matrix(1.00, 0.00, -0.00, -1.00, 505.1, 370.5)">p</text><text xml:space="preserve" font-family="OpenSans-Light,Open Sans" font-size="58.0" fill="#B4B4B4" transform="matrix(1.00, 0.00, -0.00, -1.00, 539.6, 370.5)">e</text><text xml:space="preserve" font-family="OpenSans-Light,Open Sans" font-size="58.0" fill="#B4B4B4" transform="matrix(1.00, 0.00, -0.00, -1.00, 571.4, 370.5)">r</text><text xml:space="preserve" font-family="OpenSans-Light,Open Sans" font-size="58.0" fill="#B4B4B4" transform="matrix(1.00, 0.00, -0.00, -1.00, 594.0, 370.5)"> </text><text xml:space="preserve" font-family="OpenSans-Light,Open Sans" font-size="58.0" fill="#B4B4B4" transform="matrix(1.00, 0.00, -0.00, -1.00, 609.1, 370.5)">r</text><text xml:space="preserve" font-family="OpenSans-Light,Open Sans" font-size="58.0" fill="#B4B4B4" transform="matrix(1.00, 0.00, -0.00, -1.00, 630.5, 370.5)">e</text><text xml:space="preserve" font-family="OpenSans-Light,Open Sans" font-size="58.0" fill="#B4B4B4" transform="matrix(1.00, 0.00, -0.00, -1.00, 661.2, 370.5)">w</text><text xml:space="preserve" font-family="OpenSans-Light,Open Sans" font-size="58.0" fill="#B4B4B4" transform="matrix(1.00, 0.00, -0.00, -1.00, 703.1, 370.5)">a</text><text xml:space="preserve" font-family="OpenSans-Light,Open Sans" font-size="58.0" fill="#B4B4B4" transform="matrix(1.00, 0.00, -0.00, -1.00, 733.8, 370.5)">r</text><text xml:space="preserve" font-family="OpenSans-Light,Open Sans" font-size="58.0" fill="#B4B4B4" transform="matrix(1.00, 0.00, -0.00, -1.00, 755.2, 370.5)">d</text><text xml:space="preserve" font-family="OpenSans-Light,Open Sans" font-size="58.0" fill="#B4B4B4" transform="matrix(1.00, 0.00, -0.00, -1.00, 789.8, 370.5)">s</text><g><clipPath id="clip0x6080120a80a0"><path d="M 932.0 175.0 L 1703.0 175.0 L 1703.0 946.0 L 932.0 946.0 Z M 932.0 175.0 "></path></clipPath><g clip-path="url(#clip0x6080120a80a0)"><path d="M 1145.5 488.1 C 1145.5 445.9 1111.4 411.8 1069.2 411.8 C 1027.1 411.8 992.9 445.9 992.9 488.1 C 992.9 530.2 1027.1 564.4 1069.2 564.4 C 1111.4 564.4 1145.5 530.2 1145.5 488.1 " fill="#5492D6"></path><path d="M 1069.2 558.0 C 1030.7 558.0 999.4 526.6 999.4 488.1 C 999.4 449.6 1030.7 418.2 1069.2 418.2 C 1107.8 418.2 1139.1 449.6 1139.1 488.1 C 1139.1 526.6 1107.8 558.0 1069.2 558.0 M 1069.2 405.4 C 1023.6 405.4 986.5 442.5 986.5 488.1 C 986.5 533.7 1023.6 570.8 1069.2 570.8 C 1114.8 570.8 1152.0 533.7 1152.0 488.1 C 1152.0 442.5 1114.8 405.4 1069.2 405.4 " fill="#396F9F"></path><text xml:space="preserve" font-family="MyriadPro-Semibold,Myriad Pro" font-weight="bold" font-size="33.3" fill="#FFFFFF" transform="matrix(0.77, 0.00, -0.00, -0.77, 1021.0, 453.2)">N</text><text xml:space="preserve" font-family="MyriadPro-Semibold,Myriad Pro" font-weight="bold" font-size="33.3" fill="#FFFFFF" transform="matrix(0.77, 0.00, -0.00, -0.77, 1038.4, 453.2)">e</text><text xml:space="preserve" font-family="MyriadPro-Semibold,Myriad Pro" font-weight="bold" font-size="33.3" fill="#FFFFFF" transform="matrix(0.77, 0.00, -0.00, -0.77, 1051.6, 453.2)">t</text><text xml:space="preserve" font-family="MyriadPro-Semibold,Myriad Pro" font-weight="bold" font-size="33.3" fill="#FFFFFF" transform="matrix(0.77, 0.00, -0.00, -0.77, 1060.8, 453.2)">w</text><text xml:space="preserve" font-family="MyriadPro-Semibold,Myriad Pro" font-weight="bold" font-size="33.3" fill="#FFFFFF" transform="matrix(0.77, 0.00, -0.00, -0.77, 1079.7, 453.2)">o</text><text xml:space="preserve" font-family="MyriadPro-Semibold,Myriad Pro" font-weight="bold" font-size="33.3" fill="#FFFFFF" transform="matrix(0.77, 0.00, -0.00, -0.77, 1094.2, 453.2)">r</text><text xml:space="preserve" font-family="MyriadPro-Semibold,Myriad Pro" font-weight="bold" font-size="33.3" fill="#FFFFFF" transform="matrix(0.77, 0.00, -0.00, -0.77, 1103.3, 453.2)">k</text><path d="M 1069.0 479.5 C 1066.9 479.5 1064.9 480.3 1063.3 481.8 L 958.1 586.3 C 955.8 588.6 955.1 592.1 956.3 595.1 C 957.6 598.1 960.5 600.0 963.7 600.1 L 1026.9 600.3 C 1032.1 672.5 1063.8 739.9 1116.5 790.3 C 1171.2 842.8 1243.1 871.7 1318.8 871.7 C 1369.9 871.7 1420.2 858.3 1464.4 832.9 C 1499.4 812.8 1530.6 784.9 1554.6 752.2 C 1556.2 750.0 1556.6 747.1 1555.7 744.6 C 1554.7 742.0 1552.5 740.0 1549.8 739.5 C 1528.6 734.9 1509.6 722.6 1496.5 704.8 C 1494.9 702.5 1492.5 701.2 1490.1 701.2 C 1487.7 701.2 1485.3 702.5 1483.7 704.6 C 1466.5 727.1 1445.7 745.4 1422.0 759.0 C 1390.8 776.9 1355.1 786.4 1318.8 786.4 C 1266.7 786.4 1216.9 766.9 1178.5 731.5 C 1140.9 697.0 1117.6 650.5 1112.4 600.1 L 1173.6 600.0 C 1177.0 600.0 1179.8 598.3 1181.0 595.4 C 1182.2 592.5 1181.6 589.4 1179.3 587.0 L 1074.7 481.8 C 1073.2 480.3 1071.2 479.5 1069.0 479.5 " fill="#FFFFFF"></path><path d="M 1645.1 651.9 C 1645.1 609.8 1610.9 575.6 1568.8 575.6 C 1526.7 575.6 1492.5 609.8 1492.5 651.9 C 1492.5 694.1 1526.7 728.2 1568.8 728.2 C 1610.9 728.2 1645.1 694.1 1645.1 651.9 " fill="#69BB91"></path><path d="M 1568.8 721.8 C 1530.3 721.8 1498.9 690.5 1498.9 651.9 C 1498.9 613.4 1530.3 582.1 1568.8 582.1 C 1607.3 582.1 1638.7 613.4 1638.7 651.9 C 1638.7 690.5 1607.3 721.8 1568.8 721.8 M 1568.8 569.2 C 1523.2 569.2 1486.1 606.3 1486.1 651.9 C 1486.1 697.5 1523.2 734.6 1568.8 734.6 C 1614.4 734.6 1651.5 697.5 1651.5 651.9 C 1651.5 606.3 1614.4 569.2 1568.8 569.2 " fill="#53916E"></path><text xml:space="preserve" font-family="MyriadPro-Semibold,Myriad Pro" font-weight="bold" font-size="33.3" fill="#FFFFFF" transform="matrix(0.77, 0.00, -0.00, -0.77, 1529.6, 670.7)">F</text><text xml:space="preserve" font-family="MyriadPro-Semibold,Myriad Pro" font-weight="bold" font-size="33.3" fill="#FFFFFF" transform="matrix(0.77, 0.00, -0.00, -0.77, 1541.6, 670.7)">a</text><text xml:space="preserve" font-family="MyriadPro-Semibold,Myriad Pro" font-weight="bold" font-size="33.3" fill="#FFFFFF" transform="matrix(0.77, 0.00, -0.00, -0.77, 1554.7, 670.7)">r</text><text xml:space="preserve" font-family="MyriadPro-Semibold,Myriad Pro" font-weight="bold" font-size="33.3" fill="#FFFFFF" transform="matrix(0.77, 0.00, -0.00, -0.77, 1563.8, 670.7)">m</text><text xml:space="preserve" font-family="MyriadPro-Semibold,Myriad Pro" font-weight="bold" font-size="33.3" fill="#FFFFFF" transform="matrix(0.77, 0.00, -0.00, -0.77, 1585.6, 670.7)">e</text><text xml:space="preserve" font-family="MyriadPro-Semibold,Myriad Pro" font-weight="bold" font-size="33.3" fill="#FFFFFF" transform="matrix(0.77, 0.00, -0.00, -0.77, 1598.9, 670.7)">r</text><path d="M 1389.7 249.3 C 1368.3 249.3 1347.7 258.0 1332.7 273.2 C 1327.9 273.0 1323.2 272.8 1318.8 272.8 C 1293.7 272.8 1268.7 276.1 1244.3 282.6 C 1230.5 272.3 1214.2 266.9 1196.9 266.9 C 1152.8 266.9 1117.0 302.8 1117.0 346.9 C 1117.0 349.2 1117.1 351.7 1117.3 354.2 C 1106.1 365.0 1095.8 376.7 1086.6 389.0 C 1085.4 390.5 1085.1 392.5 1085.8 394.3 C 1086.4 396.1 1087.9 397.4 1089.8 397.8 C 1111.7 402.8 1130.9 415.6 1144.1 434.0 C 1145.1 435.4 1146.8 436.3 1148.6 436.3 C 1150.4 436.3 1152.0 435.5 1153.1 434.1 C 1156.8 429.4 1160.8 424.7 1165.0 420.1 C 1175.1 424.6 1185.8 426.8 1196.9 426.8 C 1236.6 426.8 1270.9 396.5 1276.1 357.5 C 1288.3 355.0 1300.9 353.5 1313.4 353.2 C 1323.8 386.3 1354.8 409.1 1389.7 409.1 C 1407.8 409.1 1425.5 402.9 1439.6 391.6 C 1450.2 399.1 1460.2 407.7 1469.3 417.0 C 1464.7 427.3 1462.3 438.3 1462.3 449.7 C 1462.3 487.6 1488.8 520.1 1525.7 527.9 C 1526.5 532.8 1527.2 537.7 1527.6 542.7 L 1463.8 542.9 C 1461.6 542.9 1459.5 544.3 1458.7 546.4 C 1457.8 548.5 1458.3 550.9 1459.9 552.5 L 1565.1 657.0 C 1566.2 658.1 1567.6 658.7 1569.1 658.7 C 1570.6 658.7 1572.0 658.1 1573.1 657.0 L 1677.6 551.8 C 1679.2 550.2 1679.7 547.7 1678.8 545.6 C 1677.9 543.5 1675.9 542.2 1673.6 542.2 L 1608.2 542.4 C 1607.3 528.9 1605.4 515.4 1602.6 502.1 C 1615.2 487.6 1622.2 469.0 1622.2 449.7 C 1622.2 405.6 1586.3 369.7 1542.3 369.7 C 1540.0 369.7 1537.8 369.8 1535.5 370.1 C 1531.7 365.8 1527.7 361.6 1523.7 357.5 C 1506.9 340.8 1488.3 326.3 1468.2 314.2 C 1461.0 276.5 1428.3 249.3 1389.7 249.3 " fill="#FFFFFF"></path><path d="M 1548.2 747.5 C 1524.7 779.4 1494.8 806.2 1460.4 826.0 C 1417.5 850.7 1368.5 863.7 1318.8 863.7 C 1166.2 863.7 1041.4 743.1 1034.5 592.3 L 963.8 592.0 L 1069.0 487.5 L 1173.6 592.7 L 1103.7 592.5 C 1110.6 705.1 1204.4 794.6 1318.8 794.6 C 1356.4 794.6 1393.5 784.8 1426.0 766.1 C 1450.8 751.8 1472.7 732.6 1490.0 709.9 C 1503.9 728.7 1524.5 742.4 1548.2 747.5 " fill="#D4F7E3"></path><path d="M 1318.8 868.5 C 1243.9 868.5 1172.8 839.9 1118.7 788.0 C 1065.8 737.3 1034.4 669.7 1029.9 597.1 L 963.8 596.8 C 961.8 596.8 960.1 595.7 959.3 593.9 C 958.6 592.0 959.0 590.0 960.4 588.6 L 1065.6 484.1 C 1066.5 483.2 1067.8 482.7 1069.0 482.7 C 1070.2 482.7 1071.5 483.2 1072.4 484.1 L 1177.0 589.3 C 1178.4 590.7 1178.8 592.4 1178.0 594.2 C 1177.3 596.0 1175.5 596.7 1173.6 596.7 L 1173.5 596.7 L 1108.9 596.9 C 1118.2 705.3 1209.4 789.6 1318.8 789.6 C 1355.6 789.6 1391.8 780.1 1423.6 761.8 C 1447.9 747.8 1469.0 729.2 1486.2 706.7 C 1487.1 705.5 1488.5 704.7 1490.0 704.7 L 1490.1 704.7 C 1491.6 704.7 1493.0 705.6 1493.9 706.8 C 1507.4 725.1 1527.0 737.9 1549.2 742.7 C 1550.8 743.0 1552.1 744.2 1552.7 745.7 C 1553.2 747.3 1553.0 749.0 1552.0 750.3 C 1528.3 782.7 1497.4 810.3 1462.8 830.2 C 1419.2 855.2 1369.3 868.5 1318.8 868.5 M 1318.8 863.7 C 1368.5 863.7 1417.5 850.7 1460.4 826.0 C 1494.8 806.2 1524.7 779.4 1548.2 747.5 C 1524.5 742.4 1503.9 728.7 1490.0 709.9 C 1472.7 732.6 1450.8 751.8 1426.0 766.1 C 1393.5 784.8 1356.4 794.6 1318.8 794.6 C 1204.4 794.6 1110.6 705.1 1103.7 592.5 L 1173.6 592.7 L 1069.0 487.5 L 963.8 592.0 L 1034.5 592.3 C 1041.4 743.1 1166.2 863.7 1318.8 863.7 " fill="#69BB91"></path><text xml:space="preserve" font-family="MyriadPro-Semibold,Myriad Pro" font-weight="bold" font-size="69.7" fill="#000000" transform="matrix(0.77, 0.00, -0.00, -0.77, 1255.8, 610.0)">P</text><text xml:space="preserve" font-family="MyriadPro-Semibold,Myriad Pro" font-weight="bold" font-size="69.7" fill="#000000" transform="matrix(0.77, 0.00, -0.00, -0.77, 1285.3, 610.0)">r</text><text xml:space="preserve" font-family="MyriadPro-Semibold,Myriad Pro" font-weight="bold" font-size="69.7" fill="#000000" transform="matrix(0.77, 0.00, -0.00, -0.77, 1304.0, 610.0)">o</text><text xml:space="preserve" font-family="MyriadPro-Semibold,Myriad Pro" font-weight="bold" font-size="69.7" fill="#000000" transform="matrix(0.77, 0.00, -0.00, -0.77, 1334.3, 610.0)">o</text><text xml:space="preserve" font-family="MyriadPro-Semibold,Myriad Pro" font-weight="bold" font-size="69.7" fill="#000000" transform="matrix(0.77, 0.00, -0.00, -0.77, 1364.6, 610.0)">f</text><text xml:space="preserve" font-family="MyriadPro-Semibold,Myriad Pro" font-weight="bold" font-size="69.7" fill="#000000" transform="matrix(0.77, 0.00, -0.00, -0.77, 1295.0, 555.4)">o</text><text xml:space="preserve" font-family="MyriadPro-Semibold,Myriad Pro" font-weight="bold" font-size="69.7" fill="#000000" transform="matrix(0.77, 0.00, -0.00, -0.77, 1325.3, 555.4)">f</text><text xml:space="preserve" font-family="MyriadPro-Semibold,Myriad Pro" font-weight="bold" font-size="69.7" fill="#000000" transform="matrix(0.77, 0.00, -0.00, -0.77, 1212.8, 507.3)">R</text><text xml:space="preserve" font-family="MyriadPro-Semibold,Myriad Pro" font-weight="bold" font-size="69.7" fill="#000000" transform="matrix(0.77, 0.00, -0.00, -0.77, 1243.6, 507.3)">e</text><text xml:space="preserve" font-family="MyriadPro-Semibold,Myriad Pro" font-weight="bold" font-size="69.7" fill="#000000" transform="matrix(0.77, 0.00, -0.00, -0.77, 1271.3, 507.3)">s</text><text xml:space="preserve" font-family="MyriadPro-Semibold,Myriad Pro" font-weight="bold" font-size="69.7" fill="#000000" transform="matrix(0.77, 0.00, -0.00, -0.77, 1293.7, 507.3)">o</text><text xml:space="preserve" font-family="MyriadPro-Semibold,Myriad Pro" font-weight="bold" font-size="69.7" fill="#000000" transform="matrix(0.77, 0.00, -0.00, -0.77, 1324.1, 507.3)">u</text><text xml:space="preserve" font-family="MyriadPro-Semibold,Myriad Pro" font-weight="bold" font-size="69.7" fill="#000000" transform="matrix(0.77, 0.00, -0.00, -0.77, 1354.6, 507.3)">r</text><text xml:space="preserve" font-family="MyriadPro-Semibold,Myriad Pro" font-weight="bold" font-size="69.7" fill="#000000" transform="matrix(0.77, 0.00, -0.00, -0.77, 1373.3, 507.3)">c</text><text xml:space="preserve" font-family="MyriadPro-Semibold,Myriad Pro" font-weight="bold" font-size="69.7" fill="#000000" transform="matrix(0.77, 0.00, -0.00, -0.77, 1397.1, 507.3)">e</text><text xml:space="preserve" font-family="MyriadPro-Regular,Myriad Pro" font-size="25.6" fill="#000000" transform="matrix(0.77, 0.00, -0.00, -0.77, 1017.2, 569.1)">C</text><text xml:space="preserve" font-family="MyriadPro-Regular,Myriad Pro" font-size="25.6" fill="#000000" transform="matrix(0.77, 0.00, -0.00, -0.77, 1028.3, 569.1)">O</text><text xml:space="preserve" font-family="MyriadPro-Regular,Myriad Pro" font-size="25.6" fill="#000000" transform="matrix(0.77, 0.00, -0.00, -0.77, 1041.9, 569.1)">M</text><text xml:space="preserve" font-family="MyriadPro-Regular,Myriad Pro" font-size="25.6" fill="#000000" transform="matrix(0.77, 0.00, -0.00, -0.77, 1057.7, 569.1)">P</text><text xml:space="preserve" font-family="MyriadPro-Regular,Myriad Pro" font-size="25.6" fill="#000000" transform="matrix(0.77, 0.00, -0.00, -0.77, 1068.2, 569.1)">U</text><text xml:space="preserve" font-family="MyriadPro-Regular,Myriad Pro" font-size="25.6" fill="#000000" transform="matrix(0.77, 0.00, -0.00, -0.77, 1081.0, 569.1)">T</text><text xml:space="preserve" font-family="MyriadPro-Regular,Myriad Pro" font-size="25.6" fill="#000000" transform="matrix(0.77, 0.00, -0.00, -0.77, 1090.8, 569.1)">I</text><text xml:space="preserve" font-family="MyriadPro-Regular,Myriad Pro" font-size="25.6" fill="#000000" transform="matrix(0.77, 0.00, -0.00, -0.77, 1095.5, 569.1)">N</text><text xml:space="preserve" font-family="MyriadPro-Regular,Myriad Pro" font-size="25.6" fill="#000000" transform="matrix(0.77, 0.00, -0.00, -0.77, 1108.5, 569.1)">G</text><text xml:space="preserve" font-family="MyriadPro-Regular,Myriad Pro" font-size="25.6" fill="#000000" transform="matrix(0.77, 0.00, -0.00, -0.77, 1020.2, 549.9)">R</text><text xml:space="preserve" font-family="MyriadPro-Regular,Myriad Pro" font-size="25.6" fill="#000000" transform="matrix(0.77, 0.00, -0.00, -0.77, 1030.9, 549.9)">E</text><text xml:space="preserve" font-family="MyriadPro-Regular,Myriad Pro" font-size="25.6" fill="#000000" transform="matrix(0.77, 0.00, -0.00, -0.77, 1040.6, 549.9)">S</text><text xml:space="preserve" font-family="MyriadPro-Regular,Myriad Pro" font-size="25.6" fill="#000000" transform="matrix(0.77, 0.00, -0.00, -0.77, 1050.3, 549.9)">O</text><text xml:space="preserve" font-family="MyriadPro-Regular,Myriad Pro" font-size="25.6" fill="#000000" transform="matrix(0.77, 0.00, -0.00, -0.77, 1063.9, 549.9)">U</text><text xml:space="preserve" font-family="MyriadPro-Regular,Myriad Pro" font-size="25.6" fill="#000000" transform="matrix(0.77, 0.00, -0.00, -0.77, 1076.7, 549.9)">R</text><text xml:space="preserve" font-family="MyriadPro-Regular,Myriad Pro" font-size="25.6" fill="#000000" transform="matrix(0.77, 0.00, -0.00, -0.77, 1087.3, 549.9)">C</text><text xml:space="preserve" font-family="MyriadPro-Regular,Myriad Pro" font-size="25.6" fill="#000000" transform="matrix(0.77, 0.00, -0.00, -0.77, 1098.8, 549.9)">E</text><text xml:space="preserve" font-family="MyriadPro-Regular,Myriad Pro" font-size="25.6" fill="#000000" transform="matrix(0.77, 0.00, -0.00, -0.77, 1108.5, 549.9)">S</text><text xml:space="preserve" font-family="MyriadPro-Regular,Myriad Pro" font-size="37.5" fill="#000000" transform="matrix(0.20, 0.75, 0.75, -0.20, 1084.2, 632.5)">C</text><text xml:space="preserve" font-family="MyriadPro-Regular,Myriad Pro" font-size="37.5" fill="#000000" transform="matrix(0.24, 0.73, 0.73, -0.24, 1088.2, 647.9)">P</text><text xml:space="preserve" font-family="MyriadPro-Regular,Myriad Pro" font-size="37.5" fill="#000000" transform="matrix(0.29, 0.71, 0.71, -0.29, 1092.7, 661.6)">U</text><text xml:space="preserve" font-family="MyriadPro-Regular,Myriad Pro" font-size="37.5" fill="#000000" transform="matrix(0.33, 0.70, 0.70, -0.33, 1099.6, 678.2)"> </text><text xml:space="preserve" font-family="MyriadPro-Regular,Myriad Pro" font-size="37.5" fill="#000000" transform="matrix(0.35, 0.69, 0.69, -0.35, 1102.0, 683.4)">•</text><text xml:space="preserve" font-family="MyriadPro-Regular,Myriad Pro" font-size="37.5" fill="#000000" transform="matrix(0.37, 0.68, 0.68, -0.37, 1105.5, 690.3)"> </text><text xml:space="preserve" font-family="MyriadPro-Regular,Myriad Pro" font-size="37.5" fill="#000000" transform="matrix(0.39, 0.66, 0.66, -0.39, 1108.1, 695.2)">S</text><text xml:space="preserve" font-family="MyriadPro-Regular,Myriad Pro" font-size="37.5" fill="#000000" transform="matrix(0.43, 0.64, 0.64, -0.43, 1114.9, 706.8)">T</text><text xml:space="preserve" font-family="MyriadPro-Regular,Myriad Pro" font-size="37.5" fill="#000000" transform="matrix(0.47, 0.61, 0.61, -0.47, 1121.8, 717.4)">O</text><text xml:space="preserve" font-family="MyriadPro-Regular,Myriad Pro" font-size="37.5" fill="#000000" transform="matrix(0.51, 0.58, 0.58, -0.51, 1133.4, 732.4)">R</text><text xml:space="preserve" font-family="MyriadPro-Regular,Myriad Pro" font-size="37.5" fill="#000000" transform="matrix(0.55, 0.54, 0.54, -0.55, 1143.1, 743.5)">A</text><text xml:space="preserve" font-family="MyriadPro-Regular,Myriad Pro" font-size="37.5" fill="#000000" transform="matrix(0.58, 0.50, 0.50, -0.58, 1154.6, 755.0)">G</text><text xml:space="preserve" font-family="MyriadPro-Regular,Myriad Pro" font-size="37.5" fill="#000000" transform="matrix(0.61, 0.47, 0.47, -0.61, 1168.1, 766.6)">E</text><text xml:space="preserve" font-family="MyriadPro-Regular,Myriad Pro" font-size="37.5" fill="#000000" transform="matrix(0.63, 0.44, 0.44, -0.63, 1179.0, 774.8)"> </text><text xml:space="preserve" font-family="MyriadPro-Regular,Myriad Pro" font-size="37.5" fill="#000000" transform="matrix(0.64, 0.42, 0.42, -0.64, 1183.7, 778.1)">•</text><text xml:space="preserve" font-family="MyriadPro-Regular,Myriad Pro" font-size="37.5" fill="#000000" transform="matrix(0.66, 0.40, 0.40, -0.66, 1190.2, 782.3)"> </text><text xml:space="preserve" font-family="MyriadPro-Regular,Myriad Pro" font-size="37.5" fill="#000000" transform="matrix(0.67, 0.38, 0.38, -0.67, 1194.8, 785.3)">B</text><text xml:space="preserve" font-family="MyriadPro-Regular,Myriad Pro" font-size="37.5" fill="#000000" transform="matrix(0.70, 0.33, 0.33, -0.70, 1207.7, 792.6)">A</text><text xml:space="preserve" font-family="MyriadPro-Regular,Myriad Pro" font-size="37.5" fill="#000000" transform="matrix(0.72, 0.28, 0.28, -0.72, 1222.7, 799.8)">N</text><text xml:space="preserve" font-family="MyriadPro-Regular,Myriad Pro" font-size="37.5" fill="#000000" transform="matrix(0.74, 0.22, 0.22, -0.74, 1239.4, 806.3)">D</text><text xml:space="preserve" font-family="MyriadPro-Regular,Myriad Pro" font-size="37.5" fill="#000000" transform="matrix(0.75, 0.16, 0.16, -0.75, 1256.6, 811.7)">W</text><text xml:space="preserve" font-family="MyriadPro-Regular,Myriad Pro" font-size="37.5" fill="#000000" transform="matrix(0.76, 0.11, 0.11, -0.76, 1279.7, 816.4)">I</text><text xml:space="preserve" font-family="MyriadPro-Regular,Myriad Pro" font-size="37.5" fill="#000000" transform="matrix(0.77, 0.07, 0.07, -0.77, 1285.8, 817.5)">D</text><text xml:space="preserve" font-family="MyriadPro-Regular,Myriad Pro" font-size="37.5" fill="#000000" transform="matrix(0.77, 0.03, 0.03, -0.77, 1303.3, 819.1)">T</text><text xml:space="preserve" font-family="MyriadPro-Regular,Myriad Pro" font-size="37.5" fill="#000000" transform="matrix(0.77, -0.02, -0.02, -0.77, 1316.8, 819.7)">H</text><text xml:space="preserve" font-family="MyriadPro-Regular,Myriad Pro" font-size="37.5" fill="#000000" transform="matrix(0.77, -0.06, -0.06, -0.77, 1334.9, 819.0)"> </text><text xml:space="preserve" font-family="MyriadPro-Regular,Myriad Pro" font-size="37.5" fill="#000000" transform="matrix(0.77, -0.08, -0.08, -0.77, 1340.6, 818.6)">•</text><text xml:space="preserve" font-family="MyriadPro-Regular,Myriad Pro" font-size="37.5" fill="#000000" transform="matrix(0.76, -0.10, -0.10, -0.76, 1348.4, 817.7)"> </text><text xml:space="preserve" font-family="MyriadPro-Regular,Myriad Pro" font-size="37.5" fill="#000000" transform="matrix(0.76, -0.14, -0.14, -0.76, 1353.7, 817.2)">O</text><text xml:space="preserve" font-family="MyriadPro-Regular,Myriad Pro" font-size="37.5" fill="#000000" transform="matrix(0.74, -0.20, -0.20, -0.74, 1372.2, 813.7)">N</text><text xml:space="preserve" font-family="MyriadPro-Regular,Myriad Pro" font-size="37.5" fill="#000000" transform="matrix(0.73, -0.25, -0.25, -0.73, 1389.7, 809.0)">L</text><text xml:space="preserve" font-family="MyriadPro-Regular,Myriad Pro" font-size="37.5" fill="#000000" transform="matrix(0.72, -0.28, -0.28, -0.72, 1402.0, 804.7)">I</text><text xml:space="preserve" font-family="MyriadPro-Regular,Myriad Pro" font-size="37.5" fill="#000000" transform="matrix(0.70, -0.31, -0.31, -0.70, 1407.9, 802.7)">N</text><text xml:space="preserve" font-family="MyriadPro-Regular,Myriad Pro" font-size="37.5" fill="#000000" transform="matrix(0.68, -0.36, -0.36, -0.68, 1424.4, 795.3)">E</text><text xml:space="preserve" font-family="MyriadPro-Regular,Myriad Pro" font-size="37.5" fill="#000000" transform="matrix(0.67, -0.39, -0.39, -0.67, 1436.4, 788.8)"> </text><text xml:space="preserve" font-family="MyriadPro-Regular,Myriad Pro" font-size="37.5" fill="#000000" transform="matrix(0.65, -0.41, -0.41, -0.65, 1440.3, 786.7)">T</text><text xml:space="preserve" font-family="MyriadPro-Regular,Myriad Pro" font-size="37.5" fill="#000000" transform="matrix(0.64, -0.44, -0.44, -0.64, 1451.9, 779.3)">I</text><text xml:space="preserve" font-family="MyriadPro-Regular,Myriad Pro" font-size="37.5" fill="#000000" transform="matrix(0.61, -0.47, -0.47, -0.61, 1457.1, 776.1)">M</text><text xml:space="preserve" font-family="MyriadPro-Regular,Myriad Pro" font-size="37.5" fill="#000000" transform="matrix(0.57, -0.52, -0.52, -0.57, 1474.5, 762.4)">E</text><path d="M 1602.9 548.1 L 1673.6 547.8 L 1569.1 653.0 L 1463.9 548.5 L 1533.7 548.3 C 1533.2 539.7 1532.1 531.3 1530.5 523.0 C 1495.1 517.4 1468.0 486.7 1468.0 449.7 C 1468.0 437.5 1470.9 426.1 1476.1 416.0 C 1465.0 404.2 1452.7 393.6 1439.3 384.5 C 1426.1 396.3 1408.7 403.5 1389.7 403.5 C 1355.0 403.5 1325.8 379.7 1317.7 347.5 C 1301.7 347.6 1286.1 349.4 1271.0 352.8 C 1267.9 391.1 1235.9 421.2 1196.9 421.2 C 1185.0 421.2 1173.7 418.3 1163.7 413.3 C 1158.4 418.8 1153.4 424.6 1148.7 430.7 C 1135.0 411.6 1114.7 397.7 1091.1 392.4 C 1100.8 379.5 1111.5 367.4 1123.2 356.3 C 1122.8 353.2 1122.6 350.1 1122.6 346.9 C 1122.6 305.8 1155.9 272.6 1196.9 272.6 C 1214.4 272.6 1230.4 278.6 1243.1 288.7 C 1267.7 282.0 1293.1 278.5 1318.8 278.5 C 1324.2 278.5 1329.6 278.6 1335.0 278.9 C 1348.6 264.2 1368.0 254.9 1389.7 254.9 C 1426.8 254.9 1457.5 282.1 1463.1 317.7 C 1483.5 329.7 1502.5 344.4 1519.7 361.5 C 1524.4 366.2 1528.9 371.0 1533.2 375.9 C 1536.2 375.6 1539.2 375.4 1542.3 375.4 C 1583.3 375.4 1616.6 408.6 1616.6 449.7 C 1616.6 469.3 1608.9 487.2 1596.5 500.5 C 1599.9 516.0 1602.1 531.9 1602.9 548.1 " fill="#CAE2F7"></path><path d="M 1335.0 281.3 C 1335.6 281.3 1336.3 281.1 1336.8 280.6 C 1350.3 265.8 1369.6 257.3 1389.7 257.3 C 1425.3 257.3 1455.2 282.8 1460.7 318.0 C 1460.8 318.7 1461.2 319.4 1461.9 319.7 C 1482.2 331.8 1501.1 346.4 1518.0 363.2 C 1522.6 367.8 1527.1 372.6 1531.4 377.5 C 1531.9 378.1 1532.7 378.4 1533.5 378.3 C 1536.6 378.0 1539.4 377.8 1542.3 377.8 C 1581.9 377.8 1614.2 410.0 1614.2 449.7 C 1614.2 468.0 1607.3 485.5 1594.7 498.9 C 1594.2 499.4 1593.9 500.2 1594.1 501.0 C 1597.6 516.5 1599.7 532.4 1600.5 548.2 C 1600.6 549.5 1601.7 550.5 1603.0 550.5 L 1667.8 550.3 L 1569.1 649.6 L 1469.7 550.9 L 1533.7 550.7 C 1534.4 550.7 1535.1 550.4 1535.5 549.9 C 1536.0 549.4 1536.2 548.8 1536.1 548.1 C 1535.6 539.6 1534.5 531.0 1532.9 522.6 C 1532.7 521.6 1531.9 520.8 1530.9 520.7 C 1495.8 515.1 1470.4 485.2 1470.4 449.7 C 1470.4 438.2 1473.0 427.3 1478.2 417.1 C 1478.7 416.2 1478.5 415.1 1477.8 414.3 C 1466.6 402.4 1454.1 391.7 1440.6 382.5 C 1439.7 381.9 1438.5 382.0 1437.7 382.7 C 1424.5 394.6 1407.4 401.1 1389.7 401.1 C 1356.7 401.1 1328.1 378.8 1320.0 347.0 C 1319.7 345.9 1318.7 345.2 1317.6 345.1 C 1301.7 345.2 1285.8 347.0 1270.4 350.5 C 1269.4 350.7 1268.6 351.6 1268.6 352.6 C 1265.6 389.7 1234.1 418.8 1196.9 418.8 C 1185.6 418.8 1174.8 416.2 1164.8 411.2 C 1163.8 410.7 1162.7 410.9 1161.9 411.7 C 1157.3 416.5 1152.8 421.6 1148.7 426.7 C 1135.3 409.2 1116.5 396.6 1095.2 390.9 C 1104.2 379.3 1114.1 368.3 1124.9 358.1 C 1125.4 357.6 1125.7 356.8 1125.6 356.0 C 1125.2 352.9 1125.0 349.9 1125.0 346.9 C 1125.0 307.2 1157.3 275.0 1196.9 275.0 C 1213.3 275.0 1228.8 280.4 1241.6 290.6 C 1242.2 291.1 1243.0 291.2 1243.8 291.0 C 1268.3 284.3 1293.5 280.9 1318.8 280.9 C 1323.9 280.9 1329.3 281.0 1334.8 281.3 C 1334.9 281.3 1334.9 281.3 1335.0 281.3 M 1389.7 252.5 C 1368.7 252.5 1348.4 261.2 1334.0 276.5 C 1328.7 276.2 1323.6 276.0 1318.8 276.0 C 1293.5 276.0 1268.2 279.4 1243.7 286.1 C 1230.1 275.7 1214.0 270.2 1196.9 270.2 C 1154.6 270.2 1120.2 304.6 1120.2 346.9 C 1120.2 349.6 1120.4 352.5 1120.7 355.4 C 1109.2 366.4 1098.6 378.3 1089.1 390.9 C 1088.6 391.6 1088.5 392.4 1088.8 393.2 C 1089.1 393.9 1089.7 394.5 1090.5 394.7 C 1113.1 399.9 1133.1 413.1 1146.7 432.1 C 1147.2 432.7 1147.9 433.1 1148.6 433.1 C 1149.4 433.1 1150.1 432.8 1150.6 432.1 C 1154.8 426.7 1159.4 421.4 1164.2 416.3 C 1174.5 421.1 1185.5 423.6 1196.9 423.6 C 1236.0 423.6 1269.2 393.5 1273.2 354.8 C 1287.1 351.8 1301.4 350.2 1315.8 350.0 C 1325.1 383.0 1355.2 405.9 1389.7 405.9 C 1408.0 405.9 1425.6 399.4 1439.4 387.6 C 1451.6 396.0 1462.9 405.7 1473.2 416.4 C 1468.1 426.8 1465.6 438.0 1465.6 449.7 C 1465.6 487.0 1491.9 518.5 1528.4 525.1 C 1529.7 532.0 1530.6 539.0 1531.1 545.9 L 1463.8 546.1 C 1462.9 546.1 1462.0 546.7 1461.6 547.6 C 1461.3 548.5 1461.5 549.5 1462.2 550.2 L 1567.4 654.7 C 1568.3 655.7 1569.9 655.7 1570.8 654.7 L 1675.4 549.5 C 1676.0 548.9 1676.2 548.0 1675.9 547.1 C 1675.5 546.2 1674.6 545.9 1673.6 545.9 L 1673.6 545.9 L 1605.2 545.9 C 1604.3 530.9 1602.3 515.9 1599.1 501.3 C 1611.9 487.2 1619.0 468.9 1619.0 449.7 C 1619.0 407.4 1584.6 373.0 1542.3 373.0 C 1539.6 373.0 1537.0 373.1 1534.2 373.4 C 1530.1 368.8 1525.8 364.2 1521.4 359.8 C 1504.5 343.0 1485.6 328.3 1465.3 316.2 C 1459.0 279.2 1427.3 252.5 1389.7 252.5 " fill="#5492D6"></path><text xml:space="preserve" font-family="MyriadPro-Regular,Myriad Pro" font-size="25.0" fill="#000000" transform="matrix(0.77, 0.00, -0.00, -0.77, 1152.2, 371.9)">C</text><text xml:space="preserve" font-family="MyriadPro-Regular,Myriad Pro" font-size="25.0" fill="#000000" transform="matrix(0.77, 0.00, -0.00, -0.77, 1163.2, 371.9)">o</text><text xml:space="preserve" font-family="MyriadPro-Regular,Myriad Pro" font-size="25.0" fill="#000000" transform="matrix(0.77, 0.00, -0.00, -0.77, 1173.8, 371.9)">n</text><text xml:space="preserve" font-family="MyriadPro-Regular,Myriad Pro" font-size="25.0" fill="#000000" transform="matrix(0.77, 0.00, -0.00, -0.77, 1184.5, 371.9)">s</text><text xml:space="preserve" font-family="MyriadPro-Regular,Myriad Pro" font-size="25.0" fill="#000000" transform="matrix(0.77, 0.00, -0.00, -0.77, 1192.1, 371.9)">t</text><text xml:space="preserve" font-family="MyriadPro-Regular,Myriad Pro" font-size="25.0" fill="#000000" transform="matrix(0.77, 0.00, -0.00, -0.77, 1198.5, 371.9)">a</text><text xml:space="preserve" font-family="MyriadPro-Regular,Myriad Pro" font-size="25.0" fill="#000000" transform="matrix(0.77, 0.00, -0.00, -0.77, 1207.8, 371.9)">n</text><text xml:space="preserve" font-family="MyriadPro-Regular,Myriad Pro" font-size="25.0" fill="#000000" transform="matrix(0.77, 0.00, -0.00, -0.77, 1218.4, 371.9)">t</text><text xml:space="preserve" font-family="MyriadPro-Regular,Myriad Pro" font-size="25.0" fill="#000000" transform="matrix(0.77, 0.00, -0.00, -0.77, 1224.8, 371.9)">l</text><text xml:space="preserve" font-family="MyriadPro-Regular,Myriad Pro" font-size="25.0" fill="#000000" transform="matrix(0.77, 0.00, -0.00, -0.77, 1229.3, 371.9)">y</text><text xml:space="preserve" font-family="MyriadPro-Regular,Myriad Pro" font-size="25.0" fill="#000000" transform="matrix(0.77, 0.00, -0.00, -0.77, 1157.0, 348.8)">m</text><text xml:space="preserve" font-family="MyriadPro-Regular,Myriad Pro" font-size="25.0" fill="#000000" transform="matrix(0.77, 0.00, -0.00, -0.77, 1173.0, 348.8)">e</text><text xml:space="preserve" font-family="MyriadPro-Regular,Myriad Pro" font-size="25.0" fill="#000000" transform="matrix(0.77, 0.00, -0.00, -0.77, 1182.7, 348.8)">a</text><text xml:space="preserve" font-family="MyriadPro-Regular,Myriad Pro" font-size="25.0" fill="#000000" transform="matrix(0.77, 0.00, -0.00, -0.77, 1192.0, 348.8)">s</text><text xml:space="preserve" font-family="MyriadPro-Regular,Myriad Pro" font-size="25.0" fill="#000000" transform="matrix(0.77, 0.00, -0.00, -0.77, 1199.6, 348.8)">u</text><text xml:space="preserve" font-family="MyriadPro-Regular,Myriad Pro" font-size="25.0" fill="#000000" transform="matrix(0.77, 0.00, -0.00, -0.77, 1210.2, 348.8)">r</text><text xml:space="preserve" font-family="MyriadPro-Regular,Myriad Pro" font-size="25.0" fill="#000000" transform="matrix(0.77, 0.00, -0.00, -0.77, 1216.4, 348.8)">e</text><text xml:space="preserve" font-family="MyriadPro-Regular,Myriad Pro" font-size="25.0" fill="#000000" transform="matrix(0.77, 0.00, -0.00, -0.77, 1226.0, 348.8)">s</text></g></g><g><clipPath id="clip0x6080120aa800"><path d="M 932.0 946.0 L 1703.0 946.0 L 1703.0 175.0 L 932.0 175.0 Z M 932.0 946.0 "></path></clipPath><g clip-path="url(#clip0x6080120aa800)"><g><clipPath id="clip0x6080120aa980"><path d="M 932.0 175.0 L 1703.0 175.0 L 1703.0 946.0 L 932.0 946.0 Z M 932.0 175.0 "></path></clipPath><g clip-path="url(#clip0x6080120aa980)"><path d="M 1225.2 327.4 C 1225.7 327.0 1226.6 326.7 1227.5 326.7 C 1228.7 326.7 1229.3 327.3 1229.3 328.1 C 1229.3 328.9 1228.8 329.3 1227.5 329.8 C 1225.9 330.4 1225.1 331.3 1225.1 332.4 C 1225.1 333.9 1226.3 335.2 1228.3 335.2 C 1229.2 335.2 1230.1 334.9 1230.6 334.6 L 1230.1 333.4 C 1229.8 333.6 1229.1 333.9 1228.2 333.9 C 1227.2 333.9 1226.7 333.3 1226.7 332.6 C 1226.7 331.9 1227.2 331.5 1228.5 331.0 C 1230.1 330.4 1230.9 329.6 1230.9 328.2 C 1230.9 326.6 1229.6 325.4 1227.4 325.4 C 1226.4 325.4 1225.4 325.7 1224.8 326.1 Z M 1221.7 331.2 C 1221.7 332.3 1221.3 334.0 1219.4 334.0 C 1217.6 334.0 1216.9 332.4 1216.8 331.2 Z M 1216.7 330.0 C 1216.8 327.7 1218.2 326.7 1219.9 326.7 C 1221.1 326.7 1221.9 327.0 1222.5 327.2 L 1222.8 326.0 C 1222.2 325.7 1221.2 325.4 1219.7 325.4 C 1216.8 325.4 1215.1 327.3 1215.1 330.1 C 1215.1 332.9 1216.8 335.2 1219.5 335.2 C 1222.5 335.2 1223.3 332.5 1223.3 330.8 C 1223.3 330.4 1223.3 330.2 1223.3 330.0 Z M 1205.9 325.6 L 1205.9 333.7 L 1204.6 333.7 L 1204.6 335.0 L 1205.9 335.0 L 1205.9 335.5 C 1205.9 337.9 1207.3 339.5 1209.9 339.5 C 1210.8 339.5 1211.8 339.3 1212.3 338.9 L 1211.8 337.6 C 1211.4 337.9 1210.7 338.2 1209.9 338.2 C 1208.1 338.2 1207.6 336.9 1207.6 335.4 L 1207.6 335.0 L 1213.0 335.0 L 1213.0 325.6 L 1211.3 325.6 L 1211.3 333.7 L 1207.6 333.7 L 1207.6 325.6 Z M 1201.2 335.0 L 1202.9 335.0 L 1202.9 325.6 L 1201.2 325.6 Z M 1203.1 337.6 C 1203.1 337.0 1202.7 336.5 1202.0 336.5 C 1201.4 336.5 1201.0 337.0 1201.0 337.6 C 1201.0 338.2 1201.4 338.6 1202.0 338.6 C 1202.7 338.6 1203.1 338.2 1203.1 337.6 M 1194.8 332.0 C 1194.8 333.1 1194.8 334.1 1194.7 335.0 L 1196.2 335.0 L 1196.3 333.1 L 1196.4 333.1 C 1196.8 334.4 1197.8 335.2 1198.9 335.2 C 1199.1 335.2 1199.3 335.1 1199.4 335.1 L 1199.4 333.5 C 1199.2 333.5 1199.1 333.6 1198.8 333.6 C 1197.7 333.6 1196.8 332.7 1196.6 331.4 C 1196.5 331.2 1196.5 330.9 1196.5 330.6 L 1196.5 325.6 L 1194.8 325.6 Z M 1191.1 331.2 C 1191.1 332.3 1190.6 334.0 1188.7 334.0 C 1187.0 334.0 1186.3 332.4 1186.1 331.2 Z M 1186.1 330.0 C 1186.1 327.7 1187.6 326.7 1189.3 326.7 C 1190.5 326.7 1191.2 327.0 1191.9 327.2 L 1192.2 326.0 C 1191.6 325.7 1190.6 325.4 1189.1 325.4 C 1186.2 325.4 1184.5 327.3 1184.5 330.1 C 1184.5 332.9 1186.1 335.2 1188.9 335.2 C 1191.9 335.2 1192.7 332.5 1192.7 330.8 C 1192.7 330.4 1192.7 330.2 1192.7 330.0 Z M 1176.7 335.0 L 1178.6 329.7 C 1178.9 328.9 1179.1 328.1 1179.3 327.3 L 1179.4 327.3 C 1179.6 328.1 1179.9 328.9 1180.2 329.7 L 1182.0 335.0 L 1183.8 335.0 L 1180.1 325.6 L 1178.5 325.6 L 1174.9 335.0 Z M 1162.5 335.8 C 1162.5 334.9 1163.0 334.1 1163.5 333.5 C 1164.8 334.2 1165.7 334.9 1165.7 336.0 C 1165.7 336.8 1165.2 337.7 1164.2 337.7 C 1163.1 337.7 1162.5 336.8 1162.5 335.8 M 1166.5 327.9 C 1165.7 328.7 1164.3 330.3 1162.8 331.9 C 1162.1 331.5 1161.1 330.7 1161.1 329.3 C 1161.1 327.8 1162.2 326.7 1163.8 326.7 C 1164.9 326.7 1165.9 327.2 1166.5 327.9 M 1168.5 325.6 C 1168.2 326.0 1167.8 326.4 1167.3 326.9 C 1166.2 325.9 1164.9 325.4 1163.5 325.4 C 1161.0 325.4 1159.5 327.1 1159.5 329.1 C 1159.5 330.8 1160.6 332.0 1162.1 332.9 L 1162.1 332.9 C 1161.4 333.8 1161.0 334.7 1161.0 335.6 C 1161.0 337.2 1162.1 338.8 1164.3 338.8 C 1165.9 338.8 1167.2 337.7 1167.2 336.1 C 1167.2 334.7 1166.4 333.6 1164.3 332.6 L 1164.3 332.5 C 1165.4 331.3 1166.6 329.8 1167.5 328.9 C 1168.1 329.8 1168.5 331.1 1168.7 332.7 L 1170.3 332.7 C 1169.9 330.7 1169.4 329.1 1168.4 327.9 C 1169.1 327.2 1169.8 326.5 1170.5 325.6 Z M 1168.5 325.6 " fill="#000000"></path></g></g></g></g><g><clipPath id="clip0x6080120aabc0"><path d="M 932.0 175.0 L 1703.0 175.0 L 1703.0 946.0 L 932.0 946.0 Z M 932.0 175.0 "></path></clipPath><g clip-path="url(#clip0x6080120aabc0)"><text xml:space="preserve" font-family="MyriadPro-Regular,Myriad Pro" font-size="25.0" fill="#000000" transform="matrix(0.77, 0.00, -0.00, -0.77, 1160.9, 302.5)">r</text><text xml:space="preserve" font-family="MyriadPro-Regular,Myriad Pro" font-size="25.0" fill="#000000" transform="matrix(0.77, 0.00, -0.00, -0.77, 1167.0, 302.5)">e</text><text xml:space="preserve" font-family="MyriadPro-Regular,Myriad Pro" font-size="25.0" fill="#000000" transform="matrix(0.77, 0.00, -0.00, -0.77, 1176.6, 302.5)">s</text><text xml:space="preserve" font-family="MyriadPro-Regular,Myriad Pro" font-size="25.0" fill="#000000" transform="matrix(0.77, 0.00, -0.00, -0.77, 1184.3, 302.5)">o</text><text xml:space="preserve" font-family="MyriadPro-Regular,Myriad Pro" font-size="25.0" fill="#000000" transform="matrix(0.77, 0.00, -0.00, -0.77, 1194.8, 302.5)">u</text><text xml:space="preserve" font-family="MyriadPro-Regular,Myriad Pro" font-size="25.0" fill="#000000" transform="matrix(0.77, 0.00, -0.00, -0.77, 1205.5, 302.5)">r</text><text xml:space="preserve" font-family="MyriadPro-Regular,Myriad Pro" font-size="25.0" fill="#000000" transform="matrix(0.77, 0.00, -0.00, -0.77, 1211.6, 302.5)">c</text><text xml:space="preserve" font-family="MyriadPro-Regular,Myriad Pro" font-size="25.0" fill="#000000" transform="matrix(0.77, 0.00, -0.00, -0.77, 1220.1, 302.5)">e</text><text xml:space="preserve" font-family="MyriadPro-Regular,Myriad Pro" font-size="25.0" fill="#000000" transform="matrix(0.77, 0.00, -0.00, -0.77, 1353.1, 355.8)">R</text><text xml:space="preserve" font-family="MyriadPro-Regular,Myriad Pro" font-size="25.0" fill="#000000" transform="matrix(0.77, 0.00, -0.00, -0.77, 1363.5, 355.8)">e</text><text xml:space="preserve" font-family="MyriadPro-Regular,Myriad Pro" font-size="25.0" fill="#000000" transform="matrix(0.77, 0.00, -0.00, -0.77, 1373.2, 355.8)">s</text><text xml:space="preserve" font-family="MyriadPro-Regular,Myriad Pro" font-size="25.0" fill="#000000" transform="matrix(0.77, 0.00, -0.00, -0.77, 1380.8, 355.8)">o</text><text xml:space="preserve" font-family="MyriadPro-Regular,Myriad Pro" font-size="25.0" fill="#000000" transform="matrix(0.77, 0.00, -0.00, -0.77, 1391.4, 355.8)">u</text><text xml:space="preserve" font-family="MyriadPro-Regular,Myriad Pro" font-size="25.0" fill="#000000" transform="matrix(0.77, 0.00, -0.00, -0.77, 1402.0, 355.8)">r</text><text xml:space="preserve" font-family="MyriadPro-Regular,Myriad Pro" font-size="25.0" fill="#000000" transform="matrix(0.77, 0.00, -0.00, -0.77, 1408.1, 355.8)">c</text><text xml:space="preserve" font-family="MyriadPro-Regular,Myriad Pro" font-size="25.0" fill="#000000" transform="matrix(0.77, 0.00, -0.00, -0.77, 1416.6, 355.8)">e</text><text xml:space="preserve" font-family="MyriadPro-Regular,Myriad Pro" font-size="25.0" fill="#000000" transform="matrix(0.77, 0.00, -0.00, -0.77, 1353.3, 332.7)">p</text><text xml:space="preserve" font-family="MyriadPro-Regular,Myriad Pro" font-size="25.0" fill="#000000" transform="matrix(0.77, 0.00, -0.00, -0.77, 1364.3, 332.7)">r</text><text xml:space="preserve" font-family="MyriadPro-Regular,Myriad Pro" font-size="25.0" fill="#000000" transform="matrix(0.77, 0.00, -0.00, -0.77, 1370.4, 332.7)">o</text><text xml:space="preserve" font-family="MyriadPro-Regular,Myriad Pro" font-size="25.0" fill="#000000" transform="matrix(0.77, 0.00, -0.00, -0.77, 1380.9, 332.7)">v</text><text xml:space="preserve" font-family="MyriadPro-Regular,Myriad Pro" font-size="25.0" fill="#000000" transform="matrix(0.77, 0.00, -0.00, -0.77, 1390.1, 332.7)">i</text><text xml:space="preserve" font-family="MyriadPro-Regular,Myriad Pro" font-size="25.0" fill="#000000" transform="matrix(0.77, 0.00, -0.00, -0.77, 1394.6, 332.7)">d</text><text xml:space="preserve" font-family="MyriadPro-Regular,Myriad Pro" font-size="25.0" fill="#000000" transform="matrix(0.77, 0.00, -0.00, -0.77, 1405.5, 332.7)">e</text><text xml:space="preserve" font-family="MyriadPro-Regular,Myriad Pro" font-size="25.0" fill="#000000" transform="matrix(0.77, 0.00, -0.00, -0.77, 1415.2, 332.7)">d</text><text xml:space="preserve" font-family="MyriadPro-Regular,Myriad Pro" font-size="25.0" fill="#000000" transform="matrix(0.77, 0.00, -0.00, -0.77, 1338.8, 309.6)">m</text><text xml:space="preserve" font-family="MyriadPro-Regular,Myriad Pro" font-size="25.0" fill="#000000" transform="matrix(0.77, 0.00, -0.00, -0.77, 1354.9, 309.6)">u</text><text xml:space="preserve" font-family="MyriadPro-Regular,Myriad Pro" font-size="25.0" fill="#000000" transform="matrix(0.77, 0.00, -0.00, -0.77, 1365.5, 309.6)">s</text><text xml:space="preserve" font-family="MyriadPro-Regular,Myriad Pro" font-size="25.0" fill="#000000" transform="matrix(0.77, 0.00, -0.00, -0.77, 1373.1, 309.6)">t</text><text xml:space="preserve" font-family="MyriadPro-Regular,Myriad Pro" font-size="25.0" fill="#000000" transform="matrix(0.77, 0.00, -0.00, -0.77, 1379.5, 309.6)"> </text><text xml:space="preserve" font-family="MyriadPro-Regular,Myriad Pro" font-size="25.0" fill="#000000" transform="matrix(0.77, 0.00, -0.00, -0.77, 1383.6, 309.6)">e</text><text xml:space="preserve" font-family="MyriadPro-Regular,Myriad Pro" font-size="25.0" fill="#000000" transform="matrix(0.77, 0.00, -0.00, -0.77, 1393.2, 309.6)">x</text><text xml:space="preserve" font-family="MyriadPro-Regular,Myriad Pro" font-size="25.0" fill="#000000" transform="matrix(0.77, 0.00, -0.00, -0.77, 1401.9, 309.6)">c</text><text xml:space="preserve" font-family="MyriadPro-Regular,Myriad Pro" font-size="25.0" fill="#000000" transform="matrix(0.77, 0.00, -0.00, -0.77, 1410.4, 309.6)">e</text><text xml:space="preserve" font-family="MyriadPro-Regular,Myriad Pro" font-size="25.0" fill="#000000" transform="matrix(0.77, 0.00, -0.00, -0.77, 1420.1, 309.6)">e</text><text xml:space="preserve" font-family="MyriadPro-Regular,Myriad Pro" font-size="25.0" fill="#000000" transform="matrix(0.77, 0.00, -0.00, -0.77, 1429.7, 309.6)">d</text><text xml:space="preserve" font-family="MyriadPro-Regular,Myriad Pro" font-size="25.0" fill="#000000" transform="matrix(0.77, 0.00, -0.00, -0.77, 1365.7, 286.4)">u</text><text xml:space="preserve" font-family="MyriadPro-Regular,Myriad Pro" font-size="25.0" fill="#000000" transform="matrix(0.77, 0.00, -0.00, -0.77, 1376.3, 286.4)">s</text><text xml:space="preserve" font-family="MyriadPro-Regular,Myriad Pro" font-size="25.0" fill="#000000" transform="matrix(0.77, 0.00, -0.00, -0.77, 1384.0, 286.4)">a</text><text xml:space="preserve" font-family="MyriadPro-Regular,Myriad Pro" font-size="25.0" fill="#000000" transform="matrix(0.77, 0.00, -0.00, -0.77, 1393.2, 286.4)">g</text><text xml:space="preserve" font-family="MyriadPro-Regular,Myriad Pro" font-size="25.0" fill="#000000" transform="matrix(0.77, 0.00, -0.00, -0.77, 1404.0, 286.4)">e</text><text xml:space="preserve" font-family="MyriadPro-Regular,Myriad Pro" font-size="25.0" fill="#000000" transform="matrix(0.77, 0.00, -0.00, -0.77, 1497.5, 477.9)">S</text><text xml:space="preserve" font-family="MyriadPro-Regular,Myriad Pro" font-size="25.0" fill="#000000" transform="matrix(0.77, 0.00, -0.00, -0.77, 1507.0, 477.9)">t</text><text xml:space="preserve" font-family="MyriadPro-Regular,Myriad Pro" font-size="25.0" fill="#000000" transform="matrix(0.77, 0.00, -0.00, -0.77, 1513.2, 477.9)">o</text><text xml:space="preserve" font-family="MyriadPro-Regular,Myriad Pro" font-size="25.0" fill="#000000" transform="matrix(0.77, 0.00, -0.00, -0.77, 1523.8, 477.9)">r</text><text xml:space="preserve" font-family="MyriadPro-Regular,Myriad Pro" font-size="25.0" fill="#000000" transform="matrix(0.77, 0.00, -0.00, -0.77, 1529.9, 477.9)">e</text><text xml:space="preserve" font-family="MyriadPro-Regular,Myriad Pro" font-size="25.0" fill="#000000" transform="matrix(0.77, 0.00, -0.00, -0.77, 1539.6, 477.9)">s</text><text xml:space="preserve" font-family="MyriadPro-Regular,Myriad Pro" font-size="25.0" fill="#000000" transform="matrix(0.77, 0.00, -0.00, -0.77, 1547.2, 477.9)"> </text><text xml:space="preserve" font-family="MyriadPro-Regular,Myriad Pro" font-size="25.0" fill="#000000" transform="matrix(0.77, 0.00, -0.00, -0.77, 1551.3, 477.9)">d</text><text xml:space="preserve" font-family="MyriadPro-Regular,Myriad Pro" font-size="25.0" fill="#000000" transform="matrix(0.77, 0.00, -0.00, -0.77, 1562.2, 477.9)">a</text><text xml:space="preserve" font-family="MyriadPro-Regular,Myriad Pro" font-size="25.0" fill="#000000" transform="matrix(0.77, 0.00, -0.00, -0.77, 1571.4, 477.9)">t</text><text xml:space="preserve" font-family="MyriadPro-Regular,Myriad Pro" font-size="25.0" fill="#000000" transform="matrix(0.77, 0.00, -0.00, -0.77, 1577.8, 477.9)">a</text><text xml:space="preserve" font-family="MyriadPro-Regular,Myriad Pro" font-size="25.0" fill="#000000" transform="matrix(0.77, 0.00, -0.00, -0.77, 1499.7, 454.8)">&amp;</text><text xml:space="preserve" font-family="MyriadPro-Regular,Myriad Pro" font-size="25.0" fill="#000000" transform="matrix(0.77, 0.00, -0.00, -0.77, 1511.3, 454.8)"> </text><text xml:space="preserve" font-family="MyriadPro-Regular,Myriad Pro" font-size="25.0" fill="#000000" transform="matrix(0.77, 0.00, -0.00, -0.77, 1515.4, 454.8)">p</text><text xml:space="preserve" font-family="MyriadPro-Regular,Myriad Pro" font-size="25.0" fill="#000000" transform="matrix(0.77, 0.00, -0.00, -0.77, 1526.4, 454.8)">r</text><text xml:space="preserve" font-family="MyriadPro-Regular,Myriad Pro" font-size="25.0" fill="#000000" transform="matrix(0.77, 0.00, -0.00, -0.77, 1532.5, 454.8)">o</text><text xml:space="preserve" font-family="MyriadPro-Regular,Myriad Pro" font-size="25.0" fill="#000000" transform="matrix(0.77, 0.00, -0.00, -0.77, 1543.0, 454.8)">v</text><text xml:space="preserve" font-family="MyriadPro-Regular,Myriad Pro" font-size="25.0" fill="#000000" transform="matrix(0.77, 0.00, -0.00, -0.77, 1552.2, 454.8)">i</text><text xml:space="preserve" font-family="MyriadPro-Regular,Myriad Pro" font-size="25.0" fill="#000000" transform="matrix(0.77, 0.00, -0.00, -0.77, 1556.8, 454.8)">d</text><text xml:space="preserve" font-family="MyriadPro-Regular,Myriad Pro" font-size="25.0" fill="#000000" transform="matrix(0.77, 0.00, -0.00, -0.77, 1567.6, 454.8)">e</text><text xml:space="preserve" font-family="MyriadPro-Regular,Myriad Pro" font-size="25.0" fill="#000000" transform="matrix(0.77, 0.00, -0.00, -0.77, 1577.3, 454.8)">s</text><text xml:space="preserve" font-family="MyriadPro-Regular,Myriad Pro" font-size="25.0" fill="#000000" transform="matrix(0.77, 0.00, -0.00, -0.77, 1505.3, 431.6)">s</text><text xml:space="preserve" font-family="MyriadPro-Regular,Myriad Pro" font-size="25.0" fill="#000000" transform="matrix(0.77, 0.00, -0.00, -0.77, 1513.0, 431.6)">a</text><text xml:space="preserve" font-family="MyriadPro-Regular,Myriad Pro" font-size="25.0" fill="#000000" transform="matrix(0.77, 0.00, -0.00, -0.77, 1522.3, 431.6)">f</text><text xml:space="preserve" font-family="MyriadPro-Regular,Myriad Pro" font-size="25.0" fill="#000000" transform="matrix(0.77, 0.00, -0.00, -0.77, 1527.7, 431.6)">e</text><text xml:space="preserve" font-family="MyriadPro-Regular,Myriad Pro" font-size="25.0" fill="#000000" transform="matrix(0.77, 0.00, -0.00, -0.77, 1537.3, 431.6)">c</text><text xml:space="preserve" font-family="MyriadPro-Regular,Myriad Pro" font-size="25.0" fill="#000000" transform="matrix(0.77, 0.00, -0.00, -0.77, 1545.8, 431.6)">o</text><text xml:space="preserve" font-family="MyriadPro-Regular,Myriad Pro" font-size="25.0" fill="#000000" transform="matrix(0.77, 0.00, -0.00, -0.77, 1556.4, 431.6)">i</text><text xml:space="preserve" font-family="MyriadPro-Regular,Myriad Pro" font-size="25.0" fill="#000000" transform="matrix(0.77, 0.00, -0.00, -0.77, 1560.9, 431.6)">n</text><text xml:space="preserve" font-family="MyriadPro-Regular,Myriad Pro" font-size="25.0" fill="#000000" transform="matrix(0.77, 0.00, -0.00, -0.77, 1571.6, 431.6)">s</text><text xml:space="preserve" font-family="MyriadPro-Regular,Myriad Pro" font-size="25.0" fill="#000000" transform="matrix(0.77, 0.00, -0.00, -0.77, 1500.6, 408.5)">a</text><text xml:space="preserve" font-family="MyriadPro-Regular,Myriad Pro" font-size="25.0" fill="#000000" transform="matrix(0.77, 0.00, -0.00, -0.77, 1509.8, 408.5)">t</text><text xml:space="preserve" font-family="MyriadPro-Regular,Myriad Pro" font-size="25.0" fill="#000000" transform="matrix(0.77, 0.00, -0.00, -0.77, 1516.2, 408.5)"> </text><text xml:space="preserve" font-family="MyriadPro-Regular,Myriad Pro" font-size="25.0" fill="#000000" transform="matrix(0.77, 0.00, -0.00, -0.77, 1520.3, 408.5)">r</text><text xml:space="preserve" font-family="MyriadPro-Regular,Myriad Pro" font-size="25.0" fill="#000000" transform="matrix(0.77, 0.00, -0.00, -0.77, 1526.5, 408.5)">a</text><text xml:space="preserve" font-family="MyriadPro-Regular,Myriad Pro" font-size="25.0" fill="#000000" transform="matrix(0.77, 0.00, -0.00, -0.77, 1535.8, 408.5)">n</text><text xml:space="preserve" font-family="MyriadPro-Regular,Myriad Pro" font-size="25.0" fill="#000000" transform="matrix(0.77, 0.00, -0.00, -0.77, 1546.5, 408.5)">d</text><text xml:space="preserve" font-family="MyriadPro-Regular,Myriad Pro" font-size="25.0" fill="#000000" transform="matrix(0.77, 0.00, -0.00, -0.77, 1557.4, 408.5)">o</text><text xml:space="preserve" font-family="MyriadPro-Regular,Myriad Pro" font-size="25.0" fill="#000000" transform="matrix(0.77, 0.00, -0.00, -0.77, 1567.9, 408.5)">m</text><text xml:space="preserve" font-family="MyriadPro-Regular,Myriad Pro" font-size="25.6" fill="#000000" transform="matrix(0.77, 0.00, -0.00, -0.77, 1522.2, 569.1)">S</text><text xml:space="preserve" font-family="MyriadPro-Regular,Myriad Pro" font-size="25.6" fill="#000000" transform="matrix(0.77, 0.00, -0.00, -0.77, 1531.9, 569.1)">A</text><text xml:space="preserve" font-family="MyriadPro-Regular,Myriad Pro" font-size="25.6" fill="#000000" transform="matrix(0.77, 0.00, -0.00, -0.77, 1544.0, 569.1)">F</text><text xml:space="preserve" font-family="MyriadPro-Regular,Myriad Pro" font-size="25.6" fill="#000000" transform="matrix(0.77, 0.00, -0.00, -0.77, 1553.6, 569.1)">E</text><text xml:space="preserve" font-family="MyriadPro-Regular,Myriad Pro" font-size="25.6" fill="#000000" transform="matrix(0.77, 0.00, -0.00, -0.77, 1563.3, 569.1)">C</text><text xml:space="preserve" font-family="MyriadPro-Regular,Myriad Pro" font-size="25.6" fill="#000000" transform="matrix(0.77, 0.00, -0.00, -0.77, 1574.4, 569.1)">O</text><text xml:space="preserve" font-family="MyriadPro-Regular,Myriad Pro" font-size="25.6" fill="#000000" transform="matrix(0.77, 0.00, -0.00, -0.77, 1588.0, 569.1)">I</text><text xml:space="preserve" font-family="MyriadPro-Regular,Myriad Pro" font-size="25.6" fill="#000000" transform="matrix(0.77, 0.00, -0.00, -0.77, 1592.7, 569.1)">N</text><text xml:space="preserve" font-family="MyriadPro-Regular,Myriad Pro" font-size="25.6" fill="#000000" transform="matrix(0.77, 0.00, -0.00, -0.77, 1605.7, 569.1)">S</text></g></g><g><clipPath id="clip0x6000094a5b20"><path d="M 663.8 893.2 L 1256.2 893.2 L 1256.2 984.2 L 663.8 984.2 Z M 663.8 893.2 "></path></clipPath><g clip-path="url(#clip0x6000094a5b20)"><text xml:space="preserve" font-family="OpenSans-Semibold,Open Sans" font-weight="bold" font-size="70.0" fill="#525252" transform="matrix(1.00, 0.00, -0.00, -1.00, 760.6, 908.7)">E</text><text xml:space="preserve" font-family="OpenSans-Semibold,Open Sans" font-weight="bold" font-size="70.0" fill="#525252" transform="matrix(1.00, 0.00, -0.00, -1.00, 799.7, 908.7)">C</text><text xml:space="preserve" font-family="OpenSans-Semibold,Open Sans" font-weight="bold" font-size="70.0" fill="#525252" transform="matrix(1.00, 0.00, -0.00, -1.00, 842.6, 908.7)">O</text><text xml:space="preserve" font-family="OpenSans-Semibold,Open Sans" font-weight="bold" font-size="70.0" fill="#525252" transform="matrix(1.00, 0.00, -0.00, -1.00, 897.7, 908.7)">S</text><text xml:space="preserve" font-family="OpenSans-Semibold,Open Sans" font-weight="bold" font-size="70.0" fill="#525252" transform="matrix(1.00, 0.00, -0.00, -1.00, 936.2, 908.7)">Y</text><text xml:space="preserve" font-family="OpenSans-Semibold,Open Sans" font-weight="bold" font-size="70.0" fill="#525252" transform="matrix(1.00, 0.00, -0.00, -1.00, 977.7, 908.7)">S</text><text xml:space="preserve" font-family="OpenSans-Semibold,Open Sans" font-weight="bold" font-size="70.0" fill="#525252" transform="matrix(1.00, 0.00, -0.00, -1.00, 1016.2, 908.7)">T</text><text xml:space="preserve" font-family="OpenSans-Semibold,Open Sans" font-weight="bold" font-size="70.0" fill="#525252" transform="matrix(1.00, 0.00, -0.00, -1.00, 1055.8, 908.7)">E</text><text xml:space="preserve" font-family="OpenSans-Semibold,Open Sans" font-weight="bold" font-size="70.0" fill="#525252" transform="matrix(1.00, 0.00, -0.00, -1.00, 1094.9, 908.7)">M</text></g></g></g></svg>