<?xml version="1.0" encoding="UTF-8" standalone="no"?><svg xmlns="http://www.w3.org/2000/svg" xmlns:xlink="http://www.w3.org/1999/xlink" clip-rule="evenodd" stroke-miterlimit="10" viewBox="0 0 1177 59"><desc>SVG generated by Keynote</desc><defs></defs><g transform="matrix(1.00, 0.00, -0.00, -1.00, 0.0, 59.0)"><text xml:space="preserve" font-family="OpenSans,Open Sans" font-size="55.0" fill="#525252" transform="matrix(1.00, 0.00, -0.00, -1.00, -1.5, 15.6)">O</text><text xml:space="preserve" font-family="OpenSans,Open Sans" font-size="55.0" fill="#525252" transform="matrix(1.00, 0.00, -0.00, -1.00, 41.4, 15.6)">u</text><text xml:space="preserve" font-family="OpenSans,Open Sans" font-size="55.0" fill="#525252" transform="matrix(1.00, 0.00, -0.00, -1.00, 75.1, 15.6)">t</text><text xml:space="preserve" font-family="OpenSans,Open Sans" font-size="55.0" fill="#525252" transform="matrix(1.00, 0.00, -0.00, -1.00, 94.5, 15.6)">s</text><text xml:space="preserve" font-family="OpenSans,Open Sans" font-size="55.0" fill="#525252" transform="matrix(1.00, 0.00, -0.00, -1.00, 120.8, 15.6)">i</text><text xml:space="preserve" font-family="OpenSans,Open Sans" font-size="55.0" fill="#525252" transform="matrix(1.00, 0.00, -0.00, -1.00, 134.7, 15.6)">d</text><text xml:space="preserve" font-family="OpenSans,Open Sans" font-size="55.0" fill="#525252" transform="matrix(1.00, 0.00, -0.00, -1.00, 168.4, 15.6)">e</text><text xml:space="preserve" font-family="OpenSans,Open Sans" font-size="55.0" fill="#525252" transform="matrix(1.00, 0.00, -0.00, -1.00, 199.2, 15.6)"> </text><text xml:space="preserve" font-family="OpenSans,Open Sans" font-size="55.0" fill="#525252" transform="matrix(1.00, 0.00, -0.00, -1.00, 213.5, 15.6)">c</text><text xml:space="preserve" font-family="OpenSans,Open Sans" font-size="55.0" fill="#525252" transform="matrix(1.00, 0.00, -0.00, -1.00, 239.7, 15.6)">o</text><text xml:space="preserve" font-family="OpenSans,Open Sans" font-size="55.0" fill="#525252" transform="matrix(1.00, 0.00, -0.00, -1.00, 272.9, 15.6)">n</text><text xml:space="preserve" font-family="OpenSans,Open Sans" font-size="55.0" fill="#525252" transform="matrix(1.00, 0.00, -0.00, -1.00, 306.7, 15.6)">t</text><text xml:space="preserve" font-family="OpenSans,Open Sans" font-size="55.0" fill="#525252" transform="matrix(1.00, 0.00, -0.00, -1.00, 326.1, 15.6)">r</text><text xml:space="preserve" font-family="OpenSans,Open Sans" font-size="55.0" fill="#525252" transform="matrix(1.00, 0.00, -0.00, -1.00, 348.5, 15.6)">i</text><text xml:space="preserve" font-family="OpenSans,Open Sans" font-size="55.0" fill="#525252" transform="matrix(1.00, 0.00, -0.00, -1.00, 362.5, 15.6)">b</text><text xml:space="preserve" font-family="OpenSans,Open Sans" font-size="55.0" fill="#525252" transform="matrix(1.00, 0.00, -0.00, -1.00, 396.1, 15.6)">u</text><text xml:space="preserve" font-family="OpenSans,Open Sans" font-size="55.0" fill="#525252" transform="matrix(1.00, 0.00, -0.00, -1.00, 429.9, 15.6)">t</text><text xml:space="preserve" font-family="OpenSans,Open Sans" font-size="55.0" fill="#525252" transform="matrix(1.00, 0.00, -0.00, -1.00, 449.3, 15.6)">o</text><text xml:space="preserve" font-family="OpenSans,Open Sans" font-size="55.0" fill="#525252" transform="matrix(1.00, 0.00, -0.00, -1.00, 482.5, 15.6)">r</text><text xml:space="preserve" font-family="OpenSans,Open Sans" font-size="55.0" fill="#525252" transform="matrix(1.00, 0.00, -0.00, -1.00, 505.0, 15.6)">s</text><text xml:space="preserve" font-family="OpenSans,Open Sans" font-size="55.0" fill="#525252" transform="matrix(1.00, 0.00, -0.00, -1.00, 531.2, 15.6)"> </text><text xml:space="preserve" font-family="OpenSans,Open Sans" font-size="55.0" fill="#525252" transform="matrix(1.00, 0.00, -0.00, -1.00, 545.5, 15.6)">a</text><text xml:space="preserve" font-family="OpenSans,Open Sans" font-size="55.0" fill="#525252" transform="matrix(1.00, 0.00, -0.00, -1.00, 576.1, 15.6)">n</text><text xml:space="preserve" font-family="OpenSans,Open Sans" font-size="55.0" fill="#525252" transform="matrix(1.00, 0.00, -0.00, -1.00, 609.9, 15.6)">d</text><text xml:space="preserve" font-family="OpenSans,Open Sans" font-size="55.0" fill="#525252" transform="matrix(1.00, 0.00, -0.00, -1.00, 643.5, 15.6)"> </text><text xml:space="preserve" font-family="OpenSans,Open Sans" font-size="55.0" fill="#525252" transform="matrix(1.00, 0.00, -0.00, -1.00, 657.8, 15.6)">m</text><text xml:space="preserve" font-family="OpenSans,Open Sans" font-size="55.0" fill="#525252" transform="matrix(1.00, 0.00, -0.00, -1.00, 709.0, 15.6)">i</text><text xml:space="preserve" font-family="OpenSans,Open Sans" font-size="55.0" fill="#525252" transform="matrix(1.00, 0.00, -0.00, -1.00, 722.9, 15.6)">x</text><text xml:space="preserve" font-family="OpenSans,Open Sans" font-size="55.0" fill="#525252" transform="matrix(1.00, 0.00, -0.00, -1.00, 751.7, 15.6)">i</text><text xml:space="preserve" font-family="OpenSans,Open Sans" font-size="55.0" fill="#525252" transform="matrix(1.00, 0.00, -0.00, -1.00, 765.6, 15.6)">n</text><text xml:space="preserve" font-family="OpenSans,Open Sans" font-size="55.0" fill="#525252" transform="matrix(1.00, 0.00, -0.00, -1.00, 799.4, 15.6)">g</text><text xml:space="preserve" font-family="OpenSans,Open Sans" font-size="55.0" fill="#525252" transform="matrix(1.00, 0.00, -0.00, -1.00, 829.5, 15.6)"> </text><text xml:space="preserve" font-family="OpenSans,Open Sans" font-size="55.0" fill="#525252" transform="matrix(1.00, 0.00, -0.00, -1.00, 843.8, 15.6)">c</text><text xml:space="preserve" font-family="OpenSans,Open Sans" font-size="55.0" fill="#525252" transform="matrix(1.00, 0.00, -0.00, -1.00, 870.0, 15.6)">o</text><text xml:space="preserve" font-family="OpenSans,Open Sans" font-size="55.0" fill="#525252" transform="matrix(1.00, 0.00, -0.00, -1.00, 903.2, 15.6)">m</text><text xml:space="preserve" font-family="OpenSans,Open Sans" font-size="55.0" fill="#525252" transform="matrix(1.00, 0.00, -0.00, -1.00, 954.3, 15.6)">m</text><text xml:space="preserve" font-family="OpenSans,Open Sans" font-size="55.0" fill="#525252" transform="matrix(1.00, 0.00, -0.00, -1.00, 1005.5, 15.6)">u</text><text xml:space="preserve" font-family="OpenSans,Open Sans" font-size="55.0" fill="#525252" transform="matrix(1.00, 0.00, -0.00, -1.00, 1039.3, 15.6)">n</text><text xml:space="preserve" font-family="OpenSans,Open Sans" font-size="55.0" fill="#525252" transform="matrix(1.00, 0.00, -0.00, -1.00, 1073.0, 15.6)">i</text><text xml:space="preserve" font-family="OpenSans,Open Sans" font-size="55.0" fill="#525252" transform="matrix(1.00, 0.00, -0.00, -1.00, 1086.9, 15.6)">t</text><text xml:space="preserve" font-family="OpenSans,Open Sans" font-size="55.0" fill="#525252" transform="matrix(1.00, 0.00, -0.00, -1.00, 1106.3, 15.6)">i</text><text xml:space="preserve" font-family="OpenSans,Open Sans" font-size="55.0" fill="#525252" transform="matrix(1.00, 0.00, -0.00, -1.00, 1120.2, 15.6)">e</text><text xml:space="preserve" font-family="OpenSans,Open Sans" font-size="55.0" fill="#525252" transform="matrix(1.00, 0.00, -0.00, -1.00, 1151.1, 15.6)">s</text></g></svg>