<?xml version="1.0" encoding="UTF-8" standalone="no"?><svg xmlns="http://www.w3.org/2000/svg" xmlns:xlink="http://www.w3.org/1999/xlink" clip-rule="evenodd" stroke-miterlimit="10" viewBox="0 0 908 44"><desc>SVG generated by Keynote</desc><defs></defs><g transform="matrix(1.00, 0.00, -0.00, -1.00, 0.0, 44.0)"><text xml:space="preserve" font-family="OpenSans,Open Sans" font-size="40.0" fill="#525252" transform="matrix(1.00, 0.00, -0.00, -1.00, -2.4, 10.9)">E</text><text xml:space="preserve" font-family="OpenSans,Open Sans" font-size="40.0" fill="#525252" transform="matrix(1.00, 0.00, -0.00, -1.00, 19.8, 10.9)">x</text><text xml:space="preserve" font-family="OpenSans,Open Sans" font-size="40.0" fill="#525252" transform="matrix(1.00, 0.00, -0.00, -1.00, 40.8, 10.9)">p</text><text xml:space="preserve" font-family="OpenSans,Open Sans" font-size="40.0" fill="#525252" transform="matrix(1.00, 0.00, -0.00, -1.00, 65.3, 10.9)">a</text><text xml:space="preserve" font-family="OpenSans,Open Sans" font-size="40.0" fill="#525252" transform="matrix(1.00, 0.00, -0.00, -1.00, 87.5, 10.9)">n</text><text xml:space="preserve" font-family="OpenSans,Open Sans" font-size="40.0" fill="#525252" transform="matrix(1.00, 0.00, -0.00, -1.00, 112.1, 10.9)">d</text><text xml:space="preserve" font-family="OpenSans,Open Sans" font-size="40.0" fill="#525252" transform="matrix(1.00, 0.00, -0.00, -1.00, 136.6, 10.9)">i</text><text xml:space="preserve" font-family="OpenSans,Open Sans" font-size="40.0" fill="#525252" transform="matrix(1.00, 0.00, -0.00, -1.00, 146.7, 10.9)">n</text><text xml:space="preserve" font-family="OpenSans,Open Sans" font-size="40.0" fill="#525252" transform="matrix(1.00, 0.00, -0.00, -1.00, 171.2, 10.9)">g</text><text xml:space="preserve" font-family="OpenSans,Open Sans" font-size="40.0" fill="#525252" transform="matrix(1.00, 0.00, -0.00, -1.00, 193.1, 10.9)"> </text><text xml:space="preserve" font-family="OpenSans,Open Sans" font-size="40.0" fill="#525252" transform="matrix(1.00, 0.00, -0.00, -1.00, 203.5, 10.9)">c</text><text xml:space="preserve" font-family="OpenSans,Open Sans" font-size="40.0" fill="#525252" transform="matrix(1.00, 0.00, -0.00, -1.00, 222.6, 10.9)">o</text><text xml:space="preserve" font-family="OpenSans,Open Sans" font-size="40.0" fill="#525252" transform="matrix(1.00, 0.00, -0.00, -1.00, 246.7, 10.9)">r</text><text xml:space="preserve" font-family="OpenSans,Open Sans" font-size="40.0" fill="#525252" transform="matrix(1.00, 0.00, -0.00, -1.00, 262.3, 10.9)">e</text><text xml:space="preserve" font-family="OpenSans,Open Sans" font-size="40.0" fill="#525252" transform="matrix(1.00, 0.00, -0.00, -1.00, 284.7, 10.9)"> </text><text xml:space="preserve" font-family="OpenSans,Open Sans" font-size="40.0" fill="#525252" transform="matrix(1.00, 0.00, -0.00, -1.00, 295.1, 10.9)">d</text><text xml:space="preserve" font-family="OpenSans,Open Sans" font-size="40.0" fill="#525252" transform="matrix(1.00, 0.00, -0.00, -1.00, 319.6, 10.9)">e</text><text xml:space="preserve" font-family="OpenSans,Open Sans" font-size="40.0" fill="#525252" transform="matrix(1.00, 0.00, -0.00, -1.00, 341.2, 10.9)">v</text><text xml:space="preserve" font-family="OpenSans,Open Sans" font-size="40.0" fill="#525252" transform="matrix(1.00, 0.00, -0.00, -1.00, 361.3, 10.9)">e</text><text xml:space="preserve" font-family="OpenSans,Open Sans" font-size="40.0" fill="#525252" transform="matrix(1.00, 0.00, -0.00, -1.00, 383.7, 10.9)">l</text><text xml:space="preserve" font-family="OpenSans,Open Sans" font-size="40.0" fill="#525252" transform="matrix(1.00, 0.00, -0.00, -1.00, 393.8, 10.9)">o</text><text xml:space="preserve" font-family="OpenSans,Open Sans" font-size="40.0" fill="#525252" transform="matrix(1.00, 0.00, -0.00, -1.00, 418.0, 10.9)">p</text><text xml:space="preserve" font-family="OpenSans,Open Sans" font-size="40.0" fill="#525252" transform="matrix(1.00, 0.00, -0.00, -1.00, 442.5, 10.9)">m</text><text xml:space="preserve" font-family="OpenSans,Open Sans" font-size="40.0" fill="#525252" transform="matrix(1.00, 0.00, -0.00, -1.00, 479.7, 10.9)">e</text><text xml:space="preserve" font-family="OpenSans,Open Sans" font-size="40.0" fill="#525252" transform="matrix(1.00, 0.00, -0.00, -1.00, 502.2, 10.9)">n</text><text xml:space="preserve" font-family="OpenSans,Open Sans" font-size="40.0" fill="#525252" transform="matrix(1.00, 0.00, -0.00, -1.00, 526.7, 10.9)">t</text><text xml:space="preserve" font-family="OpenSans,Open Sans" font-size="40.0" fill="#525252" transform="matrix(1.00, 0.00, -0.00, -1.00, 540.8, 10.9)"> </text><text xml:space="preserve" font-family="OpenSans,Open Sans" font-size="40.0" fill="#525252" transform="matrix(1.00, 0.00, -0.00, -1.00, 551.2, 10.9)">a</text><text xml:space="preserve" font-family="OpenSans,Open Sans" font-size="40.0" fill="#525252" transform="matrix(1.00, 0.00, -0.00, -1.00, 573.5, 10.9)">n</text><text xml:space="preserve" font-family="OpenSans,Open Sans" font-size="40.0" fill="#525252" transform="matrix(1.00, 0.00, -0.00, -1.00, 598.0, 10.9)">d</text><text xml:space="preserve" font-family="OpenSans,Open Sans" font-size="40.0" fill="#525252" transform="matrix(1.00, 0.00, -0.00, -1.00, 622.5, 10.9)"> </text><text xml:space="preserve" font-family="OpenSans,Open Sans" font-size="40.0" fill="#525252" transform="matrix(1.00, 0.00, -0.00, -1.00, 632.9, 10.9)">u</text><text xml:space="preserve" font-family="OpenSans,Open Sans" font-size="40.0" fill="#525252" transform="matrix(1.00, 0.00, -0.00, -1.00, 657.4, 10.9)">n</text><text xml:space="preserve" font-family="OpenSans,Open Sans" font-size="40.0" fill="#525252" transform="matrix(1.00, 0.00, -0.00, -1.00, 682.0, 10.9)">d</text><text xml:space="preserve" font-family="OpenSans,Open Sans" font-size="40.0" fill="#525252" transform="matrix(1.00, 0.00, -0.00, -1.00, 706.5, 10.9)">e</text><text xml:space="preserve" font-family="OpenSans,Open Sans" font-size="40.0" fill="#525252" transform="matrix(1.00, 0.00, -0.00, -1.00, 728.9, 10.9)">r</text><text xml:space="preserve" font-family="OpenSans,Open Sans" font-size="40.0" fill="#525252" transform="matrix(1.00, 0.00, -0.00, -1.00, 745.2, 10.9)">s</text><text xml:space="preserve" font-family="OpenSans,Open Sans" font-size="40.0" fill="#525252" transform="matrix(1.00, 0.00, -0.00, -1.00, 764.3, 10.9)">t</text><text xml:space="preserve" font-family="OpenSans,Open Sans" font-size="40.0" fill="#525252" transform="matrix(1.00, 0.00, -0.00, -1.00, 778.5, 10.9)">a</text><text xml:space="preserve" font-family="OpenSans,Open Sans" font-size="40.0" fill="#525252" transform="matrix(1.00, 0.00, -0.00, -1.00, 800.7, 10.9)">n</text><text xml:space="preserve" font-family="OpenSans,Open Sans" font-size="40.0" fill="#525252" transform="matrix(1.00, 0.00, -0.00, -1.00, 825.3, 10.9)">d</text><text xml:space="preserve" font-family="OpenSans,Open Sans" font-size="40.0" fill="#525252" transform="matrix(1.00, 0.00, -0.00, -1.00, 849.8, 10.9)">i</text><text xml:space="preserve" font-family="OpenSans,Open Sans" font-size="40.0" fill="#525252" transform="matrix(1.00, 0.00, -0.00, -1.00, 859.9, 10.9)">n</text><text xml:space="preserve" font-family="OpenSans,Open Sans" font-size="40.0" fill="#525252" transform="matrix(1.00, 0.00, -0.00, -1.00, 884.4, 10.9)">g</text></g></svg>