<?xml version="1.0" encoding="UTF-8" standalone="no"?><svg xmlns="http://www.w3.org/2000/svg" xmlns:xlink="http://www.w3.org/1999/xlink" clip-rule="evenodd" stroke-miterlimit="10" viewBox="0 0 1050 44"><desc>SVG generated by Keynote</desc><defs></defs><g transform="matrix(1.00, 0.00, -0.00, -1.00, 0.0, 44.0)"><text xml:space="preserve" font-family="OpenSans,Open Sans" font-size="40.0" fill="#525252" transform="matrix(1.00, 0.00, -0.00, -1.00, 1.6, 11.4)">A</text><text xml:space="preserve" font-family="OpenSans,Open Sans" font-size="40.0" fill="#525252" transform="matrix(1.00, 0.00, -0.00, -1.00, 26.9, 11.4)">p</text><text xml:space="preserve" font-family="OpenSans,Open Sans" font-size="40.0" fill="#525252" transform="matrix(1.00, 0.00, -0.00, -1.00, 51.4, 11.4)">p</text><text xml:space="preserve" font-family="OpenSans,Open Sans" font-size="40.0" fill="#525252" transform="matrix(1.00, 0.00, -0.00, -1.00, 75.9, 11.4)">r</text><text xml:space="preserve" font-family="OpenSans,Open Sans" font-size="40.0" fill="#525252" transform="matrix(1.00, 0.00, -0.00, -1.00, 91.4, 11.4)">e</text><text xml:space="preserve" font-family="OpenSans,Open Sans" font-size="40.0" fill="#525252" transform="matrix(1.00, 0.00, -0.00, -1.00, 113.9, 11.4)">c</text><text xml:space="preserve" font-family="OpenSans,Open Sans" font-size="40.0" fill="#525252" transform="matrix(1.00, 0.00, -0.00, -1.00, 132.9, 11.4)">i</text><text xml:space="preserve" font-family="OpenSans,Open Sans" font-size="40.0" fill="#525252" transform="matrix(1.00, 0.00, -0.00, -1.00, 143.0, 11.4)">a</text><text xml:space="preserve" font-family="OpenSans,Open Sans" font-size="40.0" fill="#525252" transform="matrix(1.00, 0.00, -0.00, -1.00, 165.3, 11.4)">t</text><text xml:space="preserve" font-family="OpenSans,Open Sans" font-size="40.0" fill="#525252" transform="matrix(1.00, 0.00, -0.00, -1.00, 179.4, 11.4)">i</text><text xml:space="preserve" font-family="OpenSans,Open Sans" font-size="40.0" fill="#525252" transform="matrix(1.00, 0.00, -0.00, -1.00, 189.5, 11.4)">o</text><text xml:space="preserve" font-family="OpenSans,Open Sans" font-size="40.0" fill="#525252" transform="matrix(1.00, 0.00, -0.00, -1.00, 213.7, 11.4)">n</text><text xml:space="preserve" font-family="OpenSans,Open Sans" font-size="40.0" fill="#525252" transform="matrix(1.00, 0.00, -0.00, -1.00, 238.2, 11.4)"> </text><text xml:space="preserve" font-family="OpenSans,Open Sans" font-size="40.0" fill="#525252" transform="matrix(1.00, 0.00, -0.00, -1.00, 248.6, 11.4)">a</text><text xml:space="preserve" font-family="OpenSans,Open Sans" font-size="40.0" fill="#525252" transform="matrix(1.00, 0.00, -0.00, -1.00, 270.8, 11.4)">n</text><text xml:space="preserve" font-family="OpenSans,Open Sans" font-size="40.0" fill="#525252" transform="matrix(1.00, 0.00, -0.00, -1.00, 295.4, 11.4)">d</text><text xml:space="preserve" font-family="OpenSans,Open Sans" font-size="40.0" fill="#525252" transform="matrix(1.00, 0.00, -0.00, -1.00, 319.9, 11.4)"> </text><text xml:space="preserve" font-family="OpenSans,Open Sans" font-size="40.0" fill="#525252" transform="matrix(1.00, 0.00, -0.00, -1.00, 330.3, 11.4)">a</text><text xml:space="preserve" font-family="OpenSans,Open Sans" font-size="40.0" fill="#525252" transform="matrix(1.00, 0.00, -0.00, -1.00, 352.5, 11.4)">l</text><text xml:space="preserve" font-family="OpenSans,Open Sans" font-size="40.0" fill="#525252" transform="matrix(1.00, 0.00, -0.00, -1.00, 362.6, 11.4)">i</text><text xml:space="preserve" font-family="OpenSans,Open Sans" font-size="40.0" fill="#525252" transform="matrix(1.00, 0.00, -0.00, -1.00, 372.7, 11.4)">g</text><text xml:space="preserve" font-family="OpenSans,Open Sans" font-size="40.0" fill="#525252" transform="matrix(1.00, 0.00, -0.00, -1.00, 394.7, 11.4)">n</text><text xml:space="preserve" font-family="OpenSans,Open Sans" font-size="40.0" fill="#525252" transform="matrix(1.00, 0.00, -0.00, -1.00, 419.2, 11.4)">m</text><text xml:space="preserve" font-family="OpenSans,Open Sans" font-size="40.0" fill="#525252" transform="matrix(1.00, 0.00, -0.00, -1.00, 456.4, 11.4)">e</text><text xml:space="preserve" font-family="OpenSans,Open Sans" font-size="40.0" fill="#525252" transform="matrix(1.00, 0.00, -0.00, -1.00, 478.9, 11.4)">n</text><text xml:space="preserve" font-family="OpenSans,Open Sans" font-size="40.0" fill="#525252" transform="matrix(1.00, 0.00, -0.00, -1.00, 503.4, 11.4)">t</text><text xml:space="preserve" font-family="OpenSans,Open Sans" font-size="40.0" fill="#525252" transform="matrix(1.00, 0.00, -0.00, -1.00, 517.5, 11.4)"> </text><text xml:space="preserve" font-family="OpenSans,Open Sans" font-size="40.0" fill="#525252" transform="matrix(1.00, 0.00, -0.00, -1.00, 527.9, 11.4)">w</text><text xml:space="preserve" font-family="OpenSans,Open Sans" font-size="40.0" fill="#525252" transform="matrix(1.00, 0.00, -0.00, -1.00, 559.0, 11.4)">i</text><text xml:space="preserve" font-family="OpenSans,Open Sans" font-size="40.0" fill="#525252" transform="matrix(1.00, 0.00, -0.00, -1.00, 569.1, 11.4)">t</text><text xml:space="preserve" font-family="OpenSans,Open Sans" font-size="40.0" fill="#525252" transform="matrix(1.00, 0.00, -0.00, -1.00, 583.2, 11.4)">h</text><text xml:space="preserve" font-family="OpenSans,Open Sans" font-size="40.0" fill="#525252" transform="matrix(1.00, 0.00, -0.00, -1.00, 607.8, 11.4)"> </text><text xml:space="preserve" font-family="OpenSans,Open Sans" font-size="40.0" fill="#525252" transform="matrix(1.00, 0.00, -0.00, -1.00, 618.2, 11.4)">R</text><text xml:space="preserve" font-family="OpenSans,Open Sans" font-size="40.0" fill="#525252" transform="matrix(1.00, 0.00, -0.00, -1.00, 642.9, 11.4)">u</text><text xml:space="preserve" font-family="OpenSans,Open Sans" font-size="40.0" fill="#525252" transform="matrix(1.00, 0.00, -0.00, -1.00, 667.4, 11.4)">s</text><text xml:space="preserve" font-family="OpenSans,Open Sans" font-size="40.0" fill="#525252" transform="matrix(1.00, 0.00, -0.00, -1.00, 686.5, 11.4)">t</text><text xml:space="preserve" font-family="OpenSans,Open Sans" font-size="40.0" fill="#525252" transform="matrix(1.00, 0.00, -0.00, -1.00, 700.7, 11.4)"> </text><text xml:space="preserve" font-family="OpenSans,Open Sans" font-size="40.0" fill="#525252" transform="matrix(1.00, 0.00, -0.00, -1.00, 711.0, 11.4)">c</text><text xml:space="preserve" font-family="OpenSans,Open Sans" font-size="40.0" fill="#525252" transform="matrix(1.00, 0.00, -0.00, -1.00, 730.1, 11.4)">o</text><text xml:space="preserve" font-family="OpenSans,Open Sans" font-size="40.0" fill="#525252" transform="matrix(1.00, 0.00, -0.00, -1.00, 754.2, 11.4)">r</text><text xml:space="preserve" font-family="OpenSans,Open Sans" font-size="40.0" fill="#525252" transform="matrix(1.00, 0.00, -0.00, -1.00, 769.8, 11.4)">e</text><text xml:space="preserve" font-family="OpenSans,Open Sans" font-size="40.0" fill="#525252" transform="matrix(1.00, 0.00, -0.00, -1.00, 792.2, 11.4)"> </text><text xml:space="preserve" font-family="OpenSans,Open Sans" font-size="40.0" fill="#525252" transform="matrix(1.00, 0.00, -0.00, -1.00, 802.6, 11.4)">d</text><text xml:space="preserve" font-family="OpenSans,Open Sans" font-size="40.0" fill="#525252" transform="matrix(1.00, 0.00, -0.00, -1.00, 827.1, 11.4)">e</text><text xml:space="preserve" font-family="OpenSans,Open Sans" font-size="40.0" fill="#525252" transform="matrix(1.00, 0.00, -0.00, -1.00, 848.7, 11.4)">v</text><text xml:space="preserve" font-family="OpenSans,Open Sans" font-size="40.0" fill="#525252" transform="matrix(1.00, 0.00, -0.00, -1.00, 868.8, 11.4)">e</text><text xml:space="preserve" font-family="OpenSans,Open Sans" font-size="40.0" fill="#525252" transform="matrix(1.00, 0.00, -0.00, -1.00, 891.2, 11.4)">l</text><text xml:space="preserve" font-family="OpenSans,Open Sans" font-size="40.0" fill="#525252" transform="matrix(1.00, 0.00, -0.00, -1.00, 901.3, 11.4)">o</text><text xml:space="preserve" font-family="OpenSans,Open Sans" font-size="40.0" fill="#525252" transform="matrix(1.00, 0.00, -0.00, -1.00, 925.5, 11.4)">p</text><text xml:space="preserve" font-family="OpenSans,Open Sans" font-size="40.0" fill="#525252" transform="matrix(1.00, 0.00, -0.00, -1.00, 950.0, 11.4)">m</text><text xml:space="preserve" font-family="OpenSans,Open Sans" font-size="40.0" fill="#525252" transform="matrix(1.00, 0.00, -0.00, -1.00, 987.2, 11.4)">e</text><text xml:space="preserve" font-family="OpenSans,Open Sans" font-size="40.0" fill="#525252" transform="matrix(1.00, 0.00, -0.00, -1.00, 1009.7, 11.4)">n</text><text xml:space="preserve" font-family="OpenSans,Open Sans" font-size="40.0" fill="#525252" transform="matrix(1.00, 0.00, -0.00, -1.00, 1034.2, 11.4)">t</text></g></svg>