<?xml version="1.0" encoding="UTF-8" standalone="no"?><svg xmlns="http://www.w3.org/2000/svg" xmlns:xlink="http://www.w3.org/1999/xlink" clip-rule="evenodd" stroke-miterlimit="10" viewBox="0 0 600 44"><desc>SVG generated by Keynote</desc><defs></defs><g transform="matrix(1.00, 0.00, -0.00, -1.00, 0.0, 44.0)"><text xml:space="preserve" font-family="OpenSans,Open Sans" font-size="40.0" fill="#525252" transform="matrix(1.00, 0.00, -0.00, -1.00, -2.1, 11.5)">E</text><text xml:space="preserve" font-family="OpenSans,Open Sans" font-size="40.0" fill="#525252" transform="matrix(1.00, 0.00, -0.00, -1.00, 20.1, 11.5)">x</text><text xml:space="preserve" font-family="OpenSans,Open Sans" font-size="40.0" fill="#525252" transform="matrix(1.00, 0.00, -0.00, -1.00, 40.3, 11.5)">c</text><text xml:space="preserve" font-family="OpenSans,Open Sans" font-size="40.0" fill="#525252" transform="matrix(1.00, 0.00, -0.00, -1.00, 59.3, 11.5)">i</text><text xml:space="preserve" font-family="OpenSans,Open Sans" font-size="40.0" fill="#525252" transform="matrix(1.00, 0.00, -0.00, -1.00, 69.4, 11.5)">t</text><text xml:space="preserve" font-family="OpenSans,Open Sans" font-size="40.0" fill="#525252" transform="matrix(1.00, 0.00, -0.00, -1.00, 83.5, 11.5)">e</text><text xml:space="preserve" font-family="OpenSans,Open Sans" font-size="40.0" fill="#525252" transform="matrix(1.00, 0.00, -0.00, -1.00, 106.0, 11.5)">m</text><text xml:space="preserve" font-family="OpenSans,Open Sans" font-size="40.0" fill="#525252" transform="matrix(1.00, 0.00, -0.00, -1.00, 143.2, 11.5)">e</text><text xml:space="preserve" font-family="OpenSans,Open Sans" font-size="40.0" fill="#525252" transform="matrix(1.00, 0.00, -0.00, -1.00, 165.6, 11.5)">n</text><text xml:space="preserve" font-family="OpenSans,Open Sans" font-size="40.0" fill="#525252" transform="matrix(1.00, 0.00, -0.00, -1.00, 190.2, 11.5)">t</text><text xml:space="preserve" font-family="OpenSans,Open Sans" font-size="40.0" fill="#525252" transform="matrix(1.00, 0.00, -0.00, -1.00, 204.3, 11.5)"> </text><text xml:space="preserve" font-family="OpenSans,Open Sans" font-size="40.0" fill="#525252" transform="matrix(1.00, 0.00, -0.00, -1.00, 214.7, 11.5)">f</text><text xml:space="preserve" font-family="OpenSans,Open Sans" font-size="40.0" fill="#525252" transform="matrix(1.00, 0.00, -0.00, -1.00, 228.2, 11.5)">r</text><text xml:space="preserve" font-family="OpenSans,Open Sans" font-size="40.0" fill="#525252" transform="matrix(1.00, 0.00, -0.00, -1.00, 243.8, 11.5)">o</text><text xml:space="preserve" font-family="OpenSans,Open Sans" font-size="40.0" fill="#525252" transform="matrix(1.00, 0.00, -0.00, -1.00, 267.9, 11.5)">m</text><text xml:space="preserve" font-family="OpenSans,Open Sans" font-size="40.0" fill="#525252" transform="matrix(1.00, 0.00, -0.00, -1.00, 305.1, 11.5)"> </text><text xml:space="preserve" font-family="OpenSans,Open Sans" font-size="40.0" fill="#525252" transform="matrix(1.00, 0.00, -0.00, -1.00, 315.5, 11.5)">t</text><text xml:space="preserve" font-family="OpenSans,Open Sans" font-size="40.0" fill="#525252" transform="matrix(1.00, 0.00, -0.00, -1.00, 329.7, 11.5)">h</text><text xml:space="preserve" font-family="OpenSans,Open Sans" font-size="40.0" fill="#525252" transform="matrix(1.00, 0.00, -0.00, -1.00, 354.2, 11.5)">e</text><text xml:space="preserve" font-family="OpenSans,Open Sans" font-size="40.0" fill="#525252" transform="matrix(1.00, 0.00, -0.00, -1.00, 376.6, 11.5)"> </text><text xml:space="preserve" font-family="OpenSans,Open Sans" font-size="40.0" fill="#525252" transform="matrix(1.00, 0.00, -0.00, -1.00, 387.0, 11.5)">c</text><text xml:space="preserve" font-family="OpenSans,Open Sans" font-size="40.0" fill="#525252" transform="matrix(1.00, 0.00, -0.00, -1.00, 406.1, 11.5)">o</text><text xml:space="preserve" font-family="OpenSans,Open Sans" font-size="40.0" fill="#525252" transform="matrix(1.00, 0.00, -0.00, -1.00, 430.2, 11.5)">m</text><text xml:space="preserve" font-family="OpenSans,Open Sans" font-size="40.0" fill="#525252" transform="matrix(1.00, 0.00, -0.00, -1.00, 467.4, 11.5)">m</text><text xml:space="preserve" font-family="OpenSans,Open Sans" font-size="40.0" fill="#525252" transform="matrix(1.00, 0.00, -0.00, -1.00, 504.7, 11.5)">u</text><text xml:space="preserve" font-family="OpenSans,Open Sans" font-size="40.0" fill="#525252" transform="matrix(1.00, 0.00, -0.00, -1.00, 529.2, 11.5)">n</text><text xml:space="preserve" font-family="OpenSans,Open Sans" font-size="40.0" fill="#525252" transform="matrix(1.00, 0.00, -0.00, -1.00, 553.7, 11.5)">i</text><text xml:space="preserve" font-family="OpenSans,Open Sans" font-size="40.0" fill="#525252" transform="matrix(1.00, 0.00, -0.00, -1.00, 563.9, 11.5)">t</text><text xml:space="preserve" font-family="OpenSans,Open Sans" font-size="40.0" fill="#525252" transform="matrix(1.00, 0.00, -0.00, -1.00, 578.0, 11.5)">y</text></g></svg>