<?xml version="1.0" encoding="UTF-8" standalone="no"?><svg xmlns="http://www.w3.org/2000/svg" xmlns:xlink="http://www.w3.org/1999/xlink" clip-rule="evenodd" stroke-miterlimit="10" viewBox="0 0 1920 1080"><desc>SVG generated by Keynote</desc><defs></defs><g transform="matrix(1.00, 0.00, -0.00, -1.00, 0.0, 1080.0)"><g><clipPath id="clip0x608007cb97a0"><path d="M 0.0 1080.0 L 1920.0 1080.0 L 1920.0 0.0 L 0.0 0.0 Z M 0.0 1080.0 "></path></clipPath><g clip-path="url(#clip0x608007cb97a0)"><image xlink:href="../../D6B96BF8-1030-4908-B6EF-89AAAD23CC95/assets/9EDC5A8D695696C5A4C057AC54B1350D.png" width="1920.00" height="980.00" transform="matrix(1.10, 0.00, -0.00, -1.10, -98.0, 1080.0)"></image></g></g><g><clipPath id="clip0x6000042beba0"><path d="M 261.5 893.2 L 1658.5 893.2 L 1658.5 984.2 L 261.5 984.2 Z M 261.5 893.2 "></path></clipPath><g clip-path="url(#clip0x6000042beba0)"><text xml:space="preserve" font-family="OpenSans-Semibold,Open Sans" font-weight="bold" font-size="70.0" fill="#525252" transform="matrix(1.00, 0.00, -0.00, -1.00, 309.7, 908.7)">G</text><text xml:space="preserve" font-family="OpenSans-Semibold,Open Sans" font-weight="bold" font-size="70.0" fill="#525252" transform="matrix(1.00, 0.00, -0.00, -1.00, 360.5, 908.7)">R</text><text xml:space="preserve" font-family="OpenSans-Semibold,Open Sans" font-weight="bold" font-size="70.0" fill="#525252" transform="matrix(1.00, 0.00, -0.00, -1.00, 405.2, 908.7)">O</text><text xml:space="preserve" font-family="OpenSans-Semibold,Open Sans" font-weight="bold" font-size="70.0" fill="#525252" transform="matrix(1.00, 0.00, -0.00, -1.00, 459.6, 908.7)">W</text><text xml:space="preserve" font-family="OpenSans-Semibold,Open Sans" font-weight="bold" font-size="70.0" fill="#525252" transform="matrix(1.00, 0.00, -0.00, -1.00, 525.9, 908.7)">I</text><text xml:space="preserve" font-family="OpenSans-Semibold,Open Sans" font-weight="bold" font-size="70.0" fill="#525252" transform="matrix(1.00, 0.00, -0.00, -1.00, 547.2, 908.7)">N</text><text xml:space="preserve" font-family="OpenSans-Semibold,Open Sans" font-weight="bold" font-size="70.0" fill="#525252" transform="matrix(1.00, 0.00, -0.00, -1.00, 602.1, 908.7)">G</text><text xml:space="preserve" font-family="OpenSans-Semibold,Open Sans" font-weight="bold" font-size="70.0" fill="#525252" transform="matrix(1.00, 0.00, -0.00, -1.00, 652.9, 908.7)"> </text><text xml:space="preserve" font-family="OpenSans-Semibold,Open Sans" font-weight="bold" font-size="70.0" fill="#525252" transform="matrix(1.00, 0.00, -0.00, -1.00, 671.1, 908.7)">A</text><text xml:space="preserve" font-family="OpenSans-Semibold,Open Sans" font-weight="bold" font-size="70.0" fill="#525252" transform="matrix(1.00, 0.00, -0.00, -1.00, 717.4, 908.7)">N</text><text xml:space="preserve" font-family="OpenSans-Semibold,Open Sans" font-weight="bold" font-size="70.0" fill="#525252" transform="matrix(1.00, 0.00, -0.00, -1.00, 772.2, 908.7)">D</text><text xml:space="preserve" font-family="OpenSans-Semibold,Open Sans" font-weight="bold" font-size="70.0" fill="#525252" transform="matrix(1.00, 0.00, -0.00, -1.00, 823.6, 908.7)"> </text><text xml:space="preserve" font-family="OpenSans-Semibold,Open Sans" font-weight="bold" font-size="70.0" fill="#525252" transform="matrix(1.00, 0.00, -0.00, -1.00, 841.8, 908.7)">M</text><text xml:space="preserve" font-family="OpenSans-Semibold,Open Sans" font-weight="bold" font-size="70.0" fill="#525252" transform="matrix(1.00, 0.00, -0.00, -1.00, 906.4, 908.7)">I</text><text xml:space="preserve" font-family="OpenSans-Semibold,Open Sans" font-weight="bold" font-size="70.0" fill="#525252" transform="matrix(1.00, 0.00, -0.00, -1.00, 927.7, 908.7)">X</text><text xml:space="preserve" font-family="OpenSans-Semibold,Open Sans" font-weight="bold" font-size="70.0" fill="#525252" transform="matrix(1.00, 0.00, -0.00, -1.00, 971.3, 908.7)">I</text><text xml:space="preserve" font-family="OpenSans-Semibold,Open Sans" font-weight="bold" font-size="70.0" fill="#525252" transform="matrix(1.00, 0.00, -0.00, -1.00, 992.7, 908.7)">N</text><text xml:space="preserve" font-family="OpenSans-Semibold,Open Sans" font-weight="bold" font-size="70.0" fill="#525252" transform="matrix(1.00, 0.00, -0.00, -1.00, 1047.5, 908.7)">G</text><text xml:space="preserve" font-family="OpenSans-Semibold,Open Sans" font-weight="bold" font-size="70.0" fill="#525252" transform="matrix(1.00, 0.00, -0.00, -1.00, 1098.3, 908.7)"> </text><text xml:space="preserve" font-family="OpenSans-Semibold,Open Sans" font-weight="bold" font-size="70.0" fill="#525252" transform="matrix(1.00, 0.00, -0.00, -1.00, 1116.5, 908.7)">C</text><text xml:space="preserve" font-family="OpenSans-Semibold,Open Sans" font-weight="bold" font-size="70.0" fill="#525252" transform="matrix(1.00, 0.00, -0.00, -1.00, 1159.5, 908.7)">O</text><text xml:space="preserve" font-family="OpenSans-Semibold,Open Sans" font-weight="bold" font-size="70.0" fill="#525252" transform="matrix(1.00, 0.00, -0.00, -1.00, 1214.6, 908.7)">M</text><text xml:space="preserve" font-family="OpenSans-Semibold,Open Sans" font-weight="bold" font-size="70.0" fill="#525252" transform="matrix(1.00, 0.00, -0.00, -1.00, 1279.2, 908.7)">M</text><text xml:space="preserve" font-family="OpenSans-Semibold,Open Sans" font-weight="bold" font-size="70.0" fill="#525252" transform="matrix(1.00, 0.00, -0.00, -1.00, 1343.8, 908.7)">U</text><text xml:space="preserve" font-family="OpenSans-Semibold,Open Sans" font-weight="bold" font-size="70.0" fill="#525252" transform="matrix(1.00, 0.00, -0.00, -1.00, 1395.8, 908.7)">N</text><text xml:space="preserve" font-family="OpenSans-Semibold,Open Sans" font-weight="bold" font-size="70.0" fill="#525252" transform="matrix(1.00, 0.00, -0.00, -1.00, 1450.6, 908.7)">I</text><text xml:space="preserve" font-family="OpenSans-Semibold,Open Sans" font-weight="bold" font-size="70.0" fill="#525252" transform="matrix(1.00, 0.00, -0.00, -1.00, 1472.0, 908.7)">T</text><text xml:space="preserve" font-family="OpenSans-Semibold,Open Sans" font-weight="bold" font-size="70.0" fill="#525252" transform="matrix(1.00, 0.00, -0.00, -1.00, 1511.6, 908.7)">I</text><text xml:space="preserve" font-family="OpenSans-Semibold,Open Sans" font-weight="bold" font-size="70.0" fill="#525252" transform="matrix(1.00, 0.00, -0.00, -1.00, 1533.0, 908.7)">E</text><text xml:space="preserve" font-family="OpenSans-Semibold,Open Sans" font-weight="bold" font-size="70.0" fill="#525252" transform="matrix(1.00, 0.00, -0.00, -1.00, 1572.0, 908.7)">S</text></g></g></g></svg>