<?xml version="1.0" encoding="UTF-8" standalone="no"?><svg xmlns="http://www.w3.org/2000/svg" xmlns:xlink="http://www.w3.org/1999/xlink" clip-rule="evenodd" stroke-miterlimit="10" viewBox="0 0 1920 1080"><desc>SVG generated by Keynote</desc><defs></defs><g transform="matrix(1.00, 0.00, -0.00, -1.00, 0.0, 1080.0)"><g><clipPath id="clip0x600004abe7e0"><path d="M 0.0 1080.0 L 1920.0 1080.0 L 1920.0 0.0 L 0.0 0.0 Z M 0.0 1080.0 "></path></clipPath><g clip-path="url(#clip0x600004abe7e0)"><image xlink:href="9EDC5A8D695696C5A4C057AC54B1350D.png" width="1920.00" height="980.00" transform="matrix(1.10, 0.00, -0.00, -1.10, -98.0, 1080.0)"></image></g></g><image xlink:href="2B809BF320BBCC0588FE06F42562165D.png" width="250.00" height="250.00" transform="matrix(1.00, 0.00, -0.00, -1.00, 1487.0, 909.0)"></image><text xml:space="preserve" font-family="OpenSans,Open Sans" font-size="39.0" fill="#525252" transform="matrix(1.00, 0.00, -0.00, -1.00, 559.4, 331.2)">P</text><text xml:space="preserve" font-family="OpenSans,Open Sans" font-size="39.0" fill="#525252" transform="matrix(1.00, 0.00, -0.00, -1.00, 582.9, 331.2)">a</text><text xml:space="preserve" font-family="OpenSans,Open Sans" font-size="39.0" fill="#525252" transform="matrix(1.00, 0.00, -0.00, -1.00, 604.6, 331.2)">i</text><text xml:space="preserve" font-family="OpenSans,Open Sans" font-size="39.0" fill="#525252" transform="matrix(1.00, 0.00, -0.00, -1.00, 614.4, 331.2)">g</text><text xml:space="preserve" font-family="OpenSans,Open Sans" font-size="39.0" fill="#525252" transform="matrix(1.00, 0.00, -0.00, -1.00, 635.8, 331.2)">e</text><text xml:space="preserve" font-family="OpenSans,Open Sans" font-size="39.0" fill="#525252" transform="matrix(1.00, 0.00, -0.00, -1.00, 657.7, 331.2)"> </text><text xml:space="preserve" font-family="OpenSans,Open Sans" font-size="39.0" fill="#525252" transform="matrix(1.00, 0.00, -0.00, -1.00, 667.8, 331.2)">P</text><text xml:space="preserve" font-family="OpenSans,Open Sans" font-size="39.0" fill="#525252" transform="matrix(1.00, 0.00, -0.00, -1.00, 691.3, 331.2)">e</text><text xml:space="preserve" font-family="OpenSans,Open Sans" font-size="39.0" fill="#525252" transform="matrix(1.00, 0.00, -0.00, -1.00, 713.2, 331.2)">t</text><text xml:space="preserve" font-family="OpenSans,Open Sans" font-size="39.0" fill="#525252" transform="matrix(1.00, 0.00, -0.00, -1.00, 726.9, 331.2)">e</text><text xml:space="preserve" font-family="OpenSans,Open Sans" font-size="39.0" fill="#525252" transform="matrix(1.00, 0.00, -0.00, -1.00, 748.8, 331.2)">r</text><text xml:space="preserve" font-family="OpenSans,Open Sans" font-size="39.0" fill="#525252" transform="matrix(1.00, 0.00, -0.00, -1.00, 764.7, 331.2)">s</text><text xml:space="preserve" font-family="OpenSans,Open Sans" font-size="39.0" fill="#525252" transform="matrix(1.00, 0.00, -0.00, -1.00, 783.3, 331.2)">o</text><text xml:space="preserve" font-family="OpenSans,Open Sans" font-size="39.0" fill="#525252" transform="matrix(1.00, 0.00, -0.00, -1.00, 806.9, 331.2)">n</text><text xml:space="preserve" font-family="OpenSans,Open Sans" font-size="39.0" fill="#525252" transform="matrix(1.00, 0.00, -0.00, -1.00, 830.8, 331.2)"> </text><text xml:space="preserve" font-family="OpenSans,Open Sans" font-size="39.0" fill="#525252" transform="matrix(1.00, 0.00, -0.00, -1.00, 840.9, 331.2)">-</text><text xml:space="preserve" font-family="OpenSans,Open Sans" font-size="39.0" fill="#525252" transform="matrix(1.00, 0.00, -0.00, -1.00, 853.5, 331.2)"> </text><text xml:space="preserve" font-family="OpenSans,Open Sans" font-size="39.0" fill="#525252" transform="matrix(1.00, 0.00, -0.00, -1.00, 863.6, 331.2)">C</text><text xml:space="preserve" font-family="OpenSans,Open Sans" font-size="39.0" fill="#525252" transform="matrix(1.00, 0.00, -0.00, -1.00, 888.2, 331.2)">o</text><text xml:space="preserve" font-family="OpenSans,Open Sans" font-size="39.0" fill="#525252" transform="matrix(1.00, 0.00, -0.00, -1.00, 911.8, 331.2)">m</text><text xml:space="preserve" font-family="OpenSans,Open Sans" font-size="39.0" fill="#525252" transform="matrix(1.00, 0.00, -0.00, -1.00, 948.1, 331.2)">m</text><text xml:space="preserve" font-family="OpenSans,Open Sans" font-size="39.0" fill="#525252" transform="matrix(1.00, 0.00, -0.00, -1.00, 984.3, 331.2)">u</text><text xml:space="preserve" font-family="OpenSans,Open Sans" font-size="39.0" fill="#525252" transform="matrix(1.00, 0.00, -0.00, -1.00, 1008.3, 331.2)">n</text><text xml:space="preserve" font-family="OpenSans,Open Sans" font-size="39.0" fill="#525252" transform="matrix(1.00, 0.00, -0.00, -1.00, 1032.2, 331.2)">i</text><text xml:space="preserve" font-family="OpenSans,Open Sans" font-size="39.0" fill="#525252" transform="matrix(1.00, 0.00, -0.00, -1.00, 1042.1, 331.2)">c</text><text xml:space="preserve" font-family="OpenSans,Open Sans" font-size="39.0" fill="#525252" transform="matrix(1.00, 0.00, -0.00, -1.00, 1060.6, 331.2)">a</text><text xml:space="preserve" font-family="OpenSans,Open Sans" font-size="39.0" fill="#525252" transform="matrix(1.00, 0.00, -0.00, -1.00, 1082.3, 331.2)">t</text><text xml:space="preserve" font-family="OpenSans,Open Sans" font-size="39.0" fill="#525252" transform="matrix(1.00, 0.00, -0.00, -1.00, 1096.1, 331.2)">i</text><text xml:space="preserve" font-family="OpenSans,Open Sans" font-size="39.0" fill="#525252" transform="matrix(1.00, 0.00, -0.00, -1.00, 1106.0, 331.2)">o</text><text xml:space="preserve" font-family="OpenSans,Open Sans" font-size="39.0" fill="#525252" transform="matrix(1.00, 0.00, -0.00, -1.00, 1129.5, 331.2)">n</text><text xml:space="preserve" font-family="OpenSans,Open Sans" font-size="39.0" fill="#525252" transform="matrix(1.00, 0.00, -0.00, -1.00, 1153.4, 331.2)">s</text><text xml:space="preserve" font-family="OpenSans,Open Sans" font-size="39.0" fill="#525252" transform="matrix(1.00, 0.00, -0.00, -1.00, 1172.0, 331.2)">,</text><text xml:space="preserve" font-family="OpenSans,Open Sans" font-size="39.0" fill="#525252" transform="matrix(1.00, 0.00, -0.00, -1.00, 1181.6, 331.2)"> </text><text xml:space="preserve" font-family="OpenSans,Open Sans" font-size="39.0" fill="#525252" transform="matrix(1.00, 0.00, -0.00, -1.00, 1191.8, 331.2)">M</text><text xml:space="preserve" font-family="OpenSans,Open Sans" font-size="39.0" fill="#525252" transform="matrix(1.00, 0.00, -0.00, -1.00, 1227.0, 331.2)">a</text><text xml:space="preserve" font-family="OpenSans,Open Sans" font-size="39.0" fill="#525252" transform="matrix(1.00, 0.00, -0.00, -1.00, 1248.7, 331.2)">i</text><text xml:space="preserve" font-family="OpenSans,Open Sans" font-size="39.0" fill="#525252" transform="matrix(1.00, 0.00, -0.00, -1.00, 1258.5, 331.2)">d</text><text xml:space="preserve" font-family="OpenSans,Open Sans" font-size="39.0" fill="#525252" transform="matrix(1.00, 0.00, -0.00, -1.00, 1282.4, 331.2)">S</text><text xml:space="preserve" font-family="OpenSans,Open Sans" font-size="39.0" fill="#525252" transform="matrix(1.00, 0.00, -0.00, -1.00, 1303.8, 331.2)">a</text><text xml:space="preserve" font-family="OpenSans,Open Sans" font-size="39.0" fill="#525252" transform="matrix(1.00, 0.00, -0.00, -1.00, 1325.5, 331.2)">f</text><text xml:space="preserve" font-family="OpenSans,Open Sans" font-size="39.0" fill="#525252" transform="matrix(1.00, 0.00, -0.00, -1.00, 1338.7, 331.2)">e</text><text xml:space="preserve" font-family="OpenSans,Open Sans" font-size="39.0" fill="#525252" transform="matrix(1.00, 0.00, -0.00, -1.00, 1360.6, 331.2)"> </text><text xml:space="preserve" font-family="OpenSans,Open Sans" font-size="39.0" fill="#525252" transform="matrix(1.00, 0.00, -0.00, -1.00, 583.1, 278.2)">R</text><text xml:space="preserve" font-family="OpenSans,Open Sans" font-size="39.0" fill="#525252" transform="matrix(1.00, 0.00, -0.00, -1.00, 607.2, 278.2)">u</text><text xml:space="preserve" font-family="OpenSans,Open Sans" font-size="39.0" fill="#525252" transform="matrix(1.00, 0.00, -0.00, -1.00, 631.1, 278.2)">s</text><text xml:space="preserve" font-family="OpenSans,Open Sans" font-size="39.0" fill="#525252" transform="matrix(1.00, 0.00, -0.00, -1.00, 649.7, 278.2)">t</text><text xml:space="preserve" font-family="OpenSans,Open Sans" font-size="39.0" fill="#525252" transform="matrix(1.00, 0.00, -0.00, -1.00, 663.5, 278.2)">C</text><text xml:space="preserve" font-family="OpenSans,Open Sans" font-size="39.0" fill="#525252" transform="matrix(1.00, 0.00, -0.00, -1.00, 688.1, 278.2)">a</text><text xml:space="preserve" font-family="OpenSans,Open Sans" font-size="39.0" fill="#525252" transform="matrix(1.00, 0.00, -0.00, -1.00, 709.8, 278.2)">m</text><text xml:space="preserve" font-family="OpenSans,Open Sans" font-size="39.0" fill="#525252" transform="matrix(1.00, 0.00, -0.00, -1.00, 746.1, 278.2)">p</text><text xml:space="preserve" font-family="OpenSans,Open Sans" font-size="39.0" fill="#525252" transform="matrix(1.00, 0.00, -0.00, -1.00, 770.0, 278.2)">,</text><text xml:space="preserve" font-family="OpenSans,Open Sans" font-size="39.0" fill="#525252" transform="matrix(1.00, 0.00, -0.00, -1.00, 779.5, 278.2)"> </text><text xml:space="preserve" font-family="OpenSans,Open Sans" font-size="39.0" fill="#525252" transform="matrix(1.00, 0.00, -0.00, -1.00, 789.7, 278.2)">S</text><text xml:space="preserve" font-family="OpenSans,Open Sans" font-size="39.0" fill="#525252" transform="matrix(1.00, 0.00, -0.00, -1.00, 811.1, 278.2)">a</text><text xml:space="preserve" font-family="OpenSans,Open Sans" font-size="39.0" fill="#525252" transform="matrix(1.00, 0.00, -0.00, -1.00, 832.8, 278.2)">n</text><text xml:space="preserve" font-family="OpenSans,Open Sans" font-size="39.0" fill="#525252" transform="matrix(1.00, 0.00, -0.00, -1.00, 856.7, 278.2)"> </text><text xml:space="preserve" font-family="OpenSans,Open Sans" font-size="39.0" fill="#525252" transform="matrix(1.00, 0.00, -0.00, -1.00, 866.8, 278.2)">F</text><text xml:space="preserve" font-family="OpenSans,Open Sans" font-size="39.0" fill="#525252" transform="matrix(1.00, 0.00, -0.00, -1.00, 886.9, 278.2)">r</text><text xml:space="preserve" font-family="OpenSans,Open Sans" font-size="39.0" fill="#525252" transform="matrix(1.00, 0.00, -0.00, -1.00, 902.1, 278.2)">a</text><text xml:space="preserve" font-family="OpenSans,Open Sans" font-size="39.0" fill="#525252" transform="matrix(1.00, 0.00, -0.00, -1.00, 923.8, 278.2)">n</text><text xml:space="preserve" font-family="OpenSans,Open Sans" font-size="39.0" fill="#525252" transform="matrix(1.00, 0.00, -0.00, -1.00, 947.7, 278.2)">c</text><text xml:space="preserve" font-family="OpenSans,Open Sans" font-size="39.0" fill="#525252" transform="matrix(1.00, 0.00, -0.00, -1.00, 966.3, 278.2)">i</text><text xml:space="preserve" font-family="OpenSans,Open Sans" font-size="39.0" fill="#525252" transform="matrix(1.00, 0.00, -0.00, -1.00, 976.1, 278.2)">s</text><text xml:space="preserve" font-family="OpenSans,Open Sans" font-size="39.0" fill="#525252" transform="matrix(1.00, 0.00, -0.00, -1.00, 994.8, 278.2)">c</text><text xml:space="preserve" font-family="OpenSans,Open Sans" font-size="39.0" fill="#525252" transform="matrix(1.00, 0.00, -0.00, -1.00, 1013.3, 278.2)">o</text><text xml:space="preserve" font-family="OpenSans,Open Sans" font-size="39.0" fill="#525252" transform="matrix(1.00, 0.00, -0.00, -1.00, 1036.9, 278.2)">,</text><text xml:space="preserve" font-family="OpenSans,Open Sans" font-size="39.0" fill="#525252" transform="matrix(1.00, 0.00, -0.00, -1.00, 1046.4, 278.2)"> </text><text xml:space="preserve" font-family="OpenSans,Open Sans" font-size="39.0" fill="#525252" transform="matrix(1.00, 0.00, -0.00, -1.00, 1056.6, 278.2)">0</text><text xml:space="preserve" font-family="OpenSans,Open Sans" font-size="39.0" fill="#525252" transform="matrix(1.00, 0.00, -0.00, -1.00, 1078.9, 278.2)">1</text><text xml:space="preserve" font-family="OpenSans,Open Sans" font-size="39.0" fill="#525252" transform="matrix(1.00, 0.00, -0.00, -1.00, 1101.2, 278.2)"> </text><text xml:space="preserve" font-family="OpenSans,Open Sans" font-size="39.0" fill="#525252" transform="matrix(1.00, 0.00, -0.00, -1.00, 1111.3, 278.2)">A</text><text xml:space="preserve" font-family="OpenSans,Open Sans" font-size="39.0" fill="#525252" transform="matrix(1.00, 0.00, -0.00, -1.00, 1135.9, 278.2)">u</text><text xml:space="preserve" font-family="OpenSans,Open Sans" font-size="39.0" fill="#525252" transform="matrix(1.00, 0.00, -0.00, -1.00, 1159.9, 278.2)">g</text><text xml:space="preserve" font-family="OpenSans,Open Sans" font-size="39.0" fill="#525252" transform="matrix(1.00, 0.00, -0.00, -1.00, 1181.2, 278.2)">u</text><text xml:space="preserve" font-family="OpenSans,Open Sans" font-size="39.0" fill="#525252" transform="matrix(1.00, 0.00, -0.00, -1.00, 1205.2, 278.2)">s</text><text xml:space="preserve" font-family="OpenSans,Open Sans" font-size="39.0" fill="#525252" transform="matrix(1.00, 0.00, -0.00, -1.00, 1223.8, 278.2)">t</text><text xml:space="preserve" font-family="OpenSans,Open Sans" font-size="39.0" fill="#525252" transform="matrix(1.00, 0.00, -0.00, -1.00, 1237.5, 278.2)"> </text><text xml:space="preserve" font-family="OpenSans,Open Sans" font-size="39.0" fill="#525252" transform="matrix(1.00, 0.00, -0.00, -1.00, 1247.7, 278.2)">2</text><text xml:space="preserve" font-family="OpenSans,Open Sans" font-size="39.0" fill="#525252" transform="matrix(1.00, 0.00, -0.00, -1.00, 1270.0, 278.2)">0</text><text xml:space="preserve" font-family="OpenSans,Open Sans" font-size="39.0" fill="#525252" transform="matrix(1.00, 0.00, -0.00, -1.00, 1292.3, 278.2)">1</text><text xml:space="preserve" font-family="OpenSans,Open Sans" font-size="39.0" fill="#525252" transform="matrix(1.00, 0.00, -0.00, -1.00, 1314.6, 278.2)">5</text><text xml:space="preserve" font-family="OpenSans-Bold,Open Sans" font-weight="bold" font-size="80.0" fill="#5F5F5F" transform="matrix(1.00, 0.00, -0.00, -1.00, 540.0, 611.4)">E</text><text xml:space="preserve" font-family="OpenSans-Bold,Open Sans" font-weight="bold" font-size="80.0" fill="#5F5F5F" transform="matrix(1.00, 0.00, -0.00, -1.00, 584.8, 611.4)">v</text><text xml:space="preserve" font-family="OpenSans-Bold,Open Sans" font-weight="bold" font-size="80.0" fill="#5F5F5F" transform="matrix(1.00, 0.00, -0.00, -1.00, 630.3, 611.4)">o</text><text xml:space="preserve" font-family="OpenSans-Bold,Open Sans" font-weight="bold" font-size="80.0" fill="#5F5F5F" transform="matrix(1.00, 0.00, -0.00, -1.00, 679.8, 611.4)">l</text><text xml:space="preserve" font-family="OpenSans-Bold,Open Sans" font-weight="bold" font-size="80.0" fill="#5F5F5F" transform="matrix(1.00, 0.00, -0.00, -1.00, 704.3, 611.4)">v</text><text xml:space="preserve" font-family="OpenSans-Bold,Open Sans" font-weight="bold" font-size="80.0" fill="#5F5F5F" transform="matrix(1.00, 0.00, -0.00, -1.00, 749.8, 611.4)">i</text><text xml:space="preserve" font-family="OpenSans-Bold,Open Sans" font-weight="bold" font-size="80.0" fill="#5F5F5F" transform="matrix(1.00, 0.00, -0.00, -1.00, 774.2, 611.4)">n</text><text xml:space="preserve" font-family="OpenSans-Bold,Open Sans" font-weight="bold" font-size="80.0" fill="#5F5F5F" transform="matrix(1.00, 0.00, -0.00, -1.00, 826.8, 611.4)">g</text><text xml:space="preserve" font-family="OpenSans-Bold,Open Sans" font-weight="bold" font-size="80.0" fill="#5F5F5F" transform="matrix(1.00, 0.00, -0.00, -1.00, 872.0, 611.4)"> </text><text xml:space="preserve" font-family="OpenSans-Bold,Open Sans" font-weight="bold" font-size="80.0" fill="#5F5F5F" transform="matrix(1.00, 0.00, -0.00, -1.00, 892.8, 611.4)">t</text><text xml:space="preserve" font-family="OpenSans-Bold,Open Sans" font-weight="bold" font-size="80.0" fill="#5F5F5F" transform="matrix(1.00, 0.00, -0.00, -1.00, 927.5, 611.4)">h</text><text xml:space="preserve" font-family="OpenSans-Bold,Open Sans" font-weight="bold" font-size="80.0" fill="#5F5F5F" transform="matrix(1.00, 0.00, -0.00, -1.00, 980.1, 611.4)">e</text><text xml:space="preserve" font-family="OpenSans-Bold,Open Sans" font-weight="bold" font-size="80.0" fill="#5F5F5F" transform="matrix(1.00, 0.00, -0.00, -1.00, 1027.4, 611.4)"> </text><text xml:space="preserve" font-family="OpenSans-Bold,Open Sans" font-weight="bold" font-size="80.0" fill="#5F5F5F" transform="matrix(1.00, 0.00, -0.00, -1.00, 1048.2, 611.4)">I</text><text xml:space="preserve" font-family="OpenSans-Bold,Open Sans" font-weight="bold" font-size="80.0" fill="#5F5F5F" transform="matrix(1.00, 0.00, -0.00, -1.00, 1074.7, 611.4)">n</text><text xml:space="preserve" font-family="OpenSans-Bold,Open Sans" font-weight="bold" font-size="80.0" fill="#5F5F5F" transform="matrix(1.00, 0.00, -0.00, -1.00, 1127.2, 611.4)">t</text><text xml:space="preserve" font-family="OpenSans-Bold,Open Sans" font-weight="bold" font-size="80.0" fill="#5F5F5F" transform="matrix(1.00, 0.00, -0.00, -1.00, 1162.0, 611.4)">e</text><text xml:space="preserve" font-family="OpenSans-Bold,Open Sans" font-weight="bold" font-size="80.0" fill="#5F5F5F" transform="matrix(1.00, 0.00, -0.00, -1.00, 1209.3, 611.4)">r</text><text xml:space="preserve" font-family="OpenSans-Bold,Open Sans" font-weight="bold" font-size="80.0" fill="#5F5F5F" transform="matrix(1.00, 0.00, -0.00, -1.00, 1245.6, 611.4)">n</text><text xml:space="preserve" font-family="OpenSans-Bold,Open Sans" font-weight="bold" font-size="80.0" fill="#5F5F5F" transform="matrix(1.00, 0.00, -0.00, -1.00, 1298.2, 611.4)">e</text><text xml:space="preserve" font-family="OpenSans-Bold,Open Sans" font-weight="bold" font-size="80.0" fill="#5F5F5F" transform="matrix(1.00, 0.00, -0.00, -1.00, 1345.5, 611.4)">t</text><text xml:space="preserve" font-family="OpenSans-Bold,Open Sans" font-weight="bold" font-size="80.0" fill="#5F5F5F" transform="matrix(1.00, 0.00, -0.00, -1.00, 1380.2, 611.4)"> </text><text xml:space="preserve" font-family="OpenSans-Bold,Open Sans" font-weight="bold" font-size="80.0" fill="#5F5F5F" transform="matrix(1.00, 0.00, -0.00, -1.00, 752.4, 502.4)">u</text><text xml:space="preserve" font-family="OpenSans-Bold,Open Sans" font-weight="bold" font-size="80.0" fill="#5F5F5F" transform="matrix(1.00, 0.00, -0.00, -1.00, 805.0, 502.4)">s</text><text xml:space="preserve" font-family="OpenSans-Bold,Open Sans" font-weight="bold" font-size="80.0" fill="#5F5F5F" transform="matrix(1.00, 0.00, -0.00, -1.00, 844.8, 502.4)">i</text><text xml:space="preserve" font-family="OpenSans-Bold,Open Sans" font-weight="bold" font-size="80.0" fill="#5F5F5F" transform="matrix(1.00, 0.00, -0.00, -1.00, 869.2, 502.4)">n</text><text xml:space="preserve" font-family="OpenSans-Bold,Open Sans" font-weight="bold" font-size="80.0" fill="#5F5F5F" transform="matrix(1.00, 0.00, -0.00, -1.00, 921.8, 502.4)">g</text><text xml:space="preserve" font-family="OpenSans-Bold,Open Sans" font-weight="bold" font-size="80.0" fill="#5F5F5F" transform="matrix(1.00, 0.00, -0.00, -1.00, 967.0, 502.4)"> </text><text xml:space="preserve" font-family="OpenSans-Bold,Open Sans" font-weight="bold" font-size="80.0" fill="#5F5F5F" transform="matrix(1.00, 0.00, -0.00, -1.00, 987.8, 502.4)">R</text><text xml:space="preserve" font-family="OpenSans-Bold,Open Sans" font-weight="bold" font-size="80.0" fill="#5F5F5F" transform="matrix(1.00, 0.00, -0.00, -1.00, 1040.6, 502.4)">u</text><text xml:space="preserve" font-family="OpenSans-Bold,Open Sans" font-weight="bold" font-size="80.0" fill="#5F5F5F" transform="matrix(1.00, 0.00, -0.00, -1.00, 1093.2, 502.4)">s</text><text xml:space="preserve" font-family="OpenSans-Bold,Open Sans" font-weight="bold" font-size="80.0" fill="#5F5F5F" transform="matrix(1.00, 0.00, -0.00, -1.00, 1133.0, 502.4)">t</text></g></svg>